<svg width="15" height="22" viewBox="0 0 15 22" fill="none" xmlns="http://www.w3.org/2000/svg">
<path d="M7.57617 2V4.23947" stroke="#39B469" stroke-width="3" stroke-linecap="round" stroke-linejoin="round"/>
<path d="M7.57617 19.9153V17.6758" stroke="#39B469" stroke-width="3" stroke-linecap="round" stroke-linejoin="round"/>
<path d="M2.55896 16.0402C2.84285 16.5207 3.24726 16.9207 3.7323 17.1993C4.21734 17.478 4.76667 17.6258 5.32669 17.6302H10.0516C10.8234 17.6345 11.5699 17.3567 12.1495 16.8494C12.729 16.3421 13.1013 15.6413 13.1956 14.8789C13.29 14.1166 13.0997 13.3459 12.6612 12.7138C12.2226 12.0817 11.5663 11.632 10.8166 11.4498L4.33655 10.3978C3.59939 10.1974 2.95973 9.73766 2.53507 9.10532C2.1104 8.47298 1.92923 7.71011 2.02503 6.95552C2.12082 6.20092 2.48703 5.5055 3.05637 4.99817C3.62571 4.49084 4.35991 4.20499 5.12399 4.19336H9.82669C10.3898 4.19552 10.9422 4.34541 11.4282 4.62857C11.9142 4.91173 12.3165 5.31749 12.5941 5.80516" stroke="#39B469" stroke-width="3" stroke-linecap="round" stroke-linejoin="round"/>
</svg>
