<svg width="18" height="20" viewBox="0 0 18 20" fill="none" xmlns="http://www.w3.org/2000/svg">
<path fill-rule="evenodd" clip-rule="evenodd" d="M5.2443 8.03588C5.22277 8.04353 5.19722 8.03649 5.18277 8.01895C4.50252 7.12769 4.3316 5.5955 4.29001 5.00697C4.28146 4.89366 4.15271 4.82995 4.04959 4.88689C1.94902 6.05437 0 8.81608 0 11.4825C0 16.0634 3.21551 19.9063 8.75094 19.9063C13.9371 19.9063 17.5019 15.9455 17.5019 11.4831C17.5019 5.64397 13.2848 1.76438 9.5286 0.0106242C9.44074 -0.0303927 9.3242 0.0540515 9.33718 0.14932C9.82087 3.29605 9.15259 6.71844 5.2443 8.03588Z" fill="url(#paint0_linear_29276_8182)"/>
<mask id="mask0_29276_8182" style="mask-type:alpha" maskUnits="userSpaceOnUse" x="0" y="0" width="18" height="20">
<path fill-rule="evenodd" clip-rule="evenodd" d="M5.2443 8.03588C5.22277 8.04353 5.19722 8.03649 5.18277 8.01895C4.50252 7.12769 4.3316 5.5955 4.29001 5.00697C4.28146 4.89366 4.15271 4.82995 4.04959 4.88689C1.94902 6.05437 0 8.81608 0 11.4825C0 16.0634 3.21551 19.9063 8.75094 19.9063C13.9371 19.9063 17.5019 15.9455 17.5019 11.4831C17.5019 5.64397 13.2848 1.76438 9.5286 0.0106242C9.44074 -0.0303927 9.3242 0.0540515 9.33718 0.14932C9.82087 3.29605 9.15259 6.71844 5.2443 8.03588Z" fill="url(#paint1_linear_29276_8182)"/>
</mask>
<g mask="url(#mask0_29276_8182)">
<path d="M15.2366 0.420872C14.2352 -0.903724 12.9481 -1.98693 11.4704 -2.74866C9.99277 -3.5104 8.36231 -3.9312 6.69967 -3.97995C4.08761 -4.03211 2.28326 -3.24933 1.26241 -2.61996C2.62831 -3.41004 4.60507 -3.85822 6.33575 -3.83607C10.7876 -3.77997 15.569 -0.75625 16.2791 4.69377C17.0946 10.9499 12.7252 16.1714 6.57873 16.1873C-0.183391 16.2045 -4.29634 10.2333 -3.2212 4.86993C-3.20121 4.60693 -3.1624 4.34572 -3.10506 4.08826C-2.97239 2.71368 -2.57184 1.37815 -1.92587 0.15667C-2.70459 0.558582 -3.6962 1.82964 -4.18553 3.00705C-4.89785 4.80348 -5.14899 6.74886 -4.91616 8.6666C-4.89929 8.81189 -4.8841 8.95689 -4.86498 9.10107C-4.57337 10.7756 -3.90464 12.3624 -2.90913 13.7419C-1.91362 15.1215 -0.617276 16.2577 0.882313 17.0653C2.38188 17.8729 4.04563 18.3306 5.74829 18.4041C7.45091 18.4776 9.14812 18.1649 10.712 17.4895C12.276 16.8142 13.6659 15.7939 14.7772 14.5052C15.8885 13.2167 16.6922 11.6934 17.1277 10.0503C17.5633 8.40708 17.6194 6.68675 17.2918 5.01878C16.9643 3.35087 16.2616 1.77877 15.2366 0.420872Z" fill="url(#paint2_radial_29276_8182)"/>
<path opacity="0.67" d="M15.2366 0.420872C14.2352 -0.903724 12.9481 -1.98693 11.4704 -2.74866C9.99277 -3.5104 8.36231 -3.9312 6.69967 -3.97995C4.08761 -4.03211 2.28326 -3.24933 1.26241 -2.61996C2.62831 -3.41004 4.60507 -3.85822 6.33575 -3.83607C10.7876 -3.77997 15.569 -0.75625 16.2791 4.69377C17.0946 10.9499 12.7252 16.1714 6.57873 16.1873C-0.183391 16.2045 -4.29634 10.2333 -3.2212 4.86993C-3.20121 4.60693 -3.1624 4.34572 -3.10506 4.08826C-2.97239 2.71368 -2.57184 1.37815 -1.92587 0.15667C-2.70459 0.558582 -3.6962 1.82964 -4.18553 3.00705C-4.89785 4.80348 -5.14899 6.74886 -4.91616 8.6666C-4.89929 8.81189 -4.8841 8.95689 -4.86498 9.10107C-4.57337 10.7756 -3.90464 12.3624 -2.90913 13.7419C-1.91362 15.1215 -0.617276 16.2577 0.882313 17.0653C2.38188 17.8729 4.04563 18.3306 5.74829 18.4041C7.45091 18.4776 9.14812 18.1649 10.712 17.4895C12.276 16.8142 13.6659 15.7939 14.7772 14.5052C15.8885 13.2167 16.6922 11.6934 17.1277 10.0503C17.5633 8.40708 17.6194 6.68675 17.2918 5.01878C16.9643 3.35087 16.2616 1.77877 15.2366 0.420872Z" fill="url(#paint3_radial_29276_8182)"/>
<path d="M15.2366 0.420872C14.2352 -0.903724 12.9481 -1.98693 11.4704 -2.74866C9.99277 -3.5104 8.36231 -3.9312 6.69967 -3.97995C4.08761 -4.03211 2.28326 -3.24933 1.26241 -2.61996C2.62831 -3.41004 4.60507 -3.85822 6.33575 -3.83607C10.7876 -3.77997 15.569 -0.75625 16.2791 4.69377C17.0946 10.9499 12.7252 16.1714 6.57873 16.1873C-0.183391 16.2045 -4.29634 10.2333 -3.2212 4.86993C-3.20121 4.60693 -3.1624 4.34572 -3.10506 4.08826C-2.97239 2.71368 -2.57184 1.37815 -1.92587 0.15667C-2.70459 0.558582 -3.6962 1.82964 -4.18553 3.00705C-4.89785 4.80348 -5.14899 6.74886 -4.91616 8.6666C-4.89929 8.81189 -4.8841 8.95689 -4.86498 9.10107C-4.57337 10.7756 -3.90464 12.3624 -2.90913 13.7419C-1.91362 15.1215 -0.617276 16.2577 0.882313 17.0653C2.38188 17.8729 4.04563 18.3306 5.74829 18.4041C7.45091 18.4776 9.14812 18.1649 10.712 17.4895C12.276 16.8142 13.6659 15.7939 14.7772 14.5052C15.8885 13.2167 16.6922 11.6934 17.1277 10.0503C17.5633 8.40708 17.6194 6.68675 17.2918 5.01878C16.9643 3.35087 16.2616 1.77877 15.2366 0.420872Z" fill="url(#paint4_radial_29276_8182)"/>
<path d="M15.2366 0.420872C14.2352 -0.903724 12.9481 -1.98693 11.4704 -2.74866C9.99277 -3.5104 8.36231 -3.9312 6.69967 -3.97995C4.08761 -4.03211 2.28326 -3.24933 1.26241 -2.61996C2.62831 -3.41004 4.60507 -3.85822 6.33575 -3.83607C10.7876 -3.77997 15.569 -0.75625 16.2791 4.69377C17.0946 10.9499 12.7252 16.1714 6.57873 16.1873C-0.183391 16.2045 -4.29634 10.2333 -3.2212 4.86993C-3.20121 4.60693 -3.1624 4.34572 -3.10506 4.08826C-2.97239 2.71368 -2.57184 1.37815 -1.92587 0.15667C-2.70459 0.558582 -3.6962 1.82964 -4.18553 3.00705C-4.89785 4.80348 -5.14899 6.74886 -4.91616 8.6666C-4.89929 8.81189 -4.8841 8.95689 -4.86498 9.10107C-4.57337 10.7756 -3.90464 12.3624 -2.90913 13.7419C-1.91362 15.1215 -0.617276 16.2577 0.882313 17.0653C2.38188 17.8729 4.04563 18.3306 5.74829 18.4041C7.45091 18.4776 9.14812 18.1649 10.712 17.4895C12.276 16.8142 13.6659 15.7939 14.7772 14.5052C15.8885 13.2167 16.6922 11.6934 17.1277 10.0503C17.5633 8.40708 17.6194 6.68675 17.2918 5.01878C16.9643 3.35087 16.2616 1.77877 15.2366 0.420872Z" fill="url(#paint5_radial_29276_8182)"/>
<path d="M15.2366 0.420872C14.2352 -0.903724 12.9481 -1.98693 11.4704 -2.74866C9.99277 -3.5104 8.36231 -3.9312 6.69967 -3.97995C4.08761 -4.03211 2.28326 -3.24933 1.26241 -2.61996C2.62831 -3.41004 4.60507 -3.85822 6.33575 -3.83607C10.7876 -3.77997 15.569 -0.75625 16.2791 4.69377C17.0946 10.9499 12.7252 16.1714 6.57873 16.1873C-0.183391 16.2045 -4.29634 10.2333 -3.2212 4.86993C-3.20121 4.60693 -3.1624 4.34572 -3.10506 4.08826C-2.97239 2.71368 -2.57184 1.37815 -1.92587 0.15667C-2.70459 0.558582 -3.6962 1.82964 -4.18553 3.00705C-4.89785 4.80348 -5.14899 6.74886 -4.91616 8.6666C-4.89929 8.81189 -4.8841 8.95689 -4.86498 9.10107C-4.57337 10.7756 -3.90464 12.3624 -2.90913 13.7419C-1.91362 15.1215 -0.617276 16.2577 0.882313 17.0653C2.38188 17.8729 4.04563 18.3306 5.74829 18.4041C7.45091 18.4776 9.14812 18.1649 10.712 17.4895C12.276 16.8142 13.6659 15.7939 14.7772 14.5052C15.8885 13.2167 16.6922 11.6934 17.1277 10.0503C17.5633 8.40708 17.6194 6.68675 17.2918 5.01878C16.9643 3.35087 16.2616 1.77877 15.2366 0.420872Z" fill="url(#paint6_radial_29276_8182)"/>
<path d="M16.2754 4.4857C16.3651 5.14324 16.3939 5.80713 16.3612 6.46951C16.7407 6.41478 17.1209 6.36639 17.5018 6.32441C17.3812 4.14829 16.585 2.056 15.2149 0.315264C14.1962 -0.977559 12.887 -2.03479 11.3839 -2.77825C9.88072 -3.52172 8.22221 -3.93243 6.53093 -3.98001C3.87388 -4.03092 2.03843 -3.26691 1 -2.65264C2.38943 -3.42377 4.40025 -3.8612 6.16074 -3.83958C10.6892 -3.78428 15.553 -0.834449 16.2754 4.4857Z" fill="url(#paint7_linear_29276_8182)"/>
<path d="M16.9076 4.3523C16.2629 -1.42348 11.0752 -4.01956 6.50119 -3.98202C4.73819 -3.9678 2.72517 -3.55 1.33394 -2.74882C0.965823 -2.53208 0.623697 -2.27446 0.314242 -1.98092C0.351205 -2.01135 0.46146 -2.10151 0.644226 -2.22608L0.662269 -2.23831L0.678312 -2.24912C1.3534 -2.70234 2.09724 -3.04532 2.88156 -3.26503C4.11021 -3.60224 5.38372 -3.75024 6.65758 -3.70387C9.02184 -3.56368 11.2487 -2.55391 12.9037 -0.87156C14.5587 0.81077 15.523 3.04504 15.6086 5.39521C15.7137 9.1514 12.6177 12.1462 9.04875 12.3197C6.45306 12.446 4.00751 11.1989 2.81309 8.70402C2.53367 8.13582 2.34393 7.52836 2.2505 6.90285C1.68455 3.10602 4.2524 -0.131979 6.60715 -0.933729C5.33686 -2.03553 2.15371 -1.96073 -0.215376 -0.230104C-1.92137 1.01619 -3.02815 2.91233 -3.39478 5.17365C-3.65855 6.90876 -3.42632 8.68256 -2.72453 10.293C-1.99557 12.0009 -0.804354 13.4748 0.716982 14.5513C2.23826 15.6279 4.03023 16.2648 5.89394 16.3916C6.17828 16.4132 6.4632 16.4239 6.74867 16.4237C14.3283 16.4237 17.6165 10.7108 16.9076 4.3523Z" fill="url(#paint8_radial_29276_8182)"/>
<path d="M16.9076 4.3523C16.2629 -1.42348 11.0752 -4.01956 6.50119 -3.98202C4.73819 -3.9678 2.72517 -3.55 1.33394 -2.74882C0.965823 -2.53208 0.623697 -2.27446 0.314242 -1.98092C0.351205 -2.01135 0.46146 -2.10151 0.644226 -2.22608L0.662269 -2.23831L0.678312 -2.24912C1.3534 -2.70234 2.09724 -3.04532 2.88156 -3.26503C4.11021 -3.60224 5.38372 -3.75024 6.65758 -3.70387C9.02184 -3.56368 11.2487 -2.55391 12.9037 -0.87156C14.5587 0.81077 15.523 3.04504 15.6086 5.39521C15.7137 9.1514 12.6177 12.1462 9.04875 12.3197C6.45306 12.446 4.00751 11.1989 2.81309 8.70402C2.53367 8.13582 2.34393 7.52836 2.2505 6.90285C1.68455 3.10602 4.2524 -0.131979 6.60715 -0.933729C5.33686 -2.03553 2.15371 -1.96073 -0.215376 -0.230104C-1.92137 1.01619 -3.02815 2.91233 -3.39478 5.17365C-3.65855 6.90876 -3.42632 8.68256 -2.72453 10.293C-1.99557 12.0009 -0.804354 13.4748 0.716982 14.5513C2.23826 15.6279 4.03023 16.2648 5.89394 16.3916C6.17828 16.4132 6.4632 16.4239 6.74867 16.4237C14.3283 16.4237 17.6165 10.7108 16.9076 4.3523Z" fill="url(#paint9_radial_29276_8182)"/>
<path opacity="0.53" d="M16.9076 4.3523C16.2629 -1.42348 11.0752 -4.01956 6.50119 -3.98202C4.73819 -3.9678 2.72517 -3.55 1.33394 -2.74882C0.965823 -2.53208 0.623697 -2.27446 0.314242 -1.98092C0.351205 -2.01135 0.46146 -2.10151 0.644226 -2.22608L0.662269 -2.23831L0.678312 -2.24912C1.3534 -2.70234 2.09724 -3.04532 2.88156 -3.26503C4.11021 -3.60224 5.38372 -3.75024 6.65758 -3.70387C9.02184 -3.56368 11.2487 -2.55391 12.9037 -0.87156C14.5587 0.81077 15.523 3.04504 15.6086 5.39521C15.7137 9.1514 12.6177 12.1462 9.04875 12.3197C6.45306 12.446 4.00751 11.1989 2.81309 8.70402C2.53367 8.13582 2.34393 7.52836 2.2505 6.90285C1.68455 3.10602 4.2524 -0.131979 6.60715 -0.933729C5.33686 -2.03553 2.15371 -1.96073 -0.215376 -0.230104C-1.92137 1.01619 -3.02815 2.91233 -3.39478 5.17365C-3.65855 6.90876 -3.42632 8.68256 -2.72453 10.293C-1.99557 12.0009 -0.804354 13.4748 0.716982 14.5513C2.23826 15.6279 4.03023 16.2648 5.89394 16.3916C6.17828 16.4132 6.4632 16.4239 6.74867 16.4237C14.3283 16.4237 17.6165 10.7108 16.9076 4.3523Z" fill="url(#paint10_radial_29276_8182)"/>
<path opacity="0.53" d="M16.9076 4.3523C16.2629 -1.42348 11.0752 -4.01956 6.50119 -3.98202C4.73819 -3.9678 2.72517 -3.55 1.33394 -2.74882C0.965823 -2.53208 0.623697 -2.27446 0.314242 -1.98092C0.351205 -2.01135 0.46146 -2.10151 0.644226 -2.22608L0.662269 -2.23831L0.678312 -2.24912C1.3534 -2.70234 2.09724 -3.04532 2.88156 -3.26503C4.11021 -3.60224 5.38372 -3.75024 6.65758 -3.70387C9.02184 -3.56368 11.2487 -2.55391 12.9037 -0.87156C14.5587 0.81077 15.523 3.04504 15.6086 5.39521C15.7137 9.1514 12.6177 12.1462 9.04875 12.3197C6.45306 12.446 4.00751 11.1989 2.81309 8.70402C2.53367 8.13582 2.34393 7.52836 2.2505 6.90285C1.68455 3.10602 4.2524 -0.131979 6.60715 -0.933729C5.33686 -2.03553 2.15371 -1.96073 -0.215376 -0.230104C-1.92137 1.01619 -3.02815 2.91233 -3.39478 5.17365C-3.65855 6.90876 -3.42632 8.68256 -2.72453 10.293C-1.99557 12.0009 -0.804354 13.4748 0.716982 14.5513C2.23826 15.6279 4.03023 16.2648 5.89394 16.3916C6.17828 16.4132 6.4632 16.4239 6.74867 16.4237C14.3283 16.4237 17.6165 10.7108 16.9076 4.3523Z" fill="url(#paint11_radial_29276_8182)"/>
<path d="M8.80232 12.4235C13.7431 12.1304 15.8581 8.13897 15.9907 5.3075C16.1976 0.883428 13.5073 -3.88594 6.39033 -3.45749C5.10531 -3.50317 3.82068 -3.3562 2.58136 -3.0217C1.79374 -2.7947 1.04483 -2.45542 0.358885 -2.01484L0.342702 -2.00413L0.324502 -1.99201C0.213924 -1.91684 0.105757 -1.83772 0 -1.75466C1.84219 -2.75961 3.97066 -3.14923 6.06095 -2.86413C10.147 -2.34097 13.8829 0.759967 13.8829 4.8517C13.8829 7.99998 11.3891 10.4047 8.46892 10.2319C4.13057 9.9782 3.03699 5.63729 5.29385 3.76167C4.68533 3.63397 3.54173 3.88428 2.74545 5.04565C2.03093 6.08858 2.07136 7.6981 2.51229 8.83999C3.06184 9.99119 3.95865 10.9512 5.08273 11.5916C6.20685 12.232 7.50456 12.5222 8.80232 12.4235Z" fill="url(#paint12_radial_29276_8182)"/>
<path d="M15.2366 0.473545C14.9353 0.081226 14.6082 -0.290806 14.2574 -0.640109C13.9788 -0.932989 13.6803 -1.20641 13.3639 -1.45843C13.5459 -1.30078 13.7195 -1.13367 13.8839 -0.957815C14.4995 -0.304548 14.9676 0.472011 15.2568 1.31984C15.8443 3.08986 15.8061 5.30515 14.6842 7.04503C14.0614 8.01993 13.1915 8.81472 12.162 9.34956C11.1326 9.8844 9.97972 10.1405 8.81922 10.092C8.71771 10.092 8.61535 10.092 8.51242 10.0845C4.28975 9.8328 3.22533 5.52581 5.4223 3.6649C4.82971 3.5382 3.71661 3.78655 2.94156 4.9388C2.24609 5.97357 2.28545 7.57049 2.71462 8.70345C2.44038 8.14471 2.25418 7.54736 2.16254 6.93232C1.60659 3.19868 4.12778 0.0146057 6.43974 -0.773792C5.19253 -1.85724 2.06722 -1.78369 -0.258815 -0.0818847C-1.62689 0.935115 -2.62308 2.36903 -3.09557 4.00135C-2.94498 2.67677 -2.54838 1.39153 -1.92594 0.210934C-2.70466 0.611706 -3.69627 1.8792 -4.18561 3.05322C-4.89779 4.84431 -5.14893 6.78388 -4.91624 8.6959C-4.89936 8.84078 -4.88418 8.98537 -4.86505 9.12914C-4.57345 10.799 -3.90471 12.3812 -2.9092 13.7568C-1.91369 15.1325 -0.617338 16.2655 0.882248 17.0708C2.38182 17.876 4.04557 18.3325 5.74825 18.4058C7.45087 18.4791 9.14809 18.1672 10.712 17.4938C12.2759 16.8204 13.6659 15.8029 14.7772 14.518C15.8884 13.2331 16.6922 11.7141 17.1277 10.0756C17.5633 8.43711 17.6194 6.72166 17.2918 5.05843C16.9643 3.39525 16.2616 1.82761 15.2366 0.473545Z" fill="url(#paint13_linear_29276_8182)"/>
</g>
<defs>
<linearGradient id="paint0_linear_29276_8182" x1="8.75094" y1="0" x2="8.75094" y2="19.9063" gradientUnits="userSpaceOnUse">
<stop stop-color="#FFE645"/>
<stop offset="1" stop-color="#E30F6A"/>
</linearGradient>
<linearGradient id="paint1_linear_29276_8182" x1="8.75094" y1="0" x2="8.75094" y2="19.9063" gradientUnits="userSpaceOnUse">
<stop stop-color="#FFE645"/>
<stop offset="1" stop-color="#E30F6A"/>
</linearGradient>
<radialGradient id="paint2_radial_29276_8182" cx="0" cy="0" r="1" gradientUnits="userSpaceOnUse" gradientTransform="translate(15.1205 0.612989) scale(25.5298 25.4609)">
<stop stop-color="#FFF36E"/>
<stop offset="0.5" stop-color="#FC4055"/>
<stop offset="1" stop-color="#E31587"/>
</radialGradient>
<radialGradient id="paint3_radial_29276_8182" cx="0" cy="0" r="1" gradientUnits="userSpaceOnUse" gradientTransform="translate(-3.13177 1.66613) scale(15.1092 15.0684)">
<stop offset="0.001" stop-color="#C60084"/>
<stop offset="1" stop-color="#FC4055" stop-opacity="0"/>
</radialGradient>
<radialGradient id="paint4_radial_29276_8182" cx="0" cy="0" r="1" gradientUnits="userSpaceOnUse" gradientTransform="translate(17.3028 -0.835905) scale(29.9785 29.8976)">
<stop stop-color="#FFDE67" stop-opacity="0.6"/>
<stop offset="0.093" stop-color="#FFD966" stop-opacity="0.581"/>
<stop offset="0.203" stop-color="#FFCA65" stop-opacity="0.525"/>
<stop offset="0.321" stop-color="#FEB262" stop-opacity="0.432"/>
<stop offset="0.446" stop-color="#FE8F5E" stop-opacity="0.302"/>
<stop offset="0.573" stop-color="#FD6459" stop-opacity="0.137"/>
<stop offset="0.664" stop-color="#FC4055" stop-opacity="0"/>
</radialGradient>
<radialGradient id="paint5_radial_29276_8182" cx="0" cy="0" r="1" gradientUnits="userSpaceOnUse" gradientTransform="translate(6.89568 8.47141) scale(38.6747 38.5702)">
<stop offset="0.153" stop-color="#810220"/>
<stop offset="0.167" stop-color="#920B27" stop-opacity="0.861"/>
<stop offset="0.216" stop-color="#CB2740" stop-opacity="0.398"/>
<stop offset="0.253" stop-color="#EF394F" stop-opacity="0.11"/>
<stop offset="0.272" stop-color="#FC4055" stop-opacity="0"/>
</radialGradient>
<radialGradient id="paint6_radial_29276_8182" cx="0" cy="0" r="1" gradientUnits="userSpaceOnUse" gradientTransform="translate(3.96893 7.9865) scale(38.6747 38.5702)">
<stop offset="0.113" stop-color="#810220"/>
<stop offset="0.133" stop-color="#920B27" stop-opacity="0.861"/>
<stop offset="0.204" stop-color="#CB2740" stop-opacity="0.398"/>
<stop offset="0.257" stop-color="#EF394F" stop-opacity="0.11"/>
<stop offset="0.284" stop-color="#FC4055" stop-opacity="0"/>
</radialGradient>
<linearGradient id="paint7_linear_29276_8182" x1="7.74469" y1="-1.85085" x2="14.0485" y2="9.55949" gradientUnits="userSpaceOnUse">
<stop stop-color="#FFBD4F"/>
<stop offset="0.508" stop-color="#FF9640" stop-opacity="0"/>
</linearGradient>
<radialGradient id="paint8_radial_29276_8182" cx="0" cy="0" r="1" gradientUnits="userSpaceOnUse" gradientTransform="translate(14.8542 -0.691583) scale(24.4097 24.2878)">
<stop stop-color="#FF9640"/>
<stop offset="0.8" stop-color="#FC4055"/>
</radialGradient>
<radialGradient id="paint9_radial_29276_8182" cx="0" cy="0" r="1" gradientUnits="userSpaceOnUse" gradientTransform="translate(14.8542 -0.691583) scale(24.4097 24.2878)">
<stop offset="0.084" stop-color="#FFDE67"/>
<stop offset="0.147" stop-color="#FFDC66" stop-opacity="0.968"/>
<stop offset="0.246" stop-color="#FFD562" stop-opacity="0.879"/>
<stop offset="0.369" stop-color="#FFCB5D" stop-opacity="0.734"/>
<stop offset="0.511" stop-color="#FFBC55" stop-opacity="0.533"/>
<stop offset="0.667" stop-color="#FFAA4B" stop-opacity="0.28"/>
<stop offset="0.822" stop-color="#FF9640" stop-opacity="0"/>
</radialGradient>
<radialGradient id="paint10_radial_29276_8182" cx="0" cy="0" r="1" gradientUnits="userSpaceOnUse" gradientTransform="translate(9.26331 6.8628) rotate(75.6306) scale(11.9135 12.4871)">
<stop offset="0.363" stop-color="#FC4055"/>
<stop offset="0.443" stop-color="#FD604D" stop-opacity="0.633"/>
<stop offset="0.545" stop-color="#FE8644" stop-opacity="0.181"/>
<stop offset="0.59" stop-color="#FF9640" stop-opacity="0"/>
</radialGradient>
<radialGradient id="paint11_radial_29276_8182" cx="0" cy="0" r="1" gradientUnits="userSpaceOnUse" gradientTransform="translate(7.20095 7.84253) scale(11.97 11.8854)">
<stop offset="0.216" stop-color="#FC4055" stop-opacity="0.8"/>
<stop offset="0.267" stop-color="#FD5251" stop-opacity="0.633"/>
<stop offset="0.41" stop-color="#FE8345" stop-opacity="0.181"/>
<stop offset="0.474" stop-color="#FF9640" stop-opacity="0"/>
</radialGradient>
<radialGradient id="paint12_radial_29276_8182" cx="0" cy="0" r="1" gradientUnits="userSpaceOnUse" gradientTransform="translate(19.5726 -3.19114) scale(41.617 40.6855)">
<stop offset="0.054" stop-color="#FFF36E"/>
<stop offset="0.457" stop-color="#FF9640"/>
<stop offset="0.639" stop-color="#FF9640"/>
</radialGradient>
<linearGradient id="paint13_linear_29276_8182" x1="11.611" y1="-1.93639" x2="0.205019" y2="17.9296" gradientUnits="userSpaceOnUse">
<stop stop-color="#FFF36E" stop-opacity="0.8"/>
<stop offset="0.094" stop-color="#FFF36E" stop-opacity="0.699"/>
<stop offset="0.752" stop-color="#FFF36E" stop-opacity="0"/>
</linearGradient>
</defs>
</svg>
