<svg width="100" height="21" viewBox="0 0 100 21" fill="none" xmlns="http://www.w3.org/2000/svg">
<path d="M16.1286 8.69352C16.9526 8.59864 17.6961 8.23051 18.2698 7.67895L18.3516 7.59166C19.0294 6.89967 19.4532 5.94834 19.4532 4.89202C19.4532 3.83316 19.0319 2.87425 18.3516 2.18226C17.6726 1.48774 16.7345 1.05762 15.6973 1.05762C14.6626 1.05762 13.732 1.49027 13.053 2.18226L12.9675 2.26575C12.4284 2.85147 12.0678 3.61051 11.9737 4.45178L11.9712 4.4581C11.7296 6.38479 10.8745 8.24316 9.42472 9.72328C7.96128 11.2173 6.11493 12.0814 4.20911 12.3192C4.19548 12.3204 4.18556 12.3268 4.17317 12.3306C3.35037 12.4495 2.61307 12.8366 2.05297 13.4084C1.37515 14.1004 0.955078 15.058 0.955078 16.1144C0.955078 17.1707 1.37515 18.1283 2.05297 18.8203C2.73079 19.5123 3.66883 19.9412 4.70353 19.9412C5.73823 19.9412 6.67627 19.5123 7.35409 18.8203C7.91419 18.2485 8.29337 17.4945 8.40985 16.6558C8.41357 16.6432 8.41976 16.633 8.421 16.6191C8.65272 14.6722 9.49907 12.7885 10.9638 11.2945C12.4136 9.81563 14.2339 8.94148 16.1211 8.69479L16.1286 8.69352Z" fill="url(#paint0_linear_2_2790)"/>
<path d="M5.61003 8.73962C7.69802 8.23628 8.99099 6.1002 8.49796 3.96856C8.00492 1.83692 5.91259 0.516921 3.82459 1.02026C1.7366 1.5236 0.443629 3.65968 0.936663 5.79132C1.4297 7.92296 3.52203 9.24296 5.61003 8.73962Z" fill="url(#paint1_linear_2_2790)"/>
<path d="M16.7565 19.9828C18.8445 19.4794 20.1375 17.3434 19.6444 15.2117C19.1514 13.0801 17.0591 11.7601 14.9711 12.2634C12.8831 12.7668 11.5901 14.9028 12.0831 17.0345C12.5762 19.1661 14.6685 20.4861 16.7565 19.9828Z" fill="url(#paint2_linear_2_2790)"/>
<path d="M28.8721 15.7031V14.1319C28.8721 13.9396 28.9427 13.7537 29.0691 13.6107L34.6218 7.38155H29.7804C29.3615 7.38155 29.022 7.03492 29.022 6.60733V5.53203C29.022 5.10444 29.3615 4.75781 29.7804 4.75781H37.8225C38.2413 4.75781 38.5809 5.10444 38.5809 5.53203V6.93118C38.5809 7.12347 38.5102 7.30944 38.3839 7.45113L32.7258 13.8093H38.2649C38.6837 13.8093 39.0233 14.1559 39.0233 14.5835V15.7018C39.0233 16.1294 38.6837 16.4761 38.2649 16.4761H29.6304C29.2116 16.4773 28.8721 16.1307 28.8721 15.7031Z" fill="black"/>
<path d="M42.9167 11.6177C43.0431 12.12 43.3207 12.6677 43.7482 13.2623C44.1769 13.8569 44.8188 14.1542 45.6751 14.1542C46.2364 14.1542 46.7321 14.0074 47.1596 13.7139C47.4334 13.5254 47.6428 13.3597 47.7878 13.2155C47.9316 13.0726 48.1212 12.9941 48.3207 12.9954L49.8423 13.0055C50.4446 13.0093 50.7965 13.6899 50.4706 14.2073C50.1856 14.6602 49.8225 15.1156 49.3814 15.5723C48.5524 16.4326 47.3244 16.8627 45.6961 16.8627C43.9972 16.8627 42.6069 16.2428 41.5264 15.003C40.4446 13.7633 39.9043 12.2756 39.9043 10.5412C39.9043 8.77768 40.4309 7.29503 41.4842 6.09069C42.5375 4.88635 43.9415 4.28418 45.6961 4.28418C47.2401 4.28418 48.6131 4.86105 49.8138 6.01479C50.8944 7.0534 51.4086 8.66382 51.3578 10.8473C51.3479 11.2635 51.0096 11.595 50.6007 11.5962L42.9167 11.6177ZM48.2451 9.12304C48.0629 8.47785 47.7531 7.95539 47.3182 7.5531C46.8832 7.15207 46.3355 6.95093 45.6751 6.95093C44.9452 6.95093 44.3591 7.16978 43.9167 7.60623C43.4743 8.04394 43.162 8.5487 42.9799 9.12177H48.2451V9.12304Z" fill="black"/>
<path d="M66.0324 16.4559C65.6136 16.4559 65.274 16.1093 65.274 15.6817V9.55377C65.274 8.88076 65.1898 8.30009 65.0213 7.81178C64.8527 7.32473 64.4661 7.08817 63.8626 7.10208C63.2864 7.116 62.8515 7.35256 62.5566 7.81178C62.2617 8.271 62.1142 8.94401 62.1142 9.83335V15.6817C62.1142 16.1093 61.7747 16.4559 61.3558 16.4559H59.9023C59.4835 16.4559 59.1439 16.1093 59.1439 15.6817V9.55377C59.1439 8.89467 59.0522 8.3178 58.8701 7.82316C58.6879 7.32853 58.2939 7.08817 57.6904 7.10335C57.1006 7.11726 56.6755 7.35383 56.4166 7.81305C56.1563 8.27226 56.0275 8.94528 56.0275 9.83461V15.683C56.0275 16.1106 55.6879 16.4572 55.2691 16.4572H53.7945C53.3757 16.4572 53.0361 16.1106 53.0361 15.683V5.57768C53.0361 5.15009 53.3757 4.80347 53.7945 4.80347H55.2691C55.6879 4.80347 56.0275 5.15009 56.0275 5.57768C56.3224 5.2766 56.6904 5.00082 57.1328 4.75034C57.5752 4.49985 58.1192 4.37461 58.7648 4.37461C59.3397 4.37461 59.8664 4.50744 60.3447 4.77184C60.8218 5.0375 61.1935 5.39931 61.4612 5.85726C61.7276 5.51317 62.1241 5.15136 62.6508 4.77184C63.1774 4.39232 63.9667 4.2519 65.02 4.3531C66.1006 4.45304 66.9159 4.90467 67.4636 5.70798C68.0113 6.5113 68.2852 7.39937 68.2852 8.37473V15.6855C68.2852 16.1131 67.9457 16.4597 67.5268 16.4597H66.0324V16.4559Z" fill="black"/>
<path d="M80.6297 6.01675C81.5838 7.18567 82.0622 8.68603 82.0622 10.5216C82.0622 12.3712 81.5851 13.8867 80.6297 15.0695C79.6743 16.2524 78.4252 16.8431 76.8812 16.8431C76.2356 16.8431 75.621 16.7179 75.0386 16.4674C74.4562 16.2169 73.9258 15.869 73.4488 15.425V18.4776C73.4488 18.9052 73.1092 19.2518 72.6904 19.2518H71.2369C70.818 19.2518 70.4785 18.9052 70.4785 18.4776V5.5335C70.4785 5.10591 70.818 4.75928 71.2369 4.75928H72.6904C73.1092 4.75928 73.4488 5.10591 73.4488 5.5335V5.57652C73.9258 5.13248 74.4562 4.8023 75.0386 4.58724C75.621 4.37218 76.2356 4.26465 76.8812 4.26465C78.4252 4.26465 79.6743 4.8491 80.6297 6.01675ZM78.2914 13.1555C78.7821 12.4749 79.0287 11.5969 79.0287 10.5216C79.0287 9.44633 78.7833 8.58356 78.2914 7.93079C77.7995 7.27928 77.1117 6.9529 76.227 6.9529C75.3558 6.9529 74.6718 7.27928 74.1737 7.93079C73.6755 8.58356 73.4265 9.44633 73.4265 10.5216C73.4265 11.5969 73.6755 12.4749 74.1737 13.1555C74.6718 13.8361 75.3558 14.1764 76.227 14.1764C77.113 14.1764 77.7995 13.8361 78.2914 13.1555Z" fill="black"/>
<path d="M83.6953 2.56655V1.25468C83.6953 0.827095 84.0348 0.480469 84.4537 0.480469H85.8861C86.305 0.480469 86.6445 0.827095 86.6445 1.25468V2.56655C86.6445 2.99414 86.305 3.34077 85.8861 3.34077H84.4537C84.0348 3.3395 83.6953 2.99288 83.6953 2.56655ZM83.6953 15.6283V5.64065C83.6953 5.21306 84.0348 4.86643 84.4537 4.86643H85.8861C86.305 4.86643 86.6445 5.21306 86.6445 5.64065V15.6485C86.6445 16.0799 86.2988 16.4291 85.875 16.4228L84.4425 16.4013C84.0274 16.3962 83.6953 16.0508 83.6953 15.6283Z" fill="black"/>
<path d="M91.5199 11.6177C91.6463 12.12 91.9239 12.6677 92.3514 13.2623C92.7789 13.8569 93.422 14.1542 94.2783 14.1542C94.8396 14.1542 95.3353 14.0074 95.7628 13.7139C96.0367 13.5254 96.2461 13.3597 96.3911 13.2155C96.5348 13.0726 96.7244 12.9941 96.9239 12.9954L98.4456 13.0055C99.0478 13.0093 99.3997 13.6899 99.0738 14.2073C98.7888 14.6602 98.4257 15.1156 97.9858 15.5723C97.1569 16.4326 95.9289 16.8627 94.3006 16.8627C92.6017 16.8627 91.2114 16.2428 90.1308 15.003C89.0491 13.7633 88.5088 12.2756 88.5088 10.5412C88.5088 8.77768 89.0354 7.29503 90.0887 6.09069C91.142 4.88635 92.546 4.28418 94.3006 4.28418C95.8446 4.28418 97.2176 4.86105 98.4183 6.01479C99.4989 7.0534 100.013 8.66382 99.9623 10.8473C99.9524 11.2635 99.6141 11.595 99.2052 11.5962L91.5199 11.6177ZM96.8483 9.12304C96.6661 8.47785 96.3564 7.95539 95.9214 7.5531C95.4865 7.15207 94.9388 6.95093 94.2783 6.95093C93.5484 6.95093 92.9623 7.16978 92.5199 7.60623C92.0776 8.04394 91.7653 8.5487 91.5831 9.12177H96.8483V9.12304Z" fill="black"/>
<defs>
<linearGradient id="paint0_linear_2_2790" x1="10.2041" y1="1.05762" x2="10.2041" y2="19.9412" gradientUnits="userSpaceOnUse">
<stop stop-color="#FF2612"/>
<stop offset="1" stop-color="#FF6E17"/>
</linearGradient>
<linearGradient id="paint1_linear_2_2790" x1="3.82459" y1="1.02026" x2="5.68131" y2="8.72243" gradientUnits="userSpaceOnUse">
<stop stop-color="#FF2612"/>
<stop offset="1" stop-color="#FF6E17"/>
</linearGradient>
<linearGradient id="paint2_linear_2_2790" x1="14.9711" y1="12.2634" x2="16.8278" y2="19.9656" gradientUnits="userSpaceOnUse">
<stop stop-color="#FF2612"/>
<stop offset="1" stop-color="#FF6E17"/>
</linearGradient>
</defs>
</svg>
