<svg width="750" height="1060" viewBox="0 0 750 1060" fill="none" xmlns="http://www.w3.org/2000/svg">
<g clip-path="url(#clip0_558_18877)">
<path d="M215.419 54.3895H692.958C722.725 54.3895 746.857 78.5253 746.857 108.3V951.875C746.857 981.65 722.725 1005.79 692.958 1005.79H215.419C185.652 1005.79 161.52 981.65 161.52 951.875V108.3C161.52 78.5253 185.652 54.3895 215.419 54.3895Z" fill="#43BEDF" stroke="black" stroke-width="6.24378"/>
<g filter="url(#filter0_d_558_18877)">
<path fill-rule="evenodd" clip-rule="evenodd" d="M160.525 50.7678H632.578C665.582 50.7678 692.584 76.4614 692.584 107.86V952.315C692.584 983.72 665.582 1009.41 632.578 1009.41H160.525C127.52 1009.41 100.519 983.72 100.519 952.315V107.854C100.519 76.4552 127.52 50.7678 160.525 50.7678Z" fill="#9BD6E8"/>
<path d="M160.525 53.8897H632.578C664.006 53.8897 689.462 78.3301 689.462 107.86V952.315C689.462 981.851 664.006 1006.28 632.578 1006.28H160.525C129.096 1006.28 103.64 981.851 103.64 952.315V107.854C103.64 78.3243 129.096 53.8897 160.525 53.8897Z" stroke="black" stroke-width="6.24378"/>
</g>
<path d="M211.687 161.138H581.928C606.916 161.138 627.174 181.399 627.174 206.394V508.162C627.174 533.156 606.916 553.418 581.928 553.418H211.687C186.698 553.418 166.44 533.156 166.44 508.162V206.394C166.44 181.399 186.698 161.138 211.687 161.138Z" fill="#6D7F8C" stroke="black" stroke-width="6.05329"/>
<path fill-rule="evenodd" clip-rule="evenodd" d="M199.397 547.569C190.789 543.81 183.487 537.764 178.357 530.149C173.228 522.534 170.486 513.669 170.457 504.606V209.487C170.489 200.425 173.232 191.561 178.361 183.947C183.491 176.332 190.791 170.286 199.397 166.525V547.569Z" fill="#A9B1B7"/>
<path d="M485.18 199.083L554.01 199.083C576.599 199.083 594.911 216.685 594.911 238.399V484.137C594.911 505.85 576.599 523.453 554.01 523.453C463.99 523.453 305.51 523.453 305.51 523.453M445.387 199.083C377.024 199.083 308.661 199.083 240.298 199.083C217.709 199.083 199.397 216.685 199.397 238.399V484.137C199.397 505.85 217.709 523.453 240.298 523.453C240.298 523.453 268.285 523.453 286.217 523.453" stroke="black" stroke-width="6.05329" stroke-linecap="round"/>
<path fill-rule="evenodd" clip-rule="evenodd" d="M488.195 906.91C489.983 906.91 491.732 906.379 493.219 905.386C494.706 904.392 495.865 902.98 496.55 901.327C497.234 899.674 497.414 897.856 497.065 896.102C496.716 894.347 495.854 892.736 494.59 891.471C493.325 890.206 491.713 889.345 489.959 888.996C488.205 888.647 486.386 888.826 484.734 889.511C483.081 890.195 481.669 891.354 480.675 892.842C479.681 894.329 479.151 896.077 479.151 897.866C479.151 900.265 480.104 902.565 481.8 904.261C483.496 905.957 485.796 906.91 488.195 906.91Z" fill="black"/>
<path d="M325.644 928.91L358.233 901.108C358.234 901.107 358.235 901.106 358.236 901.105C360.687 899.03 363.859 898.008 367.061 898.262C370.261 898.516 373.231 900.025 375.323 902.459C377.399 904.909 378.421 908.081 378.167 911.282C377.913 914.485 376.401 917.457 373.963 919.548C373.962 919.549 373.961 919.55 373.96 919.551L341.37 947.354C341.369 947.355 341.368 947.356 341.367 947.357C338.917 949.434 335.745 950.458 332.543 950.205C329.343 949.951 326.373 948.443 324.281 946.008C322.205 943.557 321.182 940.385 321.436 937.183C321.691 933.978 323.202 931.005 325.641 928.913C325.642 928.912 325.643 928.911 325.644 928.91Z" fill="white" stroke="black" stroke-width="6.05329"/>
<path d="M238.352 928.91L270.941 901.108C270.943 901.107 270.944 901.106 270.945 901.105C273.396 899.03 276.568 898.008 279.769 898.262C282.969 898.516 285.939 900.025 288.032 902.459C290.107 904.909 291.13 908.081 290.875 911.282C290.621 914.485 289.11 917.457 286.671 919.548C286.671 919.549 286.67 919.55 286.669 919.551L254.078 947.354C254.077 947.355 254.076 947.356 254.075 947.357C251.625 949.434 248.453 950.458 245.252 950.205C242.052 949.951 239.082 948.443 236.989 946.008C234.913 943.558 233.891 940.385 234.145 937.183C234.399 933.978 235.911 931.005 238.35 928.912C238.351 928.912 238.351 928.911 238.352 928.91Z" fill="white" stroke="black" stroke-width="6.05329"/>
<path d="M277.091 54.2981H516.559L516.559 79.107C516.559 79.1087 516.559 79.1103 516.559 79.1119C516.536 86.4282 513.62 93.4382 508.448 98.6115C503.275 103.785 496.266 106.702 488.951 106.725H304.681C297.369 106.699 290.364 103.781 285.195 98.6075C280.026 93.4342 277.112 86.4258 277.091 79.1118V54.2981Z" fill="#FFCC33" stroke="black" stroke-width="6.05329"/>
<path d="M594.911 238.399C594.911 216.685 576.599 199.083 554.01 199.083H485.18H467.092H445.387H240.298C217.709 199.083 199.397 216.685 199.397 238.399V484.137C199.397 505.85 217.709 523.453 240.298 523.453H554.01C576.599 523.453 594.911 505.85 594.911 484.137V238.399Z" fill="#EA580C"/>
<path fill-rule="evenodd" clip-rule="evenodd" d="M517.134 906.91C518.923 906.91 520.671 906.379 522.159 905.386C523.646 904.392 524.805 902.98 525.49 901.327C526.174 899.674 526.353 897.856 526.004 896.102C525.655 894.347 524.794 892.736 523.529 891.471C522.264 890.206 520.653 889.345 518.898 888.996C517.144 888.647 515.326 888.826 513.673 889.511C512.021 890.195 510.608 891.354 509.614 892.842C508.621 894.329 508.09 896.077 508.09 897.866C508.09 900.265 509.043 902.565 510.739 904.261C512.435 905.957 514.736 906.91 517.134 906.91Z" fill="black"/>
<path fill-rule="evenodd" clip-rule="evenodd" d="M546.075 906.91C547.864 906.91 549.612 906.379 551.099 905.386C552.587 904.392 553.746 902.98 554.43 901.327C555.115 899.674 555.294 897.856 554.945 896.102C554.596 894.347 553.735 892.736 552.47 891.471C551.205 890.206 549.594 889.345 547.839 888.996C546.085 888.647 544.267 888.826 542.614 889.511C540.962 890.195 539.549 891.354 538.555 892.842C537.562 894.329 537.031 896.077 537.031 897.866C537.031 900.265 537.984 902.565 539.68 904.261C541.376 905.957 543.676 906.91 546.075 906.91Z" fill="black"/>
<path fill-rule="evenodd" clip-rule="evenodd" d="M574.412 906.91C576.081 906.91 577.713 906.379 579.101 905.386C580.489 904.392 581.571 902.98 582.21 901.327C582.849 899.674 583.016 897.856 582.69 896.102C582.365 894.347 581.561 892.736 580.38 891.471C579.2 890.206 577.696 889.345 576.058 888.996C574.421 888.647 572.724 888.826 571.181 889.511C569.639 890.195 568.321 891.354 567.393 892.842C566.466 894.329 565.971 896.077 565.971 897.866C565.971 900.265 566.86 902.565 568.443 904.261C570.026 905.957 572.173 906.91 574.412 906.91Z" fill="black"/>
<path fill-rule="evenodd" clip-rule="evenodd" d="M603.352 906.91C605.022 906.91 606.654 906.379 608.042 905.386C609.43 904.392 610.512 902.98 611.151 901.327C611.79 899.674 611.957 897.856 611.631 896.102C611.305 894.347 610.501 892.736 609.321 891.471C608.141 890.206 606.637 889.345 604.999 888.996C603.362 888.647 601.665 888.826 600.122 889.511C598.58 890.195 597.262 891.354 596.334 892.842C595.407 894.329 594.912 896.077 594.912 897.866C594.912 900.265 595.801 902.565 597.384 904.261C598.967 905.957 601.114 906.91 603.352 906.91Z" fill="black"/>
<path fill-rule="evenodd" clip-rule="evenodd" d="M474.327 932.231C475.997 932.231 477.628 931.736 479.017 930.808C480.405 929.881 481.487 928.562 482.125 927.02C482.764 925.478 482.931 923.781 482.606 922.143C482.28 920.506 481.476 919.002 480.296 917.821C479.115 916.641 477.611 915.837 475.974 915.511C474.336 915.186 472.639 915.353 471.097 915.992C469.554 916.631 468.236 917.712 467.309 919.101C466.381 920.489 465.886 922.121 465.886 923.79C465.886 926.029 466.775 928.176 468.358 929.758C469.941 931.341 472.088 932.231 474.327 932.231Z" fill="black"/>
<path fill-rule="evenodd" clip-rule="evenodd" d="M503.268 932.231C504.937 932.231 506.569 931.736 507.957 930.808C509.345 929.881 510.427 928.562 511.066 927.02C511.705 925.478 511.872 923.781 511.547 922.143C511.221 920.506 510.417 919.002 509.237 917.821C508.056 916.641 506.552 915.837 504.915 915.511C503.277 915.186 501.58 915.353 500.038 915.992C498.495 916.631 497.177 917.712 496.25 919.101C495.322 920.489 494.827 922.121 494.827 923.79C494.827 926.029 495.717 928.176 497.299 929.758C498.882 931.341 501.029 932.231 503.268 932.231Z" fill="black"/>
<path fill-rule="evenodd" clip-rule="evenodd" d="M532.207 932.231C533.877 932.231 535.509 931.736 536.897 930.808C538.285 929.881 539.367 928.562 540.006 927.02C540.645 925.478 540.812 923.781 540.486 922.143C540.16 920.506 539.356 919.002 538.176 917.821C536.995 916.641 535.491 915.837 533.854 915.511C532.217 915.186 530.52 915.353 528.977 915.992C527.435 916.631 526.117 917.712 525.189 919.101C524.262 920.489 523.767 922.121 523.767 923.79C523.767 926.029 524.656 928.176 526.239 929.758C527.822 931.341 529.969 932.231 532.207 932.231Z" fill="black"/>
<path fill-rule="evenodd" clip-rule="evenodd" d="M561.148 932.231C562.817 932.231 564.449 931.736 565.837 930.808C567.225 929.881 568.307 928.562 568.946 927.02C569.585 925.478 569.752 923.781 569.427 922.143C569.101 920.506 568.297 919.002 567.116 917.821C565.936 916.641 564.432 915.837 562.795 915.511C561.157 915.186 559.46 915.353 557.918 915.992C556.375 916.631 555.057 917.712 554.13 919.101C553.202 920.489 552.707 922.121 552.707 923.79C552.707 926.029 553.596 928.176 555.179 929.758C556.762 931.341 558.909 932.231 561.148 932.231Z" fill="black"/>
<path fill-rule="evenodd" clip-rule="evenodd" d="M589.485 932.231C591.274 932.231 593.022 931.736 594.51 930.808C595.997 929.881 597.156 928.562 597.841 927.02C598.525 925.478 598.704 923.781 598.355 922.143C598.006 920.506 597.145 919.002 595.88 917.821C594.615 916.641 593.004 915.837 591.249 915.511C589.495 915.186 587.677 915.353 586.024 915.992C584.372 916.631 582.959 917.712 581.966 919.101C580.972 920.489 580.441 922.121 580.441 923.79C580.441 926.029 581.394 928.176 583.09 929.758C584.786 931.341 587.087 932.231 589.485 932.231Z" fill="black"/>
<path fill-rule="evenodd" clip-rule="evenodd" d="M488.195 958.761C489.983 958.761 491.732 958.231 493.219 957.237C494.706 956.243 495.865 954.831 496.55 953.178C497.234 951.526 497.414 949.707 497.065 947.953C496.716 946.198 495.854 944.587 494.59 943.322C493.325 942.057 491.713 941.196 489.959 940.847C488.205 940.498 486.386 940.677 484.734 941.362C483.081 942.046 481.669 943.205 480.675 944.693C479.681 946.18 479.151 947.928 479.151 949.717C479.151 952.116 480.104 954.416 481.8 956.112C483.496 957.808 485.796 958.761 488.195 958.761Z" fill="black"/>
<path fill-rule="evenodd" clip-rule="evenodd" d="M517.134 958.761C518.923 958.761 520.671 958.231 522.159 957.237C523.646 956.243 524.805 954.831 525.49 953.178C526.174 951.526 526.353 949.707 526.004 947.953C525.655 946.198 524.794 944.587 523.529 943.322C522.264 942.057 520.653 941.196 518.898 940.847C517.144 940.498 515.326 940.677 513.673 941.362C512.021 942.046 510.608 943.205 509.614 944.693C508.621 946.18 508.09 947.928 508.09 949.717C508.09 952.116 509.043 954.416 510.739 956.112C512.435 957.808 514.736 958.761 517.134 958.761Z" fill="black"/>
<path fill-rule="evenodd" clip-rule="evenodd" d="M546.075 958.761C547.864 958.761 549.612 958.231 551.099 957.237C552.587 956.243 553.746 954.831 554.43 953.178C555.115 951.526 555.294 949.707 554.945 947.953C554.596 946.198 553.735 944.587 552.47 943.322C551.205 942.057 549.594 941.196 547.839 940.847C546.085 940.498 544.267 940.677 542.614 941.362C540.962 942.046 539.549 943.205 538.555 944.693C537.562 946.18 537.031 947.928 537.031 949.717C537.031 952.116 537.984 954.416 539.68 956.112C541.376 957.808 543.676 958.761 546.075 958.761Z" fill="black"/>
<path fill-rule="evenodd" clip-rule="evenodd" d="M574.412 958.761C576.081 958.761 577.713 958.231 579.101 957.237C580.489 956.243 581.571 954.831 582.21 953.178C582.849 951.526 583.016 949.707 582.69 947.953C582.365 946.198 581.561 944.587 580.38 943.322C579.2 942.057 577.696 941.196 576.058 940.847C574.421 940.498 572.724 940.677 571.181 941.362C569.639 942.046 568.321 943.205 567.393 944.693C566.466 946.18 565.971 947.928 565.971 949.717C565.971 952.116 566.86 954.416 568.443 956.112C570.026 957.808 572.173 958.761 574.412 958.761Z" fill="black"/>
<path fill-rule="evenodd" clip-rule="evenodd" d="M603.352 958.761C605.022 958.761 606.654 958.231 608.042 957.237C609.43 956.243 610.512 954.831 611.151 953.178C611.79 951.526 611.957 949.707 611.631 947.953C611.305 946.198 610.501 944.587 609.321 943.322C608.141 942.057 606.637 941.196 604.999 940.847C603.362 940.498 601.665 940.677 600.122 941.362C598.58 942.046 597.262 943.205 596.334 944.693C595.407 946.18 594.912 947.928 594.912 949.717C594.912 952.116 595.801 954.416 597.384 956.112C598.967 957.808 601.114 958.761 603.352 958.761Z" fill="black"/>
<path d="M319.962 791.702C353.037 758.619 353.038 704.982 319.962 671.9C286.886 638.817 233.26 638.817 200.184 671.9C167.108 704.982 167.108 758.619 200.184 791.702C233.26 824.784 286.886 824.784 319.962 791.702Z" fill="#57B1C4"/>
<path d="M229.967 699.244V657.325C229.976 654.231 231.216 651.264 233.421 649.071C235.627 646.879 238.619 645.64 241.745 645.632H278.237C281.361 645.643 284.35 646.882 286.553 649.075C288.756 651.266 289.995 654.232 290.005 657.324V699.244V702.271H293.031H335.206C338.329 702.281 341.319 703.521 343.522 705.713C345.726 707.906 346.965 710.874 346.973 713.967V750.255C346.965 753.348 345.726 756.315 343.522 758.507C341.319 760.698 338.33 761.936 335.208 761.946H293.06H290.033V764.973V806.891C290.023 809.982 288.783 812.947 286.581 815.138C284.377 817.329 281.389 818.568 278.266 818.579C278.264 818.579 278.263 818.579 278.261 818.579L241.749 818.579C238.624 818.57 235.632 817.332 233.427 815.139C231.223 812.949 229.983 809.983 229.972 806.891V764.973V761.946H226.946H184.8C181.676 761.935 178.687 760.696 176.483 758.505C174.279 756.314 173.039 753.349 173.027 750.258V713.964C173.037 710.871 174.277 707.905 176.481 705.713C178.686 703.521 181.676 702.281 184.8 702.271H226.94H229.967V699.244Z" fill="#FCD576" stroke="black" stroke-width="6.05329"/>
<rect x="338.068" y="74.8848" width="120.583" height="12.0584" rx="6.02918" fill="black"/>
<rect x="723.935" y="166.525" width="120.584" height="12.0583" rx="6.02917" transform="rotate(90 723.935 166.525)" fill="black"/>
<rect x="723.935" y="346.199" width="209.816" height="12.0583" rx="6.02917" transform="rotate(90 723.935 346.199)" fill="black"/>
<g clip-path="url(#clip1_558_18877)">
<path d="M490.721 667.533C503.372 656.502 519.01 649.471 535.657 647.327C552.304 645.183 569.213 648.024 584.246 655.489C599.279 662.954 611.761 674.709 620.113 689.268C628.466 703.826 632.314 720.534 631.171 737.279C630.028 754.024 623.946 770.054 613.693 783.343C603.439 796.631 589.476 806.581 573.568 811.935C557.66 817.289 540.522 817.805 524.321 813.42C508.119 809.034 493.582 799.943 482.547 787.297C475.22 778.896 469.619 769.135 466.064 758.57C462.509 748.005 461.07 736.843 461.829 725.721C462.588 714.6 465.53 703.738 470.488 693.754C475.445 683.77 482.32 674.86 490.721 667.533Z" fill="#D32E1C" stroke="black" stroke-width="7.26395"/>
<path opacity="0.7" d="M549.767 738.186C578.062 718.958 591.031 688.513 578.733 670.186C566.435 651.859 533.528 652.59 505.233 671.818C476.938 691.046 463.969 721.491 476.267 739.818C488.565 758.145 521.472 757.414 549.767 738.186Z" fill="#F76A4D"/>
<g clip-path="url(#clip2_558_18877)">
<path fill-rule="evenodd" clip-rule="evenodd" d="M518.995 664.389C530.949 657.759 544.471 658.749 549.187 666.601C552.759 672.549 545.803 675.806 537.019 679.917C534.208 681.233 531.21 682.637 528.31 684.244C525.249 685.941 522.595 687.7 520.26 689.248C513.469 693.748 509.382 696.457 505.873 690.615C501.157 682.763 507.04 671.019 518.995 664.389ZM507.305 705.123C505.133 708.619 500.798 709.95 497.67 708.1C494.542 706.249 494.217 701.108 496.408 697.612C498.6 694.116 502.467 693.591 505.602 695.441C508.736 697.291 509.476 701.627 507.305 705.123Z" fill="#FFFDFF"/>
<path d="M567.069 790.499C568.096 796.705 578.722 795.974 586.768 791.446C594.814 786.917 601.261 780.203 598.242 774.705C595.224 769.207 590.658 778.351 581.054 782.967C572.743 786.97 566.255 785.55 567.069 790.499Z" fill="white"/>
</g>
<g filter="url(#filter1_d_558_18877)">
<path d="M539.816 734.312C543.304 734.312 546.12 731.784 546.12 728.328C546.12 724.84 543.304 722.312 539.816 722.312H526.216C522.76 722.312 519.944 724.84 519.944 728.328C519.944 731.784 522.76 734.312 526.216 734.312H539.816ZM530.664 709.48C530.664 712.968 527.56 715.848 520.328 716.392C519.08 716.488 518.248 717.544 518.248 718.824C518.248 720.232 519.528 721.16 520.904 721.096C533.064 720.52 536.36 713.992 536.36 708.84V707.272C536.36 706.056 535.368 705.064 534.152 705.064H520.968C519.752 705.064 518.76 706.056 518.76 707.272C518.76 708.488 519.752 709.48 520.968 709.48H530.664ZM540.04 718.888C540.04 720.552 541.32 721.768 542.92 721.768C544.52 721.768 545.8 720.552 545.8 718.888V714.984H547.528C548.776 714.984 549.768 713.992 549.768 712.744C549.768 711.496 548.776 710.504 547.528 710.504H545.8V707.144C545.8 705.512 544.52 704.264 542.92 704.264C541.32 704.264 540.04 705.512 540.04 707.144V718.888ZM525.64 728.36C525.64 727.272 526.44 726.728 527.464 726.728H538.504C539.56 726.728 540.424 727.272 540.424 728.36C540.424 729.384 539.56 729.896 538.504 729.896H527.464C526.44 729.896 525.64 729.384 525.64 728.36ZM570.536 720.168C570.536 719.016 569.992 718.216 569.064 717.768C565.064 715.848 563.752 712.776 563.528 710.12H567.816C569.224 710.12 570.216 709.064 570.216 707.784C570.216 706.44 569.224 705.384 567.816 705.384H553.352C552.072 705.384 551.016 706.44 551.016 707.784C551.016 709.064 552.072 710.12 553.352 710.12H557.704C557.448 712.84 556.168 716.168 552.168 718.088C551.24 718.536 550.696 719.336 550.696 720.488C550.696 721.928 551.752 723.048 553.256 723.048C553.672 723.048 554.024 722.984 554.44 722.792C557.064 721.576 559.272 719.72 560.648 716.68C561.992 719.56 564.2 721.288 566.792 722.472C567.208 722.664 567.56 722.728 567.976 722.728C569.48 722.728 570.536 721.608 570.536 720.168ZM572.04 731.752C572.04 733.416 573.32 734.632 574.92 734.632C576.52 734.632 577.8 733.416 577.8 731.752V720.328H579.528C580.776 720.328 581.768 719.336 581.768 718.088C581.768 716.84 580.776 715.848 579.528 715.848H577.8V707.144C577.8 705.512 576.52 704.264 574.92 704.264C573.32 704.264 572.04 705.512 572.04 707.144V731.752ZM552.68 733.192C558.888 733.192 564.296 732.904 569.16 732.072C570.472 731.848 571.272 731.016 571.272 729.768C571.272 728.424 570.216 727.432 568.872 727.432C568.712 727.432 568.584 727.464 568.392 727.496C566.76 727.784 565.128 727.976 563.464 728.136V724.296C563.464 722.696 562.216 721.608 560.616 721.608C559.016 721.608 557.768 722.696 557.768 724.296V728.456C556.136 728.52 554.44 728.52 552.68 728.52C551.336 728.52 550.28 729.512 550.28 730.856C550.28 732.2 551.336 733.192 552.68 733.192ZM546.6 744.432C546.6 742.832 545.32 741.744 543.752 741.744C542.184 741.744 540.904 742.832 540.904 744.432V747.056H525.096V744.432C525.096 742.832 523.816 741.744 522.248 741.744C520.68 741.744 519.4 742.832 519.4 744.432V757.84C519.4 759.056 520.392 760.048 521.608 760.048H544.392C545.608 760.048 546.6 759.056 546.6 757.84V744.432ZM518.28 768.112C518.28 769.392 519.4 770.512 520.712 770.512H545.256C546.632 770.512 547.72 769.392 547.72 768.112C547.72 766.8 546.632 765.712 545.256 765.712H535.88V763.248C535.88 761.616 534.632 760.848 533 760.848C531.368 760.848 530.12 761.616 530.12 763.248V765.712H520.712C519.4 765.712 518.28 766.8 518.28 768.112ZM525.096 755.376V751.6H540.904V755.376H525.096ZM572.936 768.752C572.936 770.416 574.216 771.632 575.816 771.632C577.416 771.632 578.696 770.416 578.696 768.752V744.144C578.696 742.512 577.416 741.264 575.816 741.264C574.216 741.264 572.936 742.512 572.936 744.144V768.752ZM550.28 767.376C550.28 768.816 551.4 770.032 552.872 770.032C553.352 770.032 553.864 769.936 554.28 769.744C565.896 764.368 569 755.024 569 746.544V744.784C569 743.536 568.008 742.544 566.76 742.544H553.128C551.816 742.544 550.76 743.6 550.76 744.976C550.76 746.288 551.816 747.344 553.128 747.344H563.24C563.24 754.832 559.752 760.976 551.752 764.944C550.856 765.392 550.28 766.32 550.28 767.376Z" fill="white"/>
<path d="M530.664 709.48H531.664V708.48H530.664V709.48ZM520.328 716.392L520.253 715.395L520.251 715.395L520.328 716.392ZM520.904 721.096L520.95 722.095L520.951 722.095L520.904 721.096ZM545.8 714.984V713.984H544.8V714.984H545.8ZM545.8 710.504H544.8V711.504H545.8V710.504ZM539.816 735.312C543.79 735.312 547.12 732.4 547.12 728.328H545.12C545.12 731.168 542.818 733.312 539.816 733.312V735.312ZM547.12 728.328C547.12 724.227 543.794 721.312 539.816 721.312V723.312C542.814 723.312 545.12 725.453 545.12 728.328H547.12ZM539.816 721.312H526.216V723.312H539.816V721.312ZM526.216 721.312C522.267 721.312 518.944 724.23 518.944 728.328H520.944C520.944 725.45 523.253 723.312 526.216 723.312V721.312ZM518.944 728.328C518.944 732.397 522.27 735.312 526.216 735.312V733.312C523.25 733.312 520.944 731.171 520.944 728.328H518.944ZM526.216 735.312H539.816V733.312H526.216V735.312ZM529.664 709.48C529.664 710.885 529.057 712.184 527.619 713.232C526.145 714.306 523.767 715.131 520.253 715.395L520.403 717.389C524.121 717.109 526.911 716.222 528.797 714.848C530.719 713.448 531.664 711.563 531.664 709.48H529.664ZM520.251 715.395C518.392 715.538 517.248 717.117 517.248 718.824H519.248C519.248 717.971 519.768 717.438 520.405 717.389L520.251 715.395ZM517.248 718.824C517.248 720.95 519.164 722.178 520.95 722.095L520.858 720.097C519.892 720.142 519.248 719.514 519.248 718.824H517.248ZM520.951 722.095C527.203 721.799 531.332 719.963 533.9 717.391C536.467 714.819 537.36 711.625 537.36 708.84H535.36C535.36 711.207 534.605 713.853 532.484 715.977C530.364 718.101 526.765 719.817 520.857 720.097L520.951 722.095ZM537.36 708.84V707.272H535.36V708.84H537.36ZM537.36 707.272C537.36 705.504 535.92 704.064 534.152 704.064V706.064C534.816 706.064 535.36 706.608 535.36 707.272H537.36ZM534.152 704.064H520.968V706.064H534.152V704.064ZM520.968 704.064C519.2 704.064 517.76 705.504 517.76 707.272H519.76C519.76 706.608 520.304 706.064 520.968 706.064V704.064ZM517.76 707.272C517.76 709.04 519.2 710.48 520.968 710.48V708.48C520.304 708.48 519.76 707.936 519.76 707.272H517.76ZM520.968 710.48H530.664V708.48H520.968V710.48ZM539.04 718.888C539.04 721.119 540.782 722.768 542.92 722.768V720.768C541.858 720.768 541.04 719.985 541.04 718.888H539.04ZM542.92 722.768C545.058 722.768 546.8 721.119 546.8 718.888H544.8C544.8 719.985 543.982 720.768 542.92 720.768V722.768ZM546.8 718.888V714.984H544.8V718.888H546.8ZM545.8 715.984H547.528V713.984H545.8V715.984ZM547.528 715.984C549.328 715.984 550.768 714.544 550.768 712.744H548.768C548.768 713.44 548.224 713.984 547.528 713.984V715.984ZM550.768 712.744C550.768 710.944 549.328 709.504 547.528 709.504V711.504C548.224 711.504 548.768 712.048 548.768 712.744H550.768ZM547.528 709.504H545.8V711.504H547.528V709.504ZM546.8 710.504V707.144H544.8V710.504H546.8ZM546.8 707.144C546.8 704.952 545.065 703.264 542.92 703.264V705.264C543.975 705.264 544.8 706.072 544.8 707.144H546.8ZM542.92 703.264C540.775 703.264 539.04 704.952 539.04 707.144H541.04C541.04 706.072 541.865 705.264 542.92 705.264V703.264ZM539.04 707.144V718.888H541.04V707.144H539.04ZM526.64 728.36C526.64 728.084 526.729 727.97 526.806 727.906C526.909 727.821 527.117 727.728 527.464 727.728V725.728C526.787 725.728 526.083 725.907 525.53 726.366C524.951 726.846 524.64 727.548 524.64 728.36H526.64ZM527.464 727.728H538.504V725.728H527.464V727.728ZM538.504 727.728C538.874 727.728 539.117 727.825 539.244 727.924C539.341 727.999 539.424 728.112 539.424 728.36H541.424C541.424 727.52 541.075 726.817 540.476 726.348C539.907 725.903 539.19 725.728 538.504 725.728V727.728ZM539.424 728.36C539.424 728.552 539.361 728.638 539.267 728.706C539.139 728.801 538.887 728.896 538.504 728.896V730.896C539.177 730.896 539.885 730.735 540.453 730.318C541.055 729.874 541.424 729.192 541.424 728.36H539.424ZM538.504 728.896H527.464V730.896H538.504V728.896ZM527.464 728.896C527.104 728.896 526.887 728.804 526.783 728.724C526.711 728.668 526.64 728.581 526.64 728.36H524.64C524.64 729.163 524.969 729.844 525.553 730.3C526.105 730.732 526.8 730.896 527.464 730.896V728.896ZM569.064 717.768L569.499 716.867L569.497 716.866L569.064 717.768ZM563.528 710.12V709.12H562.44L562.532 710.204L563.528 710.12ZM557.704 710.12L558.7 710.214L558.803 709.12H557.704V710.12ZM552.168 718.088L551.735 717.186L551.733 717.187L552.168 718.088ZM554.44 722.792L554.859 723.7L554.86 723.699L554.44 722.792ZM560.648 716.68L561.554 716.257L560.634 714.286L559.737 716.268L560.648 716.68ZM566.792 722.472L567.211 721.564L567.207 721.562L566.792 722.472ZM577.8 720.328V719.328H576.8V720.328H577.8ZM577.8 715.848H576.8V716.848H577.8V715.848ZM569.16 732.072L568.992 731.086L568.991 731.086L569.16 732.072ZM568.392 727.496L568.228 726.51L568.218 726.511L568.392 727.496ZM563.464 728.136H562.464V729.237L563.56 729.131L563.464 728.136ZM557.768 728.456L557.807 729.455L558.768 729.418V728.456H557.768ZM571.536 720.168C571.536 718.63 570.77 717.481 569.499 716.867L568.629 718.669C569.214 718.951 569.536 719.402 569.536 720.168H571.536ZM569.497 716.866C565.864 715.123 564.723 712.394 564.524 710.036L562.532 710.204C562.781 713.158 564.264 716.573 568.631 718.67L569.497 716.866ZM563.528 711.12H567.816V709.12H563.528V711.12ZM567.816 711.12C569.776 711.12 571.216 709.616 571.216 707.784H569.216C569.216 708.512 568.672 709.12 567.816 709.12V711.12ZM571.216 707.784C571.216 705.905 569.794 704.384 567.816 704.384V706.384C568.654 706.384 569.216 706.975 569.216 707.784H571.216ZM567.816 704.384H553.352V706.384H567.816V704.384ZM553.352 704.384C551.502 704.384 550.016 705.905 550.016 707.784H552.016C552.016 706.975 552.642 706.384 553.352 706.384V704.384ZM550.016 707.784C550.016 709.616 551.52 711.12 553.352 711.12V709.12C552.624 709.12 552.016 708.512 552.016 707.784H550.016ZM553.352 711.12H557.704V709.12H553.352V711.12ZM556.708 710.026C556.475 712.503 555.334 715.459 551.735 717.186L552.601 718.99C557.002 716.877 558.421 713.177 558.7 710.214L556.708 710.026ZM551.733 717.187C550.462 717.801 549.696 718.95 549.696 720.488H551.696C551.696 719.722 552.018 719.271 552.603 718.989L551.733 717.187ZM549.696 720.488C549.696 722.464 551.183 724.048 553.256 724.048V722.048C552.321 722.048 551.696 721.392 551.696 720.488H549.696ZM553.256 724.048C553.802 724.048 554.299 723.959 554.859 723.7L554.021 721.884C553.749 722.009 553.542 722.048 553.256 722.048V724.048ZM554.86 723.699C557.659 722.402 560.066 720.39 561.559 717.092L559.737 716.268C558.478 719.05 556.469 720.75 554.02 721.885L554.86 723.699ZM559.742 717.103C561.213 720.256 563.635 722.129 566.377 723.382L567.207 721.562C564.765 720.447 562.771 718.864 561.554 716.257L559.742 717.103ZM566.373 723.38C566.933 723.639 567.43 723.728 567.976 723.728V721.728C567.69 721.728 567.483 721.689 567.211 721.564L566.373 723.38ZM567.976 723.728C570.049 723.728 571.536 722.144 571.536 720.168H569.536C569.536 721.072 568.911 721.728 567.976 721.728V723.728ZM571.04 731.752C571.04 733.983 572.782 735.632 574.92 735.632V733.632C573.858 733.632 573.04 732.849 573.04 731.752H571.04ZM574.92 735.632C577.058 735.632 578.8 733.983 578.8 731.752H576.8C576.8 732.849 575.982 733.632 574.92 733.632V735.632ZM578.8 731.752V720.328H576.8V731.752H578.8ZM577.8 721.328H579.528V719.328H577.8V721.328ZM579.528 721.328C581.328 721.328 582.768 719.888 582.768 718.088H580.768C580.768 718.784 580.224 719.328 579.528 719.328V721.328ZM582.768 718.088C582.768 716.288 581.328 714.848 579.528 714.848V716.848C580.224 716.848 580.768 717.392 580.768 718.088H582.768ZM579.528 714.848H577.8V716.848H579.528V714.848ZM578.8 715.848V707.144H576.8V715.848H578.8ZM578.8 707.144C578.8 704.952 577.065 703.264 574.92 703.264V705.264C575.975 705.264 576.8 706.072 576.8 707.144H578.8ZM574.92 703.264C572.775 703.264 571.04 704.952 571.04 707.144H573.04C573.04 706.072 573.865 705.264 574.92 705.264V703.264ZM571.04 707.144V731.752H573.04V707.144H571.04ZM552.68 734.192C558.914 734.192 564.385 733.903 569.329 733.058L568.991 731.086C564.207 731.905 558.862 732.192 552.68 732.192V734.192ZM569.328 733.058C570.151 732.917 570.896 732.571 571.441 731.984C571.994 731.389 572.272 730.617 572.272 729.768H570.272C570.272 730.167 570.15 730.435 569.975 730.624C569.792 730.821 569.481 731.003 568.992 731.086L569.328 733.058ZM572.272 729.768C572.272 727.836 570.732 726.432 568.872 726.432V728.432C569.7 728.432 570.272 729.012 570.272 729.768H572.272ZM568.872 726.432C568.602 726.432 568.333 726.492 568.228 726.51L568.556 728.482C568.612 728.473 568.663 728.464 568.703 728.457C568.746 728.449 568.774 728.444 568.8 728.44C568.846 728.433 568.862 728.432 568.872 728.432V726.432ZM568.218 726.511C566.623 726.793 565.02 726.982 563.368 727.141L563.56 729.131C565.236 728.97 566.897 728.775 568.566 728.481L568.218 726.511ZM564.464 728.136V724.296H562.464V728.136H564.464ZM564.464 724.296C564.464 722.069 562.69 720.608 560.616 720.608V722.608C561.742 722.608 562.464 723.323 562.464 724.296H564.464ZM560.616 720.608C558.542 720.608 556.768 722.069 556.768 724.296H558.768C558.768 723.323 559.49 722.608 560.616 722.608V720.608ZM556.768 724.296V728.456H558.768V724.296H556.768ZM557.729 727.457C556.12 727.52 554.444 727.52 552.68 727.52V729.52C554.436 729.52 556.152 729.52 557.807 729.455L557.729 727.457ZM552.68 727.52C550.82 727.52 549.28 728.924 549.28 730.856H551.28C551.28 730.1 551.852 729.52 552.68 729.52V727.52ZM549.28 730.856C549.28 732.788 550.82 734.192 552.68 734.192V732.192C551.852 732.192 551.28 731.612 551.28 730.856H549.28ZM540.904 747.056V748.056H541.904V747.056H540.904ZM525.096 747.056H524.096V748.056H525.096V747.056ZM535.88 765.712H534.88V766.712H535.88V765.712ZM530.12 765.712V766.712H531.12V765.712H530.12ZM525.096 755.376H524.096V756.376H525.096V755.376ZM525.096 751.6V750.6H524.096V751.6H525.096ZM540.904 751.6H541.904V750.6H540.904V751.6ZM540.904 755.376V756.376H541.904V755.376H540.904ZM547.6 744.432C547.6 742.198 545.787 740.744 543.752 740.744V742.744C544.853 742.744 545.6 743.466 545.6 744.432H547.6ZM543.752 740.744C541.717 740.744 539.904 742.198 539.904 744.432H541.904C541.904 743.466 542.651 742.744 543.752 742.744V740.744ZM539.904 744.432V747.056H541.904V744.432H539.904ZM540.904 746.056H525.096V748.056H540.904V746.056ZM526.096 747.056V744.432H524.096V747.056H526.096ZM526.096 744.432C526.096 742.198 524.283 740.744 522.248 740.744V742.744C523.349 742.744 524.096 743.466 524.096 744.432H526.096ZM522.248 740.744C520.213 740.744 518.4 742.198 518.4 744.432H520.4C520.4 743.466 521.147 742.744 522.248 742.744V740.744ZM518.4 744.432V757.84H520.4V744.432H518.4ZM518.4 757.84C518.4 759.608 519.84 761.048 521.608 761.048V759.048C520.944 759.048 520.4 758.504 520.4 757.84H518.4ZM521.608 761.048H544.392V759.048H521.608V761.048ZM544.392 761.048C546.16 761.048 547.6 759.608 547.6 757.84H545.6C545.6 758.504 545.056 759.048 544.392 759.048V761.048ZM547.6 757.84V744.432H545.6V757.84H547.6ZM517.28 768.112C517.28 769.953 518.856 771.512 520.712 771.512V769.512C519.944 769.512 519.28 768.831 519.28 768.112H517.28ZM520.712 771.512H545.256V769.512H520.712V771.512ZM545.256 771.512C547.176 771.512 548.72 769.953 548.72 768.112H546.72C546.72 768.831 546.088 769.512 545.256 769.512V771.512ZM548.72 768.112C548.72 766.231 547.167 764.712 545.256 764.712V766.712C546.097 766.712 546.72 767.369 546.72 768.112H548.72ZM545.256 764.712H535.88V766.712H545.256V764.712ZM536.88 765.712V763.248H534.88V765.712H536.88ZM536.88 763.248C536.88 762.146 536.443 761.243 535.661 760.643C534.916 760.071 533.956 759.848 533 759.848V761.848C533.676 761.848 534.156 762.009 534.443 762.229C534.693 762.421 534.88 762.718 534.88 763.248H536.88ZM533 759.848C532.044 759.848 531.084 760.071 530.339 760.643C529.557 761.243 529.12 762.146 529.12 763.248H531.12C531.12 762.718 531.307 762.421 531.557 762.229C531.844 762.009 532.324 761.848 533 761.848V759.848ZM529.12 763.248V765.712H531.12V763.248H529.12ZM530.12 764.712H520.712V766.712H530.12V764.712ZM520.712 764.712C518.865 764.712 517.28 766.231 517.28 768.112H519.28C519.28 767.369 519.935 766.712 520.712 766.712V764.712ZM526.096 755.376V751.6H524.096V755.376H526.096ZM525.096 752.6H540.904V750.6H525.096V752.6ZM539.904 751.6V755.376H541.904V751.6H539.904ZM540.904 754.376H525.096V756.376H540.904V754.376ZM554.28 769.744L554.699 770.652L554.7 770.652L554.28 769.744ZM563.24 747.344H564.24V746.344H563.24V747.344ZM551.752 764.944L551.308 764.048L551.305 764.05L551.752 764.944ZM571.936 768.752C571.936 770.983 573.678 772.632 575.816 772.632V770.632C574.754 770.632 573.936 769.849 573.936 768.752H571.936ZM575.816 772.632C577.954 772.632 579.696 770.983 579.696 768.752H577.696C577.696 769.849 576.878 770.632 575.816 770.632V772.632ZM579.696 768.752V744.144H577.696V768.752H579.696ZM579.696 744.144C579.696 741.952 577.961 740.264 575.816 740.264V742.264C576.871 742.264 577.696 743.072 577.696 744.144H579.696ZM575.816 740.264C573.671 740.264 571.936 741.952 571.936 744.144H573.936C573.936 743.072 574.761 742.264 575.816 742.264V740.264ZM571.936 744.144V768.752H573.936V744.144H571.936ZM549.28 767.376C549.28 769.328 550.808 771.032 552.872 771.032V769.032C551.992 769.032 551.28 768.304 551.28 767.376H549.28ZM552.872 771.032C553.47 771.032 554.129 770.915 554.699 770.652L553.861 768.836C553.599 768.957 553.234 769.032 552.872 769.032V771.032ZM554.7 770.652C560.69 767.879 564.536 764.056 566.873 759.788C569.203 755.534 570 750.901 570 746.544H568C568 750.667 567.245 754.946 565.119 758.828C563 762.696 559.486 766.233 553.86 768.836L554.7 770.652ZM570 746.544V744.784H568V746.544H570ZM570 744.784C570 742.984 568.56 741.544 566.76 741.544V743.544C567.456 743.544 568 744.088 568 744.784H570ZM566.76 741.544H553.128V743.544H566.76V741.544ZM553.128 741.544C551.246 741.544 549.76 743.065 549.76 744.976H551.76C551.76 744.135 552.386 743.544 553.128 743.544V741.544ZM549.76 744.976C549.76 746.84 551.264 748.344 553.128 748.344V746.344C552.368 746.344 551.76 745.736 551.76 744.976H549.76ZM553.128 748.344H563.24V746.344H553.128V748.344ZM562.24 747.344C562.24 750.928 561.407 754.145 559.65 756.931C557.893 759.717 555.173 762.131 551.308 764.048L552.196 765.84C556.331 763.789 559.355 761.147 561.342 757.997C563.329 754.847 564.24 751.248 564.24 747.344H562.24ZM551.305 764.05C550.061 764.671 549.28 765.951 549.28 767.376H551.28C551.28 766.689 551.651 766.113 552.199 765.838L551.305 764.05Z" fill="#770D07"/>
</g>
</g>
</g>
<defs>
<filter id="filter0_d_558_18877" x="-11.8695" y="-11.67" width="716.941" height="1083.51" filterUnits="userSpaceOnUse" color-interpolation-filters="sRGB">
<feFlood flood-opacity="0" result="BackgroundImageFix"/>
<feColorMatrix in="SourceAlpha" type="matrix" values="0 0 0 0 0 0 0 0 0 0 0 0 0 0 0 0 0 0 127 0" result="hardAlpha"/>
<feOffset dx="-49.9502"/>
<feGaussianBlur stdDeviation="31.2189"/>
<feComposite in2="hardAlpha" operator="out"/>
<feColorMatrix type="matrix" values="0 0 0 0 0 0 0 0 0 0 0 0 0 0 0 0 0 0 0.2 0"/>
<feBlend mode="normal" in2="BackgroundImageFix" result="effect1_dropShadow_558_18877"/>
<feBlend mode="normal" in="SourceGraphic" in2="effect1_dropShadow_558_18877" result="shape"/>
</filter>
<filter id="filter1_d_558_18877" x="515.248" y="701.264" width="69.52" height="73.3677" filterUnits="userSpaceOnUse" color-interpolation-filters="sRGB">
<feFlood flood-opacity="0" result="BackgroundImageFix"/>
<feColorMatrix in="SourceAlpha" type="matrix" values="0 0 0 0 0 0 0 0 0 0 0 0 0 0 0 0 0 0 127 0" result="hardAlpha"/>
<feOffset/>
<feGaussianBlur stdDeviation="1.5"/>
<feComposite in2="hardAlpha" operator="out"/>
<feColorMatrix type="matrix" values="0 0 0 0 1 0 0 0 0 0 0 0 0 0 0 0 0 0 1 0"/>
<feBlend mode="normal" in2="BackgroundImageFix" result="effect1_dropShadow_558_18877"/>
<feBlend mode="normal" in="SourceGraphic" in2="effect1_dropShadow_558_18877" result="shape"/>
</filter>
<clipPath id="clip0_558_18877">
<rect width="750" height="1059.7" fill="white"/>
</clipPath>
<clipPath id="clip1_558_18877">
<rect width="181" height="182.998" fill="white" transform="translate(454 637.002)"/>
</clipPath>
<clipPath id="clip2_558_18877">
<rect width="108" height="139" fill="white" transform="translate(495 659.002)"/>
</clipPath>
</defs>
</svg>
