<svg width="335" height="368" viewBox="0 0 335 368" fill="none" xmlns="http://www.w3.org/2000/svg">
<rect x="318" y="16" width="350" height="300" rx="16" transform="rotate(90 318 16)" fill="#FFC700"/>
<path d="M253.369 364.035L253.338 364.006C249.57 360.586 245.963 357.01 242.433 353.36L242.432 353.359C241.55 352.441 240.669 351.489 239.78 350.529C236.716 347.218 233.56 343.809 229.975 341.381C233.701 344.926 237.144 348.746 240.569 352.551L240.654 352.646C244.133 356.512 247.597 360.36 251.347 363.921L252.058 364.596L251.094 364.775C249.377 365.094 247.642 365.308 245.899 365.415L245.531 365.437L245.4 365.093C245.362 364.991 245.296 364.9 245.209 364.829L245.208 364.828C241.599 361.873 238.182 358.644 234.776 355.427C233.555 354.273 232.335 353.121 231.108 351.983C226.451 347.663 221.681 343.537 216.294 340.247L216.293 340.247C216.216 340.2 216.166 340.204 216.134 340.213C216.09 340.226 216.039 340.26 216 340.318C215.961 340.376 215.954 340.429 215.958 340.459C215.96 340.477 215.968 340.516 216.044 340.565L215.773 340.985L216.044 340.565C221.196 343.896 225.514 348.169 229.727 352.469C230.082 352.832 230.436 353.195 230.79 353.557C234.647 357.505 238.464 361.412 242.839 364.646L244.033 365.528L242.548 365.548C240.28 365.578 237.994 365.508 235.746 365.42L235.562 365.413L235.427 365.288C233.336 363.362 231.186 361.508 229.031 359.649L228.767 359.422C226.525 357.488 224.28 355.546 222.106 353.52L222.105 353.52C221.572 353.022 221.041 352.524 220.511 352.027C216.498 348.265 212.555 344.569 208.077 341.395C208.002 341.343 207.966 341.352 207.955 341.355C207.93 341.361 207.888 341.384 207.851 341.44C207.814 341.495 207.802 341.554 207.807 341.6C207.81 341.634 207.825 341.681 207.893 341.732L207.894 341.732C215.047 347.126 221.615 353.597 228.089 359.974C229.601 361.464 231.109 362.949 232.618 364.414L233.557 365.326L232.249 365.273C230.146 365.186 228.086 365.126 226.099 365.142L225.928 365.143L225.792 365.039C221.015 361.397 216.395 357.519 211.805 353.623C211.189 353.101 210.574 352.578 209.959 352.055C205.987 348.678 202.024 345.31 197.976 342.08L198.288 341.689M253.369 364.035L153.602 366.601L153.138 364.545C153.305 364.526 153.472 364.508 153.638 364.49M253.369 364.035L253.404 364.057L256.977 366.344M253.369 364.035L256.977 366.344M198.288 341.689L197.977 342.08C197.968 342.073 197.96 342.068 197.954 342.064C197.949 342.07 197.941 342.078 197.933 342.09C197.909 342.127 197.898 342.172 197.901 342.207C197.904 342.234 197.913 342.263 197.95 342.295C197.95 342.295 197.951 342.295 197.951 342.295L197.625 342.675M198.288 341.689C202.342 344.924 206.312 348.298 210.284 351.675C215.485 356.096 220.69 360.521 226.095 364.642M198.288 341.689C197.677 341.204 197.056 342.188 197.625 342.675M197.625 342.675C201.277 345.795 204.846 349.071 208.421 352.353C212.819 356.389 217.226 360.434 221.808 364.209C222.004 364.205 222.2 364.202 222.396 364.198L222.405 364.698L222.089 365.085C221.937 364.961 221.785 364.837 221.633 364.712C219.547 364.749 217.464 364.782 215.385 364.811C215.358 364.895 215.323 364.977 215.281 365.055L214.84 364.819L214.833 364.319C214.873 364.319 214.913 364.318 214.952 364.318C214.95 364.269 214.944 364.221 214.934 364.173C214.888 363.954 214.766 363.757 214.589 363.616C214.205 363.274 213.82 362.93 213.435 362.586C204.969 355.029 196.161 347.166 186.859 340.699C186.142 340.197 185.421 341.295 186.113 341.808C195.085 348.47 203.688 356.627 211.838 364.373C212.009 364.372 212.179 364.37 212.35 364.368C212.351 364.368 212.352 364.368 212.353 364.368L212.358 364.868L212.014 365.23L211.76 364.989L211.87 364.873L211.76 364.989C211.72 364.951 211.68 364.913 211.64 364.875C209.844 364.892 208.049 364.899 206.255 364.894C203.711 362.063 200.685 359.577 197.682 357.111C196.203 355.896 194.73 354.686 193.323 353.441C193.18 353.315 193.037 353.188 192.894 353.062C188.781 349.424 184.744 345.852 180.501 342.433C179.85 341.909 179.181 342.965 179.79 343.49M197.625 342.675L226.095 364.642M179.79 343.49C184.118 347.212 188.252 351.134 192.384 355.054C192.685 355.34 192.987 355.625 193.288 355.911M179.79 343.49L180.116 343.111C180.116 343.111 180.116 343.111 180.116 343.112C184.454 346.841 188.597 350.771 192.726 354.689C193.028 354.975 193.329 355.261 193.631 355.547M179.79 343.49L172.304 343.08M193.288 355.911C194.486 357.036 195.738 358.135 196.994 359.239C198.889 360.902 200.793 362.574 202.535 364.354C202.699 364.356 202.864 364.358 203.028 364.359L203.023 364.859L202.66 365.204C202.548 365.086 202.435 364.968 202.322 364.851C200.183 364.824 198.043 364.773 195.902 364.698C194.143 362.215 191.769 360.187 189.416 358.176C188.231 357.164 187.052 356.156 185.959 355.097C185.456 354.61 184.953 354.121 184.451 353.633C180.6 349.891 176.751 346.149 172.625 342.696M193.288 355.911L193.632 355.548C193.632 355.548 193.631 355.548 193.631 355.547M193.288 355.911L193.63 355.546C193.63 355.547 193.631 355.547 193.631 355.547M172.625 342.696C171.983 342.16 171.028 343.245 171.661 343.792C176.196 347.735 180.388 352.011 184.557 356.33C185.742 357.561 186.98 358.736 188.217 359.909C189.649 361.267 191.079 362.624 192.424 364.066C192.591 364.073 192.757 364.08 192.924 364.087L192.903 364.587L192.532 364.922C192.421 364.799 192.309 364.677 192.197 364.556C190.968 364.499 189.74 364.426 188.509 364.341C188.063 364.323 187.62 364.291 187.177 364.259C186.985 364.245 186.794 364.231 186.602 364.218C182.269 358.889 177.14 354.208 172.049 349.562C169.593 347.321 167.146 345.088 164.801 342.794C164.215 342.22 163.267 343.036 163.839 343.638C166.438 346.374 169.075 349.071 171.711 351.768C175.493 355.637 179.274 359.504 182.937 363.483C183.111 363.493 183.284 363.505 183.458 363.516L183.426 364.015L183.057 364.352C182.94 364.224 182.823 364.097 182.705 363.969C181.53 363.895 180.359 363.824 179.185 363.755C175.743 359.909 171.852 356.383 167.981 352.875C166.016 351.095 164.057 349.32 162.164 347.51C161.574 346.944 160.613 347.772 161.203 348.354M172.625 342.696L172.304 343.08M172.625 342.696L172.304 343.08M161.203 348.354C163.587 350.692 165.915 353.103 168.242 355.514C170.703 358.064 173.164 360.613 175.691 363.076C175.88 363.084 176.068 363.093 176.257 363.102L176.233 363.601L175.886 363.961C175.75 363.83 175.614 363.698 175.478 363.566C173.406 363.474 171.336 363.409 169.267 363.373C167.452 361.343 165.423 359.498 163.393 357.653C162.164 356.535 160.935 355.417 159.753 354.258C159.424 353.934 159.095 353.609 158.766 353.285C156.17 350.723 153.579 348.166 150.772 345.821M161.203 348.354L161.553 347.997C161.553 347.997 161.553 347.997 161.553 347.997C163.942 350.341 166.274 352.756 168.6 355.166C168.756 355.327 168.911 355.487 169.066 355.648C171.549 358.219 174.029 360.778 176.58 363.242L177.536 364.165L176.209 364.101C173.889 363.989 171.573 363.913 169.259 363.873L169.04 363.869L168.895 363.706C167.454 362.096 165.874 360.599 164.254 359.114C163.859 358.752 163.461 358.39 163.062 358.027C161.831 356.908 160.592 355.781 159.403 354.615L159.403 354.615C159.073 354.29 158.744 353.965 158.415 353.641C155.818 351.078 153.244 348.538 150.456 346.208M161.203 348.354L256.977 366.344M150.772 345.821C150.242 345.392 149.494 346.241 149.981 346.721C155.301 351.999 160.597 357.395 165.766 362.837C165.924 362.837 166.083 362.837 166.242 362.838L166.241 363.338L165.878 363.682C165.769 363.567 165.66 363.452 165.551 363.338C161.534 363.347 157.521 363.568 153.528 363.999L153.638 364.49M150.772 345.821L150.458 346.21C150.457 346.209 150.456 346.209 150.456 346.208M150.772 345.821L150.453 346.204L150.452 346.204L150.452 346.205C150.453 346.206 150.454 346.207 150.456 346.208M153.638 364.49L154.002 366.102L256.977 366.344M153.638 364.49C157.823 364.041 162.029 363.823 166.239 363.838L167.407 363.842L166.603 362.994C161.28 357.378 155.82 351.809 150.333 346.366L150.332 346.365C150.327 346.36 150.325 346.357 150.323 346.355M150.323 346.355C150.323 346.354 150.323 346.353 150.323 346.353C150.325 346.338 150.335 346.301 150.37 346.26C150.404 346.222 150.437 346.208 150.45 346.204C150.452 346.205 150.454 346.207 150.456 346.208M150.323 346.355C150.323 346.357 150.324 346.357 150.323 346.354C150.322 346.353 150.322 346.353 150.322 346.353L150.323 346.355ZM226.095 364.642C227.857 364.628 229.674 364.673 231.522 364.743C231.655 364.873 231.788 365.002 231.921 365.132L232.27 364.773L232.29 364.273C232.104 364.266 231.919 364.258 231.733 364.251M226.095 364.642L231.733 364.251M231.733 364.251C230.398 362.95 229.064 361.637 227.728 360.32C221.256 353.945 214.717 347.504 207.593 342.132C206.882 341.598 207.625 340.464 208.365 340.987C212.874 344.181 216.843 347.903 220.853 351.663L231.733 364.251ZM245.525 364.442C241.931 361.498 238.532 358.287 235.131 355.074C229.281 349.548 223.424 344.015 216.554 339.821L245.525 364.442ZM245.525 364.442C245.679 364.567 245.797 364.731 245.868 364.916M245.525 364.442L245.868 364.916M245.868 364.916C247.385 364.822 248.895 364.648 250.392 364.392C250.481 364.477 250.569 364.562 250.658 364.646L251.003 364.284L250.911 363.792C250.793 363.814 250.674 363.836 250.555 363.857M245.868 364.916L250.555 363.857M250.555 363.857C246.963 360.402 243.626 356.695 240.289 352.987C236.753 349.059 233.217 345.13 229.376 341.503M250.555 363.857L229.746 341.228C229.745 341.229 229.744 341.231 229.743 341.232C229.738 341.237 229.737 341.24 229.737 341.239C229.738 341.238 229.74 341.233 229.741 341.225C229.735 341.221 229.729 341.217 229.723 341.213L229.722 341.212L229.723 341.213L229.726 341.214C229.73 341.215 229.734 341.217 229.739 341.218C229.74 341.218 229.741 341.218 229.742 341.218C229.742 341.217 229.742 341.216 229.742 341.215C229.742 341.206 229.742 341.197 229.74 341.187C229.74 341.186 229.74 341.185 229.739 341.183C229.738 341.176 229.736 341.169 229.733 341.162C229.727 341.149 229.721 341.141 229.72 341.14L229.376 341.503M229.376 341.503L229.72 341.139M229.376 341.503L229.72 341.139M229.72 341.139C229.72 341.139 229.719 341.139 229.719 341.139L229.72 341.139ZM172.304 343.08C176.415 346.52 180.25 350.248 184.102 353.991C184.605 354.48 185.107 354.968 185.611 355.456L185.611 355.456C186.715 356.526 187.915 357.552 189.107 358.57C189.688 359.067 190.268 359.562 190.833 360.059C192.572 361.591 194.206 363.169 195.494 364.987L195.637 365.188L195.884 365.197C198.264 365.281 200.641 365.335 203.018 365.359L204.199 365.371L203.385 364.515C201.867 362.916 200.213 361.412 198.55 359.941C198.139 359.579 197.729 359.218 197.319 358.859C196.065 357.757 194.822 356.665 193.631 355.547M161.518 347.95C161.519 347.946 161.527 347.916 161.569 347.879C161.612 347.842 161.663 347.823 161.704 347.821C161.734 347.819 161.772 347.826 161.819 347.871L161.819 347.871C163.733 349.701 165.703 351.487 167.673 353.271C171.531 356.767 175.387 360.261 178.812 364.089L178.95 364.242L179.156 364.254C180.569 364.337 181.977 364.423 183.394 364.514L184.634 364.593L183.795 363.677C179.977 359.508 176.015 355.455 172.057 351.407C169.422 348.711 166.789 346.018 164.202 343.294L164.202 343.293C164.174 343.264 164.166 343.245 164.164 343.239C164.162 343.234 164.162 343.231 164.162 343.229C164.163 343.221 164.172 343.189 164.214 343.153C164.254 343.117 164.302 343.1 164.339 343.099C164.366 343.098 164.403 343.104 164.451 343.151L164.451 343.151C166.802 345.451 169.261 347.695 171.721 349.941C173.037 351.141 174.354 352.343 175.654 353.553C179.395 357.035 183.024 360.61 186.214 364.534L186.352 364.703L186.569 364.717C186.755 364.73 186.942 364.743 187.132 364.757C187.577 364.789 188.03 364.822 188.481 364.841C189.949 364.941 191.415 365.026 192.883 365.086L194.074 365.135L193.274 364.251C191.948 362.786 190.53 361.417 189.111 360.069C188.927 359.894 188.744 359.72 188.56 359.545C187.323 358.372 186.094 357.206 184.917 355.983L184.917 355.983C180.747 351.664 176.542 347.374 171.989 343.415L171.988 343.414C171.953 343.383 171.952 343.367 171.954 343.346C171.956 343.307 171.979 343.238 172.041 343.168C172.102 343.099 172.17 343.063 172.215 343.054C172.245 343.048 172.268 343.049 172.304 343.079L161.518 347.95ZM235.766 364.921C237.738 364.998 239.733 365.06 241.716 365.054C241.892 365.187 242.068 365.319 242.244 365.45L242.542 365.048L242.535 364.548C242.318 364.551 242.101 364.553 241.884 364.554L235.766 364.921ZM180.139 342.792C180.146 342.795 180.163 342.802 180.187 342.822L180.139 342.792Z" fill="black" stroke="black"/>
<rect x="318" y="16" width="350" height="300" rx="16" transform="rotate(90 318 16)" stroke="black" stroke-width="4"/>
<rect x="2" y="2.5" width="331" height="346" rx="14" fill="white"/>
<rect x="2" y="2.5" width="331" height="346" rx="14" stroke="black" stroke-width="4"/>
</svg>
