<svg width="727" height="439" viewBox="0 0 727 439" fill="none" xmlns="http://www.w3.org/2000/svg">
<rect x="14" y="62" width="697" height="375" rx="16" fill="#FFC700"/>
<mask id="path-2-inside-1_558_19053" fill="white">
<path d="M230.289 393.676C230.57 393.765 230.851 393.842 231.128 393.923L233.472 392.634L237.1 397.634L237.6 422.549L222.625 437.634L117.599 437.634L117.021 435.063C121.404 434.555 125.813 434.303 130.225 434.308C124.901 428.652 119.439 423.045 113.951 417.563C113.463 417.08 114.209 416.221 114.74 416.653C117.905 419.313 120.795 422.247 123.728 425.153C126.864 428.248 130.332 431.052 133.25 434.336C135.568 434.372 137.889 434.443 140.212 434.551C135.092 429.573 130.258 424.212 125.168 419.186C124.577 418.599 125.537 417.761 126.128 418.331C131.754 423.748 137.969 428.855 143.162 434.699C144.575 434.779 145.984 434.863 147.401 434.951C141.034 427.951 134.295 421.306 127.796 414.416C127.223 413.81 128.169 412.984 128.756 413.562C135.967 420.665 144.144 427.184 150.576 435.149C151.212 435.19 151.844 435.244 152.482 435.269C153.948 435.367 155.41 435.449 156.873 435.506C154.246 432.583 151.245 430.036 148.52 427.187C144.347 422.834 140.151 418.526 135.613 414.553C134.98 414.002 135.933 412.905 136.574 413.444C141.242 417.376 145.557 421.681 149.919 425.938C153.187 429.125 157.222 431.848 159.871 435.611C162.244 435.69 164.617 435.739 166.987 435.758C163.979 432.569 160.421 429.745 157.245 426.743C152.808 422.507 148.383 418.251 143.736 414.23C143.127 413.7 143.794 412.633 144.445 413.16C148.838 416.723 153.011 420.451 157.276 424.248C161.541 428.045 166.416 431.525 170.218 435.785C172.249 435.785 174.282 435.772 176.317 435.744L176.063 435.501C167.828 427.621 159.128 419.296 150.053 412.515C149.361 411.999 150.079 410.888 150.796 411.393C160.527 418.2 169.719 426.548 178.545 434.474C178.722 434.616 178.844 434.815 178.89 435.036C178.936 435.258 178.904 435.489 178.798 435.689C181.313 435.648 183.834 435.601 186.358 435.549C177.817 428.538 169.904 420.54 161.56 413.364C160.99 412.873 161.609 411.878 162.22 412.366C171.589 419.89 180.508 428.166 190.045 435.483C192.043 435.463 194.112 435.519 196.216 435.601C188.226 427.789 180.317 419.467 171.521 412.791C170.809 412.254 171.549 411.107 172.29 411.633C177.397 415.274 181.815 419.599 186.381 423.889C190.718 427.957 195.34 431.69 199.71 435.742C201.955 435.825 204.229 435.89 206.482 435.854C196.845 428.685 189.896 418.25 179.694 411.614C178.927 411.116 179.697 409.957 180.472 410.436C191.34 417.11 199.683 427.172 209.463 435.235C209.617 435.361 209.736 435.526 209.806 435.713C211.528 435.602 213.242 435.385 214.937 435.062C207.337 427.796 200.911 419.351 193.289 412.105C192.889 411.723 193.469 411.092 193.91 411.389C198.71 414.578 202.76 419.555 206.715 423.698C210.244 427.371 213.845 430.966 217.606 434.402C219.347 433.911 221.03 433.234 222.625 432.382C222.949 432.214 223.245 432.012 223.553 431.826C220.28 428.668 216.788 425.728 213.52 422.549C210.513 419.628 207.552 415.754 203.931 413.614C202.973 413.05 203.925 411.649 204.884 412.184C208.724 414.332 211.819 418.24 215.043 421.194C218.433 424.304 222.541 426.948 225.404 430.595C226.71 429.631 227.906 428.527 228.971 427.302C226.467 425.313 223.966 423.348 221.69 421.129C218.874 418.384 216.164 415.581 212.725 413.596C212.037 413.199 212.619 411.993 213.343 412.338C216.782 413.989 219.475 416.5 222.258 419.038C224.826 421.367 227.711 423.301 230.358 425.522C231.25 424.259 232.017 422.912 232.647 421.5C228.307 418.251 224.793 414.002 220.006 411.348C219.179 410.905 220.004 409.703 220.81 410.146C225.453 412.609 229.284 416.238 233.472 419.366C233.983 417.859 234.37 416.314 234.628 414.744C231.671 412.565 228.919 410.073 225.581 408.478C224.526 407.973 225.072 406.234 226.173 406.725C229.389 408.163 232.104 410.329 234.94 412.355C235.022 411.298 235.064 410.222 235.066 409.141C234.975 409.118 234.887 409.087 234.802 409.048C232.478 407.732 230.767 405.581 228.313 404.408C227.388 403.969 227.892 402.434 228.83 402.882C231.003 403.953 233.07 405.224 235.005 406.68C234.908 405.088 234.695 403.505 234.367 401.943C234.23 401.993 234.082 402.006 233.938 401.98C233.795 401.954 233.66 401.891 233.549 401.796C232.354 400.774 230.994 399.962 229.526 399.394C228.629 399.079 229.091 397.794 229.992 398.014C231.304 398.369 232.56 398.904 233.726 399.603C233.266 398.075 232.649 396.599 231.885 395.198C231.85 395.288 231.797 395.37 231.729 395.44C231.661 395.509 231.58 395.564 231.491 395.601C231.401 395.638 231.305 395.657 231.208 395.656C231.111 395.655 231.015 395.635 230.926 395.596C230.55 395.429 230.172 395.295 229.795 395.141C229.601 395.075 229.44 394.936 229.349 394.752C229.258 394.568 229.243 394.356 229.309 394.162C229.374 393.968 229.514 393.807 229.698 393.716C229.882 393.625 230.095 393.611 230.289 393.676Z"/>
</mask>
<path d="M230.289 393.676C230.57 393.765 230.851 393.842 231.128 393.923L233.472 392.634L237.1 397.634L237.6 422.549L222.625 437.634L117.599 437.634L117.021 435.063C121.404 434.555 125.813 434.303 130.225 434.308C124.901 428.652 119.439 423.045 113.951 417.563C113.463 417.08 114.209 416.221 114.74 416.653C117.905 419.313 120.795 422.247 123.728 425.153C126.864 428.248 130.332 431.052 133.25 434.336C135.568 434.372 137.889 434.443 140.212 434.551C135.092 429.573 130.258 424.212 125.168 419.186C124.577 418.599 125.537 417.761 126.128 418.331C131.754 423.748 137.969 428.855 143.162 434.699C144.575 434.779 145.984 434.863 147.401 434.951C141.034 427.951 134.295 421.306 127.796 414.416C127.223 413.81 128.169 412.984 128.756 413.562C135.967 420.665 144.144 427.184 150.576 435.149C151.212 435.19 151.844 435.244 152.482 435.269C153.948 435.367 155.41 435.449 156.873 435.506C154.246 432.583 151.245 430.036 148.52 427.187C144.347 422.834 140.151 418.526 135.613 414.553C134.98 414.002 135.933 412.905 136.574 413.444C141.242 417.376 145.557 421.681 149.919 425.938C153.187 429.125 157.222 431.848 159.871 435.611C162.244 435.69 164.617 435.739 166.987 435.758C163.979 432.569 160.421 429.745 157.245 426.743C152.808 422.507 148.383 418.251 143.736 414.23C143.127 413.7 143.794 412.633 144.445 413.16C148.838 416.723 153.011 420.451 157.276 424.248C161.541 428.045 166.416 431.525 170.218 435.785C172.249 435.785 174.282 435.772 176.317 435.744L176.063 435.501C167.828 427.621 159.128 419.296 150.053 412.515C149.361 411.999 150.079 410.888 150.796 411.393C160.527 418.2 169.719 426.548 178.545 434.474C178.722 434.616 178.844 434.815 178.89 435.036C178.936 435.258 178.904 435.489 178.798 435.689C181.313 435.648 183.834 435.601 186.358 435.549C177.817 428.538 169.904 420.54 161.56 413.364C160.99 412.873 161.609 411.878 162.22 412.366C171.589 419.89 180.508 428.166 190.045 435.483C192.043 435.463 194.112 435.519 196.216 435.601C188.226 427.789 180.317 419.467 171.521 412.791C170.809 412.254 171.549 411.107 172.29 411.633C177.397 415.274 181.815 419.599 186.381 423.889C190.718 427.957 195.34 431.69 199.71 435.742C201.955 435.825 204.229 435.89 206.482 435.854C196.845 428.685 189.896 418.25 179.694 411.614C178.927 411.116 179.697 409.957 180.472 410.436C191.34 417.11 199.683 427.172 209.463 435.235C209.617 435.361 209.736 435.526 209.806 435.713C211.528 435.602 213.242 435.385 214.937 435.062C207.337 427.796 200.911 419.351 193.289 412.105C192.889 411.723 193.469 411.092 193.91 411.389C198.71 414.578 202.76 419.555 206.715 423.698C210.244 427.371 213.845 430.966 217.606 434.402C219.347 433.911 221.03 433.234 222.625 432.382C222.949 432.214 223.245 432.012 223.553 431.826C220.28 428.668 216.788 425.728 213.52 422.549C210.513 419.628 207.552 415.754 203.931 413.614C202.973 413.05 203.925 411.649 204.884 412.184C208.724 414.332 211.819 418.24 215.043 421.194C218.433 424.304 222.541 426.948 225.404 430.595C226.71 429.631 227.906 428.527 228.971 427.302C226.467 425.313 223.966 423.348 221.69 421.129C218.874 418.384 216.164 415.581 212.725 413.596C212.037 413.199 212.619 411.993 213.343 412.338C216.782 413.989 219.475 416.5 222.258 419.038C224.826 421.367 227.711 423.301 230.358 425.522C231.25 424.259 232.017 422.912 232.647 421.5C228.307 418.251 224.793 414.002 220.006 411.348C219.179 410.905 220.004 409.703 220.81 410.146C225.453 412.609 229.284 416.238 233.472 419.366C233.983 417.859 234.37 416.314 234.628 414.744C231.671 412.565 228.919 410.073 225.581 408.478C224.526 407.973 225.072 406.234 226.173 406.725C229.389 408.163 232.104 410.329 234.94 412.355C235.022 411.298 235.064 410.222 235.066 409.141C234.975 409.118 234.887 409.087 234.802 409.048C232.478 407.732 230.767 405.581 228.313 404.408C227.388 403.969 227.892 402.434 228.83 402.882C231.003 403.953 233.07 405.224 235.005 406.68C234.908 405.088 234.695 403.505 234.367 401.943C234.23 401.993 234.082 402.006 233.938 401.98C233.795 401.954 233.66 401.891 233.549 401.796C232.354 400.774 230.994 399.962 229.526 399.394C228.629 399.079 229.091 397.794 229.992 398.014C231.304 398.369 232.56 398.904 233.726 399.603C233.266 398.075 232.649 396.599 231.885 395.198C231.85 395.288 231.797 395.37 231.729 395.44C231.661 395.509 231.58 395.564 231.491 395.601C231.401 395.638 231.305 395.657 231.208 395.656C231.111 395.655 231.015 395.635 230.926 395.596C230.55 395.429 230.172 395.295 229.795 395.141C229.601 395.075 229.44 394.936 229.349 394.752C229.258 394.568 229.243 394.356 229.309 394.162C229.374 393.968 229.514 393.807 229.698 393.716C229.882 393.625 230.095 393.611 230.289 393.676Z" fill="black" stroke="black" stroke-width="2" mask="url(#path-2-inside-1_558_19053)"/>
<mask id="path-3-inside-2_558_19053" fill="white">
<path d="M637.715 423.953C641.244 427.627 644.845 431.222 648.606 434.658L653.625 437.89L548.599 437.89L548.021 435.318C552.404 434.811 556.813 434.559 561.225 434.564C555.901 428.908 550.439 423.3 544.951 417.819C544.463 417.335 545.209 416.477 545.74 416.908C548.905 419.569 551.795 422.502 554.728 425.409C557.864 428.504 561.332 431.308 564.25 434.592C566.568 434.628 568.889 434.699 571.212 434.807C566.092 429.829 561.258 424.468 556.168 419.442C555.577 418.855 556.537 418.017 557.128 418.587C562.754 424.004 568.969 429.111 574.162 434.955C575.575 435.035 576.984 435.119 578.401 435.207C572.034 428.207 565.295 421.562 558.796 414.672C558.223 414.066 559.169 413.24 559.756 413.818C566.967 420.921 575.144 427.44 581.576 435.405C582.212 435.446 582.844 435.5 583.482 435.525C584.948 435.623 586.41 435.705 587.873 435.762C585.246 432.839 582.245 430.292 579.52 427.443C575.347 423.09 571.151 418.782 566.613 414.809C565.98 414.258 566.933 413.161 567.574 413.7C572.242 417.632 576.557 421.937 580.919 426.194C584.187 429.381 588.222 432.104 590.871 435.867C593.244 435.946 595.617 435.995 597.987 436.014C594.979 432.825 591.421 430.001 588.245 426.999C583.808 422.763 579.383 418.507 574.736 414.485C574.127 413.956 574.794 412.888 575.445 413.415C579.838 416.979 584.011 420.707 588.276 424.504C592.541 428.301 597.416 431.781 601.218 436.041C603.249 436.041 605.282 436.027 607.317 436L607.063 435.757C598.828 427.877 590.128 419.552 581.053 412.771C580.361 412.255 581.079 411.144 581.796 411.649C591.527 418.456 600.719 426.804 609.545 434.73C609.722 434.872 609.844 435.071 609.89 435.292C609.936 435.514 609.904 435.745 609.798 435.945C612.313 435.903 614.834 435.857 617.358 435.805C608.817 428.794 600.904 420.796 592.56 413.62C591.99 413.129 592.609 412.133 593.22 412.622C602.589 420.146 611.508 428.422 621.045 435.739C623.043 435.719 625.112 435.775 627.216 435.857C619.226 428.045 611.317 419.723 602.521 413.047C601.809 412.509 602.549 411.363 603.29 411.889C608.397 415.53 612.815 419.855 617.381 424.145C621.718 428.213 626.34 431.946 630.71 435.998C632.955 436.081 635.229 436.146 637.482 436.11C627.845 428.941 620.896 418.506 610.694 411.87C609.927 411.371 610.697 410.213 611.472 410.692C622.34 417.366 630.683 427.428 640.463 435.491C640.617 435.617 640.736 435.782 640.806 435.969C642.528 435.858 644.242 435.641 645.937 435.318C638.337 428.052 631.911 419.607 624.289 412.36C623.889 411.979 624.469 411.348 624.91 411.645C629.71 414.834 633.76 419.811 637.715 423.953Z"/>
</mask>
<path d="M637.715 423.953C641.244 427.627 644.845 431.222 648.606 434.658L653.625 437.89L548.599 437.89L548.021 435.318C552.404 434.811 556.813 434.559 561.225 434.564C555.901 428.908 550.439 423.3 544.951 417.819C544.463 417.335 545.209 416.477 545.74 416.908C548.905 419.569 551.795 422.502 554.728 425.409C557.864 428.504 561.332 431.308 564.25 434.592C566.568 434.628 568.889 434.699 571.212 434.807C566.092 429.829 561.258 424.468 556.168 419.442C555.577 418.855 556.537 418.017 557.128 418.587C562.754 424.004 568.969 429.111 574.162 434.955C575.575 435.035 576.984 435.119 578.401 435.207C572.034 428.207 565.295 421.562 558.796 414.672C558.223 414.066 559.169 413.24 559.756 413.818C566.967 420.921 575.144 427.44 581.576 435.405C582.212 435.446 582.844 435.5 583.482 435.525C584.948 435.623 586.41 435.705 587.873 435.762C585.246 432.839 582.245 430.292 579.52 427.443C575.347 423.09 571.151 418.782 566.613 414.809C565.98 414.258 566.933 413.161 567.574 413.7C572.242 417.632 576.557 421.937 580.919 426.194C584.187 429.381 588.222 432.104 590.871 435.867C593.244 435.946 595.617 435.995 597.987 436.014C594.979 432.825 591.421 430.001 588.245 426.999C583.808 422.763 579.383 418.507 574.736 414.485C574.127 413.956 574.794 412.888 575.445 413.415C579.838 416.979 584.011 420.707 588.276 424.504C592.541 428.301 597.416 431.781 601.218 436.041C603.249 436.041 605.282 436.027 607.317 436L607.063 435.757C598.828 427.877 590.128 419.552 581.053 412.771C580.361 412.255 581.079 411.144 581.796 411.649C591.527 418.456 600.719 426.804 609.545 434.73C609.722 434.872 609.844 435.071 609.89 435.292C609.936 435.514 609.904 435.745 609.798 435.945C612.313 435.903 614.834 435.857 617.358 435.805C608.817 428.794 600.904 420.796 592.56 413.62C591.99 413.129 592.609 412.133 593.22 412.622C602.589 420.146 611.508 428.422 621.045 435.739C623.043 435.719 625.112 435.775 627.216 435.857C619.226 428.045 611.317 419.723 602.521 413.047C601.809 412.509 602.549 411.363 603.29 411.889C608.397 415.53 612.815 419.855 617.381 424.145C621.718 428.213 626.34 431.946 630.71 435.998C632.955 436.081 635.229 436.146 637.482 436.11C627.845 428.941 620.896 418.506 610.694 411.87C609.927 411.371 610.697 410.213 611.472 410.692C622.34 417.366 630.683 427.428 640.463 435.491C640.617 435.617 640.736 435.782 640.806 435.969C642.528 435.858 644.242 435.641 645.937 435.318C638.337 428.052 631.911 419.607 624.289 412.36C623.889 411.979 624.469 411.348 624.91 411.645C629.71 414.834 633.76 419.811 637.715 423.953Z" fill="black"/>
<path d="M648.606 434.658L647.931 435.396L647.994 435.453L648.064 435.499L648.606 434.658ZM637.715 423.953L636.991 424.644L636.994 424.646L637.715 423.953ZM624.91 411.645L624.352 412.474L624.357 412.478L624.91 411.645ZM624.289 412.36L623.6 413.085L623.6 413.085L624.289 412.36ZM645.937 435.318L646.124 436.301L648.032 435.938L646.628 434.596L645.937 435.318ZM640.806 435.969L639.871 436.323L640.133 437.014L640.871 436.967L640.806 435.969ZM640.463 435.491L639.827 436.262L639.829 436.265L640.463 435.491ZM611.472 410.692L610.948 411.543L610.949 411.544L611.472 410.692ZM610.694 411.87L611.239 411.032L611.239 411.032L610.694 411.87ZM637.482 436.11L637.498 437.11L640.44 437.064L638.079 435.308L637.482 436.11ZM630.71 435.998L630.03 436.731L630.302 436.983L630.673 436.997L630.71 435.998ZM617.381 424.145L616.697 424.874L616.697 424.875L617.381 424.145ZM603.29 411.889L603.871 411.075L603.87 411.074L603.29 411.889ZM602.521 413.047L603.125 412.251L603.123 412.249L602.521 413.047ZM627.216 435.857L627.177 436.856L629.773 436.958L627.915 435.142L627.216 435.857ZM621.045 435.739L620.437 436.532L620.71 436.743L621.056 436.739L621.045 435.739ZM593.22 412.622L593.846 411.842L593.845 411.841L593.22 412.622ZM592.56 413.62L591.907 414.377L591.908 414.378L592.56 413.62ZM617.358 435.805L617.379 436.804L620.084 436.749L617.992 435.032L617.358 435.805ZM609.798 435.945L608.914 435.478L608.124 436.973L609.814 436.945L609.798 435.945ZM609.545 434.73L608.876 435.474L608.898 435.493L608.92 435.511L609.545 434.73ZM581.796 411.649L581.221 412.467L581.223 412.468L581.796 411.649ZM581.053 412.771L581.651 411.97L581.651 411.97L581.053 412.771ZM607.063 435.757L607.754 435.034L607.754 435.034L607.063 435.757ZM607.317 436L607.331 437L609.774 436.967L608.008 435.278L607.317 436ZM601.218 436.041L600.472 436.707L600.77 437.041L601.218 437.041L601.218 436.041ZM575.445 413.415L576.075 412.639L576.074 412.638L575.445 413.415ZM574.736 414.485L574.08 415.24L574.082 415.242L574.736 414.485ZM588.245 426.999L587.554 427.722L587.558 427.725L588.245 426.999ZM597.987 436.014L597.98 437.014L600.323 437.032L598.715 435.327L597.987 436.014ZM590.871 435.867L590.053 436.443L590.34 436.85L590.837 436.866L590.871 435.867ZM580.919 426.194L580.221 426.91L580.221 426.91L580.919 426.194ZM567.574 413.7L568.219 412.935L568.217 412.934L567.574 413.7ZM566.613 414.809L567.271 414.057L567.269 414.055L566.613 414.809ZM579.52 427.443L580.243 426.752L580.242 426.751L579.52 427.443ZM587.873 435.762L587.834 436.761L590.199 436.854L588.617 435.094L587.873 435.762ZM583.482 435.525L583.549 434.527L583.535 434.526L583.521 434.525L583.482 435.525ZM581.576 435.405L580.798 436.033L581.074 436.374L581.511 436.403L581.576 435.405ZM559.756 413.818L559.054 414.53L559.054 414.53L559.756 413.818ZM558.796 414.672L559.523 413.986L559.522 413.985L558.796 414.672ZM578.401 435.207L578.339 436.205L580.8 436.358L579.141 434.534L578.401 435.207ZM574.162 434.955L573.415 435.619L573.691 435.93L574.106 435.953L574.162 434.955ZM557.128 418.587L556.434 419.307L556.434 419.307L557.128 418.587ZM556.168 419.442L555.463 420.151L555.465 420.153L556.168 419.442ZM571.212 434.807L571.166 435.805L573.799 435.927L571.909 434.09L571.212 434.807ZM564.25 434.592L563.503 435.256L563.795 435.585L564.235 435.592L564.25 434.592ZM554.728 425.409L554.025 426.119L554.026 426.12L554.728 425.409ZM545.74 416.908L546.383 416.143L546.377 416.138L546.371 416.133L545.74 416.908ZM544.951 417.819L545.657 417.112L545.655 417.109L544.951 417.819ZM561.225 434.564L561.224 435.564L563.543 435.567L561.953 433.879L561.225 434.564ZM548.021 435.318L547.906 434.325L546.802 434.453L547.046 435.538L548.021 435.318ZM548.599 437.89L547.624 438.109L547.799 438.89L548.599 438.89L548.599 437.89ZM653.625 437.89L653.625 438.89L657.026 438.89L654.167 437.049L653.625 437.89ZM649.28 433.92C645.541 430.503 641.955 426.925 638.436 423.261L636.994 424.646C640.532 428.33 644.15 431.941 647.931 435.396L649.28 433.92ZM638.438 423.263C634.567 419.208 630.386 414.083 625.464 410.812L624.357 412.478C629.033 415.585 632.953 420.414 636.991 424.644L638.438 423.263ZM625.468 410.815C624.716 410.309 623.917 410.657 623.538 411.082C623.337 411.308 623.173 411.625 623.156 412C623.138 412.404 623.294 412.794 623.6 413.085L624.979 411.636C625.084 411.736 625.163 411.904 625.154 412.091C625.147 412.251 625.081 412.357 625.03 412.414C624.979 412.471 624.898 412.53 624.778 412.556C624.641 412.585 624.481 412.561 624.352 412.474L625.468 410.815ZM623.6 413.085C627.377 416.676 630.862 420.568 634.376 424.498C637.88 428.418 641.413 432.376 645.246 436.041L646.628 434.596C642.861 430.994 639.381 427.096 635.867 423.166C632.362 419.245 628.823 415.291 624.978 411.636L623.6 413.085ZM645.75 434.336C644.095 434.65 642.423 434.862 640.742 434.971L640.871 436.967C642.634 436.853 644.388 436.631 646.124 436.301L645.75 434.336ZM641.742 435.615C641.609 435.264 641.386 434.955 641.096 434.717L639.829 436.265C639.848 436.28 639.862 436.3 639.871 436.323L641.742 435.615ZM641.099 434.719C636.241 430.714 631.758 426.229 627.058 421.84C622.38 417.472 617.518 413.231 611.996 409.84L610.949 411.544C616.294 414.827 621.038 418.954 625.693 423.302C630.326 427.628 634.905 432.205 639.827 436.262L641.099 434.719ZM611.997 409.841C611.568 409.576 611.083 409.514 610.637 409.643C610.214 409.766 609.883 410.043 609.671 410.362C609.46 410.681 609.331 411.099 609.392 411.544C609.457 412.017 609.725 412.433 610.148 412.708L611.239 411.032C611.251 411.04 611.283 411.064 611.314 411.113C611.346 411.162 611.366 411.217 611.373 411.272C611.388 411.375 611.356 411.44 611.338 411.467C611.32 411.494 611.279 411.54 611.194 411.564C611.086 411.595 610.989 411.568 610.948 411.543L611.997 409.841ZM610.148 412.708C615.145 415.959 619.363 420.151 623.583 424.488C627.779 428.8 631.988 433.27 636.886 436.913L638.079 435.308C633.339 431.782 629.255 427.449 625.016 423.093C620.801 418.761 616.444 414.418 611.239 411.032L610.148 412.708ZM637.467 435.11C635.241 435.145 632.988 435.082 630.747 434.998L630.673 436.997C632.922 437.081 635.217 437.146 637.498 437.11L637.467 435.11ZM631.39 435.264C629.191 433.225 626.93 431.268 624.689 429.322C622.444 427.373 620.218 425.435 618.066 423.416L616.697 424.875C618.882 426.923 621.135 428.885 623.378 430.832C625.625 432.783 627.859 434.718 630.03 436.731L631.39 435.264ZM618.066 423.416C613.523 419.149 609.047 414.765 603.871 411.075L602.71 412.703C607.748 416.295 612.106 420.562 616.697 424.874L618.066 423.416ZM603.87 411.074C603.462 410.784 602.976 410.683 602.508 410.804C602.067 410.918 601.732 411.204 601.524 411.521C601.112 412.15 601.053 413.192 601.918 413.845L603.123 412.249C603.165 412.281 603.22 412.358 603.23 412.457C603.239 412.535 603.217 412.587 603.197 412.617C603.178 412.646 603.123 412.711 603.007 412.741C602.946 412.756 602.881 412.758 602.819 412.746C602.758 412.734 602.722 412.712 602.711 412.704L603.87 411.074ZM601.916 413.844C610.647 420.47 618.489 428.723 626.517 436.572L627.915 435.142C619.963 427.368 611.987 418.976 603.125 412.251L601.916 413.844ZM627.255 434.858C625.144 434.775 623.057 434.718 621.035 434.739L621.056 436.739C623.029 436.719 625.079 436.774 627.177 436.856L627.255 434.858ZM621.654 434.946C616.908 431.305 612.311 427.421 607.719 423.498C603.133 419.579 598.546 415.616 593.846 411.842L592.594 413.402C597.263 417.152 601.82 421.089 606.42 425.019C611.014 428.943 615.645 432.856 620.437 436.532L621.654 434.946ZM593.845 411.841C593.481 411.55 593.017 411.418 592.547 411.53C592.11 411.635 591.795 411.919 591.606 412.213C591.24 412.783 591.162 413.736 591.907 414.377L593.213 412.862C593.279 412.92 593.326 413.013 593.333 413.108C593.34 413.185 593.319 413.246 593.289 413.294C593.26 413.339 593.178 413.436 593.012 413.475C592.812 413.523 592.654 413.45 592.596 413.403L593.845 411.841ZM591.908 414.378C596.063 417.952 600.112 421.73 604.207 425.509C608.297 429.282 612.429 433.052 616.723 436.578L617.992 435.032C613.747 431.546 609.652 427.812 605.563 424.039C601.481 420.273 597.401 416.464 593.212 412.862L591.908 414.378ZM617.337 434.805C614.814 434.857 612.296 434.904 609.781 434.945L609.814 436.945C612.331 436.903 614.853 436.857 617.379 436.804L617.337 434.805ZM610.682 436.412C610.896 436.006 610.963 435.538 610.869 435.088L608.911 435.496C608.91 435.49 608.911 435.483 608.914 435.478L610.682 436.412ZM610.869 435.088C610.775 434.639 610.528 434.236 610.169 433.949L608.92 435.511C608.916 435.508 608.912 435.502 608.911 435.496L610.869 435.088ZM610.213 433.986C601.4 426.071 592.16 417.678 582.37 410.83L581.223 412.468C590.893 419.233 600.038 427.536 608.876 435.474L610.213 433.986ZM582.372 410.831C581.969 410.547 581.489 410.451 581.027 410.571C580.593 410.685 580.264 410.967 580.06 411.279C579.654 411.899 579.594 412.93 580.455 413.573L581.651 411.97C581.699 412.006 581.758 412.09 581.77 412.197C581.779 412.282 581.755 412.341 581.733 412.375C581.711 412.408 581.653 412.475 581.534 412.506C581.471 412.523 581.403 412.525 581.339 412.513C581.275 412.5 581.235 412.477 581.221 412.467L582.372 410.831ZM580.454 413.572C589.472 420.31 598.128 428.591 606.372 436.479L607.754 435.034C599.528 427.163 590.784 418.794 581.651 411.97L580.454 413.572ZM606.372 436.479L606.626 436.723L608.008 435.278L607.754 435.034L606.372 436.479ZM607.304 435C605.273 435.027 603.245 435.041 601.218 435.041L601.218 437.041C603.254 437.041 605.291 437.027 607.331 437L607.304 435ZM601.964 435.375C600.015 433.192 597.803 431.22 595.565 429.334C593.307 427.431 591.062 425.646 588.941 423.757L587.611 425.251C589.755 427.16 592.08 429.013 594.276 430.864C596.493 432.732 598.619 434.631 600.472 436.707L601.964 435.375ZM588.941 423.757C584.68 419.964 580.49 416.22 576.075 412.639L574.815 414.192C579.187 417.739 583.342 421.45 587.611 425.251L588.941 423.757ZM576.074 412.638C575.701 412.336 575.225 412.199 574.743 412.313C574.296 412.419 573.972 412.71 573.777 413.013C573.4 413.6 573.318 414.578 574.08 415.24L575.392 413.731C575.448 413.779 575.489 413.861 575.495 413.943C575.5 414.008 575.484 414.057 575.459 414.096C575.436 414.131 575.363 414.221 575.205 414.259C575.122 414.278 575.035 414.278 574.956 414.257C574.878 414.238 574.831 414.205 574.815 414.192L576.074 412.638ZM574.082 415.242C578.707 419.244 583.111 423.481 587.554 427.722L588.935 426.275C584.504 422.045 580.06 417.771 575.39 413.729L574.082 415.242ZM587.558 427.725C589.161 429.24 590.866 430.716 592.514 432.183C594.173 433.659 595.787 435.139 597.26 436.7L598.715 435.327C597.179 433.7 595.511 432.173 593.844 430.689C592.167 429.197 590.505 427.759 588.932 426.272L587.558 427.725ZM597.995 435.014C595.633 434.995 593.269 434.946 590.904 434.868L590.837 436.866C593.22 436.946 595.6 436.995 597.98 437.014L597.995 435.014ZM591.688 435.291C590.296 433.313 588.555 431.63 586.79 430.066C584.994 428.474 583.231 427.052 581.617 425.478L580.221 426.91C581.875 428.523 583.764 430.056 585.464 431.563C587.196 433.098 588.797 434.658 590.053 436.443L591.688 435.291ZM581.618 425.479C577.268 421.233 572.921 416.897 568.219 412.935L566.93 414.465C571.562 418.367 575.846 422.64 580.221 426.91L581.618 425.479ZM568.217 412.934C567.808 412.59 567.311 412.495 566.858 412.59C566.438 412.678 566.096 412.919 565.86 413.191C565.625 413.462 565.433 413.836 565.408 414.268C565.38 414.734 565.552 415.212 565.956 415.564L567.269 414.055C567.302 414.084 567.343 414.133 567.372 414.204C567.4 414.273 567.407 414.338 567.404 414.388C567.401 414.435 567.39 414.465 567.384 414.479C567.378 414.493 567.373 414.499 567.371 414.501C567.369 414.503 567.364 414.509 567.352 414.516C567.341 414.523 567.314 414.538 567.27 414.547C567.224 414.556 567.162 414.56 567.091 414.543C567.019 414.526 566.965 414.494 566.931 414.466L568.217 412.934ZM565.954 415.562C570.456 419.502 574.625 423.782 578.798 428.135L580.242 426.751C576.068 422.398 571.846 418.061 567.271 414.057L565.954 415.562ZM578.797 428.134C580.179 429.579 581.631 430.947 583.042 432.297C584.46 433.655 585.843 435 587.13 436.431L588.617 435.094C587.276 433.602 585.845 432.211 584.425 430.852C582.997 429.486 581.586 428.156 580.243 426.752L578.797 428.134ZM587.912 434.763C586.46 434.706 585.007 434.625 583.549 434.527L583.415 436.522C584.888 436.621 586.36 436.704 587.834 436.761L587.912 434.763ZM583.521 434.525C582.9 434.501 582.304 434.45 581.641 434.407L581.511 436.403C582.121 436.442 582.789 436.498 583.443 436.524L583.521 434.525ZM582.354 434.777C579.094 430.74 575.402 427.082 571.642 423.558C567.862 420.017 564.053 416.647 560.457 413.105L559.054 414.53C562.669 418.091 566.555 421.533 570.274 425.018C574.013 428.521 577.626 432.105 580.798 436.033L582.354 434.777ZM560.457 413.105C559.712 412.371 558.723 412.571 558.179 413.051C557.905 413.293 557.677 413.652 557.628 414.09C557.575 414.557 557.738 415.009 558.069 415.359L559.522 413.985C559.567 414.032 559.633 414.154 559.615 414.313C559.6 414.444 559.538 414.519 559.502 414.551C559.465 414.584 559.404 414.618 559.312 414.621C559.2 414.625 559.103 414.578 559.054 414.53L560.457 413.105ZM558.068 415.358C564.61 422.294 571.293 428.879 577.661 435.88L579.141 434.534C572.775 427.535 565.98 420.831 559.523 413.986L558.068 415.358ZM578.463 434.209C577.045 434.12 575.634 434.036 574.219 433.956L574.106 435.953C575.517 436.033 576.924 436.117 578.339 436.205L578.463 434.209ZM574.91 434.29C569.687 428.413 563.365 423.204 557.821 417.867L556.434 419.307C562.143 424.804 568.251 429.808 573.415 435.619L574.91 434.29ZM557.822 417.867C557.065 417.138 556.077 417.36 555.543 417.831C555.271 418.071 555.038 418.431 554.991 418.875C554.941 419.352 555.118 419.808 555.463 420.151L556.873 418.732C556.89 418.75 556.926 418.792 556.952 418.863C556.979 418.935 556.988 419.012 556.98 419.086C556.965 419.226 556.899 419.302 556.866 419.331C556.832 419.361 556.777 419.393 556.692 419.397C556.585 419.402 556.487 419.358 556.434 419.307L557.822 417.867ZM555.465 420.153C557.999 422.655 560.469 425.241 562.957 427.834C565.441 430.424 567.941 433.021 570.515 435.524L571.909 434.09C569.363 431.614 566.886 429.042 564.4 426.45C561.918 423.862 559.427 421.255 556.871 418.73L555.465 420.153ZM571.258 433.808C568.925 433.7 566.594 433.628 564.266 433.592L564.235 435.592C566.542 435.627 568.853 435.699 571.166 435.805L571.258 433.808ZM564.998 433.928C563.504 432.247 561.878 430.698 560.249 429.195C558.609 427.682 556.983 426.229 555.431 424.697L554.026 426.12C555.61 427.684 557.285 429.181 558.893 430.664C560.511 432.158 562.078 433.653 563.503 435.256L564.998 433.928ZM555.432 424.698C552.513 421.806 549.587 418.836 546.383 416.143L545.096 417.674C548.222 420.302 551.078 423.199 554.025 426.119L555.432 424.698ZM546.371 416.133C545.999 415.83 545.548 415.736 545.128 415.82C544.738 415.898 544.423 416.117 544.208 416.365C543.804 416.831 543.5 417.789 544.246 418.529L545.655 417.109C545.749 417.203 545.8 417.347 545.791 417.48C545.784 417.587 545.743 417.648 545.719 417.676C545.695 417.703 545.636 417.758 545.52 417.781C545.374 417.81 545.215 417.771 545.109 417.684L546.371 416.133ZM544.244 418.527C549.725 424.002 555.18 429.602 560.497 435.25L561.953 433.879C556.621 428.215 551.152 422.599 545.657 417.112L544.244 418.527ZM561.227 433.564C556.775 433.559 552.328 433.813 547.906 434.325L548.136 436.312C552.481 435.808 556.851 435.559 561.224 435.564L561.227 433.564ZM547.046 435.538L547.624 438.109L549.575 437.67L548.997 435.099L547.046 435.538ZM548.599 438.89L653.625 438.89L653.625 436.89L548.599 436.89L548.599 438.89ZM654.167 437.049L649.147 433.817L648.064 435.499L653.084 438.731L654.167 437.049Z" fill="black" mask="url(#path-3-inside-2_558_19053)"/>
<rect x="14" y="62" width="697" height="375" rx="16" stroke="black" stroke-width="4"/>
<rect x="2" y="2" width="723" height="420" rx="16" fill="white"/>
<rect x="2" y="2" width="723" height="420" rx="16" stroke="black" stroke-width="4"/>
</svg>
