<svg width="1200" height="150" viewBox="0 0 1200 150" fill="none" xmlns="http://www.w3.org/2000/svg">
<g clip-path="url(#clip0_414_18286)">
<rect width="1200" height="150" rx="20" fill="#FFB929"/>
<ellipse cx="184.5" cy="-103.5" rx="564.5" ry="313.5" fill="white" fill-opacity="0.1"/>
<g opacity="0.39">
<path opacity="0.39" d="M758.966 131.214C763.894 131.214 767.89 127.219 767.89 122.291C767.89 117.362 763.894 113.367 758.966 113.367C754.038 113.367 750.042 117.362 750.042 122.291C750.042 127.219 754.038 131.214 758.966 131.214Z" fill="white"/>
<path opacity="0.39" d="M758.966 126.118C761.078 126.118 762.791 124.406 762.791 122.293C762.791 120.181 761.078 118.469 758.966 118.469C756.854 118.469 755.142 120.181 755.142 122.293C755.142 124.406 756.854 126.118 758.966 126.118Z" fill="white"/>
<path opacity="0.39" d="M772.861 109.491L767.341 112.678L767.349 112.692C766.946 112.34 766.521 112.013 766.077 111.715L766.091 111.719L767.741 105.562C767.872 105.072 767.804 104.55 767.55 104.111C767.296 103.672 766.879 103.351 766.389 103.22L762.079 102.065C761.589 101.934 761.068 102.003 760.628 102.256C760.189 102.51 759.869 102.927 759.737 103.417L758.088 109.574H758.097C757.568 109.61 757.042 109.68 756.521 109.782L756.528 109.777L753.342 104.258C753.216 104.04 753.049 103.849 752.85 103.696C752.65 103.543 752.423 103.431 752.18 103.366C751.938 103.301 751.685 103.285 751.436 103.317C751.187 103.35 750.947 103.432 750.729 103.557L746.866 105.789C746.648 105.915 746.457 106.082 746.304 106.281C746.152 106.48 746.039 106.708 745.974 106.95C745.909 107.193 745.893 107.446 745.925 107.695C745.958 107.944 746.04 108.184 746.165 108.401L749.352 113.921L749.359 113.917C749.01 114.317 748.687 114.739 748.391 115.18L748.394 115.171L742.237 113.521C741.747 113.389 741.225 113.459 740.786 113.712C740.347 113.966 740.026 114.383 739.895 114.873L738.74 119.183C738.609 119.672 738.678 120.195 738.931 120.634C739.185 121.073 739.603 121.393 740.092 121.525L746.249 123.174L746.253 123.16C746.289 123.693 746.359 124.224 746.462 124.75L746.455 124.736L740.934 127.922C740.495 128.176 740.175 128.594 740.043 129.084C739.912 129.573 739.981 130.095 740.234 130.535L742.466 134.398C742.592 134.616 742.759 134.807 742.958 134.96C743.157 135.113 743.385 135.225 743.627 135.29C743.87 135.355 744.123 135.371 744.372 135.339C744.621 135.306 744.861 135.224 745.078 135.099L750.598 131.912L750.586 131.891C750.994 132.247 751.424 132.577 751.874 132.878L751.848 132.871L750.198 139.027C750.067 139.517 750.136 140.039 750.389 140.478C750.643 140.918 751.06 141.238 751.55 141.369L755.86 142.524C756.35 142.655 756.872 142.587 757.311 142.333C757.75 142.079 758.07 141.662 758.202 141.172L759.851 135.015L759.819 135.006C760.364 134.97 760.906 134.9 761.441 134.793L761.413 134.81L764.6 140.33C764.725 140.547 764.892 140.738 765.092 140.891C765.291 141.044 765.518 141.156 765.76 141.221C766.003 141.286 766.256 141.303 766.505 141.27C766.754 141.237 766.994 141.155 767.212 141.03L771.076 138.798C771.515 138.544 771.835 138.127 771.967 137.637C772.098 137.147 772.029 136.625 771.776 136.186L768.589 130.666L768.561 130.682C768.921 130.271 769.253 129.838 769.557 129.384L769.548 129.416L775.704 131.066C775.947 131.131 776.2 131.148 776.449 131.115C776.698 131.083 776.938 131.001 777.155 130.875C777.373 130.749 777.564 130.582 777.716 130.383C777.869 130.184 777.982 129.956 778.046 129.714L779.201 125.404C779.266 125.162 779.283 124.909 779.25 124.66C779.217 124.411 779.136 124.171 779.01 123.953C778.885 123.736 778.717 123.545 778.518 123.392C778.319 123.24 778.091 123.127 777.849 123.062L771.689 121.415L771.681 121.442C771.645 120.901 771.575 120.364 771.471 119.832L771.483 119.854L777.003 116.667C777.442 116.413 777.763 115.995 777.894 115.506C778.025 115.016 777.957 114.494 777.703 114.055L775.471 110.191C775.218 109.752 774.8 109.432 774.311 109.301C773.821 109.169 773.3 109.238 772.861 109.491Z" fill="white"/>
</g>
<path opacity="0.39" d="M813.507 76.1042C825.968 76.1042 836.069 66.0029 836.069 53.5424C836.069 41.0814 825.968 30.9805 813.507 30.9805C801.047 30.9805 790.945 41.0814 790.945 53.5424C790.945 66.0029 801.047 76.1042 813.507 76.1042Z" fill="white"/>
<path d="M813.197 53.7858L825.386 46.7031L825.348 59.9532L813.16 67.0363L813.197 53.7858Z" stroke="#1E223B" stroke-width="0.875374" stroke-linecap="round" stroke-linejoin="round"/>
<path d="M801.666 47.13L813.854 40.0469L825.386 46.7045L813.197 53.7872L801.666 47.13Z" stroke="#1E223B" stroke-width="0.875374" stroke-linecap="round" stroke-linejoin="round"/>
<path d="M801.666 47.13L813.854 40.0469L825.386 46.7045L813.197 53.7872L801.666 47.13Z" fill="#028B9E" stroke="#1E223B" stroke-width="0.875374" stroke-linecap="round" stroke-linejoin="round"/>
<path opacity="0.4" d="M813.197 53.7861L813.16 67.0367L801.628 60.379L801.666 47.1289L813.197 53.7861Z" fill="#028B9E" stroke="#1E223B" stroke-width="0.875374" stroke-linecap="round" stroke-linejoin="round"/>
<path d="M813.197 53.7861L813.16 67.0367L801.628 60.379L801.666 47.1289L813.197 53.7861Z" stroke="#1E223B" stroke-width="0.875374" stroke-linecap="round" stroke-linejoin="round"/>
<path d="M813.507 76.1042C825.968 76.1042 836.069 66.0029 836.069 53.5424C836.069 41.0814 825.968 30.9805 813.507 30.9805C801.047 30.9805 790.945 41.0814 790.945 53.5424C790.945 66.0029 801.047 76.1042 813.507 76.1042Z" stroke="#1E223B" stroke-width="0.875374" stroke-linecap="round" stroke-linejoin="round"/>
<path d="M866.214 116.954C866.94 116.954 867.527 116.366 867.527 115.641C867.527 114.916 866.94 114.328 866.214 114.328C865.489 114.328 864.901 114.916 864.901 115.641C864.901 116.366 865.489 116.954 866.214 116.954Z" fill="#F73E39"/>
<path d="M866.214 116.954C866.94 116.954 867.527 116.366 867.527 115.641C867.527 114.916 866.94 114.328 866.214 114.328C865.489 114.328 864.901 114.916 864.901 115.641C864.901 116.366 865.489 116.954 866.214 116.954Z" stroke="#1E223B" stroke-width="0.875374" stroke-linecap="round" stroke-linejoin="round"/>
<path d="M758.967 131.218C763.895 131.218 767.89 127.223 767.89 122.295C767.89 117.366 763.895 113.371 758.967 113.371C754.038 113.371 750.043 117.366 750.043 122.295C750.043 127.223 754.038 131.218 758.967 131.218Z" stroke="#1E223B" stroke-width="0.875374" stroke-linecap="round" stroke-linejoin="round"/>
<path d="M758.966 126.118C761.078 126.118 762.791 124.406 762.791 122.293C762.791 120.181 761.078 118.469 758.966 118.469C756.854 118.469 755.142 120.181 755.142 122.293C755.142 124.406 756.854 126.118 758.966 126.118Z" stroke="#1E223B" stroke-width="0.875374" stroke-linecap="round" stroke-linejoin="round"/>
<path d="M772.861 109.494L767.341 112.682L767.349 112.696C766.946 112.344 766.521 112.017 766.077 111.719L766.091 111.723L767.741 105.566C767.872 105.076 767.804 104.554 767.55 104.115C767.296 103.676 766.879 103.355 766.389 103.224L762.079 102.069C761.589 101.938 761.068 102.007 760.628 102.26C760.189 102.514 759.869 102.931 759.737 103.421L758.088 109.578H758.097C757.568 109.614 757.042 109.684 756.521 109.786L756.528 109.781L753.342 104.261C753.216 104.044 753.049 103.853 752.85 103.7C752.65 103.547 752.423 103.435 752.18 103.37C751.938 103.305 751.685 103.288 751.436 103.321C751.187 103.354 750.947 103.436 750.729 103.561L746.866 105.793C746.648 105.919 746.457 106.086 746.304 106.285C746.152 106.484 746.039 106.712 745.974 106.954C745.909 107.197 745.893 107.45 745.925 107.699C745.958 107.948 746.04 108.188 746.165 108.405L749.352 113.925L749.359 113.921C749.01 114.321 748.687 114.743 748.391 115.184L748.394 115.175L742.237 113.525C741.747 113.393 741.225 113.463 740.786 113.716C740.347 113.97 740.026 114.387 739.895 114.877L738.74 119.187C738.609 119.676 738.678 120.199 738.931 120.638C739.185 121.077 739.603 121.397 740.092 121.529L746.249 123.178L746.253 123.163C746.289 123.697 746.359 124.228 746.462 124.754L746.455 124.74L740.934 127.926C740.495 128.18 740.175 128.598 740.043 129.088C739.912 129.577 739.981 130.099 740.234 130.538L742.466 134.402C742.592 134.62 742.759 134.811 742.958 134.963C743.157 135.117 743.385 135.229 743.627 135.293C743.87 135.359 744.123 135.375 744.372 135.343C744.621 135.31 744.861 135.228 745.078 135.103L750.598 131.916L750.586 131.895C750.994 132.251 751.424 132.581 751.874 132.882L751.848 132.875L750.198 139.031C750.067 139.521 750.136 140.043 750.389 140.482C750.643 140.922 751.06 141.242 751.55 141.373L755.86 142.528C756.35 142.659 756.872 142.591 757.311 142.337C757.75 142.083 758.07 141.666 758.202 141.176L759.851 135.019L759.819 135.01C760.364 134.974 760.906 134.903 761.441 134.797L761.413 134.814L764.6 140.333C764.725 140.551 764.892 140.742 765.092 140.895C765.291 141.048 765.518 141.16 765.76 141.225C766.003 141.29 766.256 141.306 766.505 141.274C766.754 141.241 766.994 141.159 767.212 141.034L771.076 138.802C771.515 138.548 771.835 138.131 771.967 137.641C772.098 137.151 772.029 136.629 771.776 136.19L768.589 130.67L768.561 130.686C768.921 130.275 769.253 129.842 769.557 129.388L769.548 129.42L775.704 131.07C775.947 131.135 776.2 131.152 776.449 131.119C776.698 131.086 776.938 131.005 777.155 130.879C777.373 130.753 777.564 130.586 777.716 130.387C777.869 130.188 777.982 129.96 778.046 129.718L779.201 125.408C779.266 125.166 779.283 124.913 779.25 124.664C779.217 124.415 779.136 124.174 779.01 123.957C778.885 123.74 778.717 123.549 778.518 123.396C778.319 123.244 778.091 123.131 777.849 123.066L771.689 121.419L771.681 121.445C771.645 120.905 771.575 120.367 771.471 119.836L771.483 119.858L777.003 116.671C777.442 116.417 777.763 115.999 777.894 115.51C778.025 115.02 777.957 114.498 777.703 114.059L775.471 110.195C775.218 109.756 774.8 109.436 774.311 109.304C773.821 109.173 773.3 109.241 772.861 109.494Z" stroke="#1E223B" stroke-width="0.875374" stroke-linecap="round" stroke-linejoin="round"/>
<g opacity="0.49">
<path opacity="0.49" d="M1083.01 66.3685C1087.63 66.3685 1091.37 62.6263 1091.37 58.0104C1091.37 53.3941 1087.63 49.6523 1083.01 49.6523C1078.4 49.6523 1074.65 53.3941 1074.65 58.0104C1074.65 62.6263 1078.4 66.3685 1083.01 66.3685Z" fill="white"/>
<path opacity="0.49" d="M1083.01 61.5937C1084.99 61.5937 1086.59 59.9901 1086.59 58.0117C1086.59 56.0334 1084.99 54.4297 1083.01 54.4297C1081.03 54.4297 1079.43 56.0334 1079.43 58.0117C1079.43 59.9901 1081.03 61.5937 1083.01 61.5937Z" fill="white"/>
<path opacity="0.49" d="M1096.02 46.0196L1090.85 49.0046L1090.86 49.0177C1090.48 48.6877 1090.09 48.3822 1089.67 48.103L1089.68 48.1069L1091.23 42.34C1091.35 41.8808 1091.29 41.3924 1091.05 40.9809C1090.81 40.5695 1090.42 40.2697 1089.96 40.1467L1085.93 39.0652C1085.7 39.0039 1085.46 38.9886 1085.23 39.0192C1085 39.0499 1084.77 39.126 1084.57 39.2438C1084.36 39.3615 1084.18 39.5177 1084.04 39.7046C1083.9 39.8911 1083.79 40.1043 1083.73 40.3314L1082.19 46.0979L1082.2 46.1006C1081.7 46.1338 1081.21 46.1986 1080.72 46.2945L1080.73 46.2905L1077.74 41.1206C1077.5 40.7087 1077.11 40.4084 1076.65 40.2854C1076.19 40.1625 1075.71 40.2264 1075.29 40.464L1071.67 42.5535C1071.47 42.6708 1071.29 42.8275 1071.15 43.014C1071.01 43.2004 1070.9 43.4136 1070.84 43.6408C1070.78 43.8679 1070.76 44.1047 1070.79 44.338C1070.82 44.5713 1070.9 44.7963 1071.02 45.0002L1074 50.1702L1074.01 50.1662C1073.68 50.5405 1073.38 50.9353 1073.1 51.348V51.3397L1067.34 49.7942C1066.88 49.6712 1066.39 49.7356 1065.98 49.9732C1065.57 50.2104 1065.27 50.6017 1065.14 51.0609L1064.06 55.0977C1063.94 55.5564 1064 56.0452 1064.24 56.4562C1064.48 56.8677 1064.87 57.1679 1065.33 57.2909L1071.09 58.8359L1071.1 58.8224C1071.13 59.3218 1071.2 59.819 1071.29 60.3105L1071.29 60.2974L1066.12 63.2824C1065.91 63.3997 1065.73 63.556 1065.59 63.7428C1065.45 63.9293 1065.34 64.142 1065.28 64.3692C1065.22 64.5963 1065.2 64.8336 1065.24 65.0668C1065.27 65.2997 1065.34 65.5247 1065.46 65.7286L1067.55 69.3479C1067.79 69.7593 1068.18 70.0595 1068.64 70.1825C1069.1 70.3055 1069.58 70.2416 1070 70.0044L1075.17 67.0194L1075.15 66.9992C1075.54 67.3328 1075.94 67.6418 1076.36 67.9241L1076.34 67.9171L1074.79 73.684C1074.73 73.9112 1074.71 74.148 1074.75 74.3813C1074.78 74.6141 1074.85 74.8391 1074.97 75.0426C1075.09 75.2466 1075.24 75.4252 1075.43 75.5683C1075.62 75.7114 1075.83 75.8164 1076.06 75.8773L1080.09 76.9588C1080.32 77.0196 1080.56 77.035 1080.79 77.0043C1081.02 76.9737 1081.25 76.8975 1081.45 76.7798C1081.66 76.6621 1081.84 76.5058 1081.98 76.3194C1082.12 76.1325 1082.23 75.9197 1082.29 75.6926L1083.83 69.926L1083.8 69.9177C1084.31 69.884 1084.82 69.8175 1085.32 69.7182L1085.3 69.7335L1088.28 74.9034C1088.4 75.107 1088.55 75.2855 1088.74 75.4291C1088.93 75.5722 1089.14 75.6773 1089.37 75.7385C1089.59 75.7994 1089.83 75.8147 1090.07 75.784C1090.3 75.7534 1090.52 75.6773 1090.73 75.56L1094.35 73.4704C1094.55 73.3527 1094.73 73.1964 1094.87 73.0096C1095.02 72.8231 1095.12 72.6104 1095.18 72.3828C1095.24 72.1556 1095.26 71.9188 1095.23 71.6856C1095.2 71.4523 1095.12 71.2273 1095 71.0238L1092.02 65.8538L1091.99 65.8691C1092.33 65.484 1092.64 65.0782 1092.92 64.6532L1092.92 64.6834L1098.68 66.2289C1099.14 66.3515 1099.63 66.2871 1100.04 66.0495C1100.45 65.8122 1100.75 65.4209 1100.88 64.9622L1101.96 60.9259C1102.08 60.4668 1102.02 59.9779 1101.78 59.5664C1101.54 59.155 1101.15 58.8552 1100.69 58.7322L1094.92 57.1872L1094.92 57.2121C1094.88 56.7057 1094.82 56.2024 1094.72 55.7047L1094.73 55.7244L1099.9 52.7394C1100.11 52.6217 1100.28 52.4654 1100.43 52.279C1100.57 52.0921 1100.68 51.8793 1100.74 51.6522C1100.8 51.425 1100.81 51.1878 1100.78 50.9549C1100.75 50.7217 1100.68 50.4967 1100.56 50.2932L1098.47 46.6752C1098.36 46.4713 1098.2 46.2923 1098.01 46.1491C1097.83 46.0056 1097.61 45.9005 1097.39 45.8397C1097.16 45.7789 1096.92 45.7631 1096.69 45.7942C1096.45 45.8248 1096.23 45.9014 1096.02 46.0196Z" fill="white"/>
</g>
<path d="M1083.01 66.3685C1087.63 66.3685 1091.37 62.6267 1091.37 58.0104C1091.37 53.3946 1087.63 49.6523 1083.01 49.6523C1078.4 49.6523 1074.66 53.3946 1074.66 58.0104C1074.66 62.6267 1078.4 66.3685 1083.01 66.3685Z" stroke="#1E223B" stroke-width="0.875374" stroke-linecap="round" stroke-linejoin="round"/>
<path d="M1083.01 61.5937C1084.99 61.5937 1086.6 59.9901 1086.6 58.0117C1086.6 56.0334 1084.99 54.4297 1083.01 54.4297C1081.04 54.4297 1079.43 56.0334 1079.43 58.0117C1079.43 59.9901 1081.04 61.5937 1083.01 61.5937Z" stroke="#1E223B" stroke-width="0.875374" stroke-linecap="round" stroke-linejoin="round"/>
<path d="M1100.69 58.7326L1094.93 57.1875L1094.92 57.202C1094.89 56.7022 1094.82 56.2054 1094.73 55.7139L1094.74 55.7261L1099.91 52.7411C1100.11 52.6233 1100.29 52.4671 1100.43 52.2806C1100.57 52.0942 1100.68 51.881 1100.74 51.6539C1100.8 51.4267 1100.82 51.1899 1100.79 50.9566C1100.76 50.7234 1100.68 50.4984 1100.56 50.2949L1098.47 46.6743C1098.24 46.2629 1097.85 45.9622 1097.39 45.8392C1096.93 45.7162 1096.44 45.7801 1096.03 46.0178L1090.86 49.0028L1090.86 49.0107C1090.49 48.6833 1090.09 48.38 1089.68 48.1029H1089.69L1091.23 42.336C1091.35 41.8768 1091.29 41.3884 1091.05 40.9769C1090.82 40.5655 1090.42 40.2657 1089.97 40.1427L1085.93 39.0612C1085.7 39.0003 1085.46 38.9846 1085.23 39.0152C1085 39.0459 1084.77 39.1225 1084.57 39.2398C1084.37 39.3575 1084.19 39.5142 1084.04 39.7006C1083.9 39.8871 1083.8 40.1002 1083.74 40.3274L1082.19 46.0939H1082.2C1081.7 46.1276 1081.21 46.1928 1080.72 46.2887L1080.73 46.2843L1077.74 41.1144C1077.51 40.7029 1077.11 40.4023 1076.66 40.2793C1076.2 40.1563 1075.71 40.2206 1075.3 40.4578L1071.68 42.5474C1071.47 42.6647 1071.29 42.8213 1071.15 43.0078C1071.01 43.1943 1070.9 43.4074 1070.84 43.6346C1070.78 43.8617 1070.77 44.099 1070.8 44.3318C1070.83 44.5651 1070.9 44.7901 1071.02 44.994L1074.01 50.164L1074.02 50.157C1073.69 50.5347 1073.38 50.9326 1073.1 51.3488L1073.11 51.3344L1067.34 49.7889C1066.88 49.6659 1066.39 49.7302 1065.98 49.9679C1065.57 50.2056 1065.27 50.5964 1065.15 51.0556L1064.07 55.0919C1063.94 55.5506 1064.01 56.0395 1064.24 56.4509C1064.48 56.8623 1064.87 57.1626 1065.33 57.2856L1071.1 58.8306L1071.1 58.8087C1071.14 59.3147 1071.21 59.818 1071.3 60.3157L1071.29 60.2934L1066.12 63.2784C1065.92 63.3957 1065.74 63.5524 1065.6 63.7388C1065.45 63.9253 1065.35 64.138 1065.29 64.3652C1065.22 64.5928 1065.21 64.8296 1065.24 65.0629C1065.27 65.2961 1065.35 65.5207 1065.46 65.7246L1067.55 69.3439C1067.79 69.7553 1068.18 70.0555 1068.64 70.1785C1069.1 70.302 1069.59 70.2376 1070 70.0004L1075.17 67.0154L1075.16 66.9882C1075.54 67.3248 1075.95 67.6365 1076.37 67.9209L1076.34 67.9131L1074.8 73.6796C1074.73 73.9067 1074.72 74.1435 1074.75 74.3768C1074.78 74.6101 1074.86 74.8346 1074.97 75.0386C1075.09 75.2421 1075.25 75.4207 1075.44 75.5638C1075.62 75.7074 1075.83 75.8124 1076.06 75.8733L1080.1 76.9548C1080.33 77.0156 1080.56 77.0314 1080.8 77.0008C1081.03 76.9701 1081.25 76.8935 1081.46 76.7762C1081.66 76.6585 1081.84 76.5018 1081.98 76.3153C1082.13 76.1284 1082.23 75.9157 1082.29 75.6886L1083.84 69.922L1083.81 69.9142C1084.32 69.88 1084.83 69.8131 1085.33 69.7137L1085.3 69.7295L1088.28 74.8994C1088.4 75.103 1088.56 75.282 1088.75 75.4251C1088.93 75.5686 1089.14 75.6737 1089.37 75.7345C1089.6 75.7954 1089.84 75.8111 1090.07 75.7805C1090.3 75.7499 1090.53 75.6737 1090.73 75.556L1094.35 73.4664C1094.55 73.3487 1094.73 73.1924 1094.88 73.006C1095.02 72.8191 1095.12 72.6064 1095.19 72.3792C1095.25 72.1516 1095.26 71.9148 1095.23 71.6815C1095.2 71.4483 1095.12 71.2233 1095.01 71.0198L1092.02 65.8498L1092 65.8629C1092.33 65.4813 1092.64 65.0782 1092.93 64.6571L1092.92 64.6794L1098.69 66.2249C1099.15 66.3475 1099.63 66.2831 1100.05 66.0459C1100.46 65.8082 1100.76 65.4169 1100.88 64.9582L1101.96 60.9219C1102.08 60.4632 1102.02 59.9756 1101.78 59.5651C1101.54 59.155 1101.15 58.8551 1100.69 58.7326Z" stroke="#1E223B" stroke-width="0.875374" stroke-linecap="round" stroke-linejoin="round"/>
<path d="M980.899 50.9155H969.431L957.465 58.8932V50.9155H948.989C947.931 50.9155 946.916 50.4953 946.168 49.7473C945.42 48.9993 945 47.9847 945 46.9268V24.9886C945 23.9312 945.42 22.9166 946.168 22.1686C946.916 21.4206 947.931 21 948.989 21H980.899C981.423 21 981.941 21.1033 982.425 21.3038C982.909 21.5042 983.349 21.7979 983.719 22.1682C984.09 22.5385 984.384 22.9783 984.584 23.4624C984.784 23.9465 984.888 24.4652 984.888 24.9886V46.9268C984.888 47.4507 984.784 47.9694 984.584 48.4535C984.384 48.9376 984.09 49.377 983.719 49.7477C983.349 50.118 982.909 50.4117 982.425 50.6121C981.941 50.8126 981.423 50.9159 980.899 50.9155Z" fill="white"/>
<path d="M980.899 50.9155H969.431L957.465 58.8932V50.9155H948.989C947.931 50.9155 946.916 50.4953 946.168 49.7473C945.42 48.9993 945 47.9847 945 46.9268V24.9886C945 23.9312 945.42 22.9166 946.168 22.1686C946.916 21.4206 947.931 21 948.989 21H980.899C981.423 21 981.941 21.1033 982.425 21.3038C982.909 21.5042 983.349 21.7979 983.719 22.1682C984.09 22.5385 984.384 22.9783 984.584 23.4624C984.784 23.9465 984.888 24.4652 984.888 24.9886V46.9268C984.888 47.4507 984.784 47.9694 984.584 48.4535C984.384 48.9376 984.09 49.377 983.719 49.7477C983.349 50.118 982.909 50.4117 982.425 50.6121C981.941 50.8126 981.423 50.9159 980.899 50.9155Z" stroke="#1E223B" stroke-width="0.875374" stroke-linecap="round" stroke-linejoin="round"/>
<path opacity="0.5" d="M916.582 33.3707H924.008L931.755 38.5354V33.3707H937.241C937.926 33.3707 938.583 33.0989 939.067 32.6144C939.551 32.1303 939.824 31.4733 939.824 30.7884V16.5824C939.824 15.8978 939.551 15.2408 939.067 14.7563C938.583 14.2722 937.926 14 937.241 14H916.582C915.897 14 915.241 14.2722 914.756 14.7563C914.272 15.2408 914 15.8978 914 16.5824V30.7875C914 31.1267 914.067 31.4628 914.197 31.7762C914.326 32.0896 914.516 32.3745 914.756 32.6144C914.996 32.8542 915.281 33.0442 915.594 33.1742C915.907 33.3042 916.243 33.3707 916.582 33.3707Z" fill="white"/>
<path d="M916.582 33.3707H924.008L931.755 38.5354V33.3707H937.241C937.926 33.3707 938.583 33.0989 939.067 32.6144C939.551 32.1303 939.824 31.4733 939.824 30.7884V16.5824C939.824 15.8978 939.551 15.2408 939.067 14.7563C938.583 14.2722 937.926 14 937.241 14H916.582C915.897 14 915.241 14.2722 914.756 14.7563C914.272 15.2408 914 15.8978 914 16.5824V30.7875C914 31.1267 914.067 31.4628 914.197 31.7762C914.326 32.0896 914.516 32.3745 914.756 32.6144C914.996 32.8542 915.281 33.0442 915.594 33.1742C915.907 33.3042 916.243 33.3707 916.582 33.3707Z" stroke="#1E223B" stroke-width="0.875374" stroke-linecap="round" stroke-linejoin="round"/>
<path d="M693.656 99.84L705.936 92.7031L705.899 106.054L693.618 113.19L693.656 99.84Z" fill="#777BB4"/>
<path d="M693.656 99.84L705.936 92.7031L705.899 106.054L693.618 113.19L693.656 99.84Z" stroke="#1E223B" stroke-width="0.875374" stroke-linecap="round" stroke-linejoin="round"/>
<path opacity="0.88" d="M682.038 93.133L694.318 85.9961L705.937 92.7041L693.656 99.841L682.038 93.133Z" fill="#FF5855" stroke="#1E223B" stroke-width="0.437687" stroke-miterlimit="10"/>
<path d="M693.656 99.8408L693.618 113.191L682 106.483L682.038 93.1328L693.656 99.8408Z" fill="#0270BB"/>
<path d="M682.038 93.133L694.318 85.9961L705.937 92.7041L693.656 99.841L682.038 93.133Z" stroke="#1E223B" stroke-width="0.875374" stroke-linecap="round" stroke-linejoin="round"/>
<path d="M693.656 99.8408L693.618 113.191L682 106.483L682.038 93.1328L693.656 99.8408Z" stroke="#1E223B" stroke-width="0.875374" stroke-linecap="round" stroke-linejoin="round"/>
<path opacity="0.59" d="M684.646 81.0101C686.096 81.0101 687.272 79.8344 687.272 78.3839C687.272 76.9339 686.096 75.7578 684.646 75.7578C683.195 75.7578 682.02 76.9339 682.02 78.3839C682.02 79.8344 683.195 81.0101 684.646 81.0101Z" fill="white"/>
<path d="M684.646 81.0101C686.096 81.0101 687.272 79.8344 687.272 78.3839C687.272 76.9339 686.096 75.7578 684.646 75.7578C683.195 75.7578 682.02 76.9339 682.02 78.3839C682.02 79.8344 683.195 81.0101 684.646 81.0101Z" stroke="#1E223B" stroke-width="0.875374" stroke-linecap="round" stroke-linejoin="round"/>
<path opacity="0.59" d="M693.618 81.0101C695.069 81.0101 696.244 79.8344 696.244 78.3839C696.244 76.9339 695.069 75.7578 693.618 75.7578C692.168 75.7578 690.992 76.9339 690.992 78.3839C690.992 79.8344 692.168 81.0101 693.618 81.0101Z" fill="white"/>
<path d="M693.618 81.0101C695.069 81.0101 696.244 79.8344 696.244 78.3839C696.244 76.9339 695.069 75.7578 693.618 75.7578C692.168 75.7578 690.992 76.9339 690.992 78.3839C690.992 79.8344 692.168 81.0101 693.618 81.0101Z" stroke="#1E223B" stroke-width="0.875374" stroke-linecap="round" stroke-linejoin="round"/>
<path opacity="0.59" d="M702.591 81.0101C704.041 81.0101 705.217 79.8344 705.217 78.3839C705.217 76.9339 704.041 75.7578 702.591 75.7578C701.14 75.7578 699.965 76.9339 699.965 78.3839C699.965 79.8344 701.14 81.0101 702.591 81.0101Z" fill="white"/>
<path opacity="0.32" d="M1111.68 148.577C1121.23 148.577 1128.97 140.837 1128.97 131.289C1128.97 121.74 1121.23 114 1111.68 114C1102.14 114 1094.39 121.74 1094.39 131.289C1094.39 140.837 1102.14 148.577 1111.68 148.577Z" fill="white"/>
<path d="M702.591 81.0101C704.041 81.0101 705.217 79.8344 705.217 78.3839C705.217 76.9339 704.041 75.7578 702.591 75.7578C701.14 75.7578 699.965 76.9339 699.965 78.3839C699.965 79.8344 701.14 81.0101 702.591 81.0101Z" stroke="#1E223B" stroke-width="0.875374" stroke-linecap="round" stroke-linejoin="round"/>
<path opacity="0.12" d="M1111.92 131.478L1102.58 126.051L1102.61 136.204L1111.95 141.632L1111.92 131.478Z" fill="#0270BB"/>
<path d="M1111.92 131.478L1102.58 126.051L1102.61 136.204L1111.95 141.632L1111.92 131.478Z" stroke="#1E223B" stroke-width="0.875374" stroke-linecap="round" stroke-linejoin="round"/>
<path opacity="0.47" d="M1120.76 126.373L1111.42 120.945L1102.58 126.047L1111.92 131.474L1120.76 126.373Z" fill="#0270BB"/>
<path d="M1120.76 126.373L1111.42 120.945L1102.58 126.047L1111.92 131.474L1120.76 126.373Z" stroke="#1E223B" stroke-width="0.875374" stroke-linecap="round" stroke-linejoin="round"/>
<path d="M1111.92 131.476L1111.95 141.63L1120.79 136.528L1120.76 126.375L1111.92 131.476Z" fill="white" stroke="#1E223B" stroke-width="0.875374" stroke-linecap="round" stroke-linejoin="round"/>
<path d="M1111.92 131.476L1111.95 141.63L1120.79 136.528L1120.76 126.375L1111.92 131.476Z" stroke="#1E223B" stroke-width="0.875374" stroke-linecap="round" stroke-linejoin="round"/>
<path d="M1111.68 148.577C1121.23 148.577 1128.97 140.837 1128.97 131.289C1128.97 121.74 1121.23 114 1111.68 114C1102.14 114 1094.39 121.74 1094.39 131.289C1094.39 140.837 1102.14 148.577 1111.68 148.577Z" stroke="#1E223B" stroke-width="0.875374" stroke-linecap="round" stroke-linejoin="round"/>
<path d="M1031.14 76.1367H991.932C989.058 76.1367 986.728 78.4661 986.728 81.3404V96.9505C986.728 99.8243 989.058 102.154 991.932 102.154H1031.14C1034.01 102.154 1036.34 99.8243 1036.34 96.9505V81.3404C1036.34 78.4661 1034.01 76.1367 1031.14 76.1367Z" fill="#777BB4"/>
<path d="M1031.14 76.1367H991.932C989.058 76.1367 986.728 78.4661 986.728 81.3404V96.9505C986.728 99.8243 989.058 102.154 991.932 102.154H1031.14C1034.01 102.154 1036.34 99.8243 1036.34 96.9505V81.3404C1036.34 78.4661 1034.01 76.1367 1031.14 76.1367Z" stroke="#1E223B" stroke-width="0.875374" stroke-linecap="round" stroke-linejoin="round"/>
<path d="M953.557 29.7812H977.192" stroke="#1E223B" stroke-width="1.31306" stroke-linecap="round" stroke-linejoin="round"/>
<path d="M953.557 35.6875H971.939" stroke="#1E223B" stroke-width="1.31306" stroke-linecap="round" stroke-linejoin="round"/>
<path d="M953.557 41.5977H964.061" stroke="#1E223B" stroke-width="1.31306" stroke-linecap="round" stroke-linejoin="round"/>
<path d="M920.439 21.4844H932.257" stroke="#1E223B" stroke-width="1.31306" stroke-linecap="round" stroke-linejoin="round"/>
<path d="M920.439 24.5469H927.88" stroke="#1E223B" stroke-width="1.31306" stroke-linecap="round" stroke-linejoin="round"/>
<path d="M984.888 36.1836H986.201" stroke="#1E223B" stroke-width="0.875374" stroke-linecap="round" stroke-linejoin="round"/>
<path d="M989.675 36.1836H999.398C1004.01 36.1836 1008.44 38.0171 1011.7 41.2813C1014.97 44.5452 1016.8 48.9719 1016.8 53.5878C1016.8 55.8734 1016.35 58.1367 1015.48 60.2481C1014.6 62.3595 1013.32 64.2783 1011.7 65.8942C1010.09 67.5106 1008.17 68.7926 1006.06 69.6671C1003.95 70.5416 1001.68 70.992 999.398 70.992H970.702C968.134 70.992 965.592 71.4975 963.22 72.4801C960.847 73.4627 958.692 74.9027 956.876 76.7182C955.061 78.5337 953.62 80.6894 952.638 83.0616C951.655 85.4339 951.149 87.9764 951.149 90.5439V92.7061" stroke="#1E223B" stroke-width="0.875374" stroke-linecap="round" stroke-linejoin="round" stroke-dasharray="2.6 3.48"/>
<path d="M908.378 110.391V111.704" stroke="#1E223B" stroke-width="0.875374" stroke-linecap="round" stroke-linejoin="round"/>
<path d="M779.198 125.406H834.146" stroke="#1E223B" stroke-width="0.875374" stroke-linecap="round" stroke-linejoin="round" stroke-dasharray="2.63 3.5"/>
<path d="M705.914 100.703H717.403C722.64 100.703 727.662 98.6227 731.366 94.9199C735.068 91.2171 737.149 86.1946 737.149 80.9577V72.6443C737.149 67.4345 739.218 62.4378 742.902 58.7538C746.586 55.0698 751.583 53.0004 756.793 53H789.972" stroke="#1E223B" stroke-width="0.875374" stroke-linecap="round" stroke-linejoin="round"/>
<path d="M836.069 53.543H842.002C846.141 53.5434 850.11 55.1874 853.036 58.1137C855.963 61.0401 857.607 65.0095 857.607 69.1478C857.607 71.1971 858.01 73.2262 858.794 75.1196C859.579 77.0131 860.728 78.7332 862.177 80.1823C863.626 81.6311 865.347 82.7805 867.24 83.5648C869.133 84.3487 871.162 84.7527 873.211 84.7522H881.832C885.97 84.7527 889.939 86.3966 892.866 89.323C895.792 92.2494 897.436 96.2188 897.436 100.357V111.702" stroke="#1E223B" stroke-width="0.875374" stroke-linecap="round" stroke-linejoin="round" stroke-dasharray="2.63 3.5"/>
<path d="M974.031 157.655H997.024C999.022 157.655 1001 157.262 1002.85 156.498C1004.69 155.733 1006.37 154.612 1007.78 153.199C1009.2 151.786 1010.32 150.109 1011.08 148.263C1011.85 146.417 1012.24 144.438 1012.24 142.44V102.152" stroke="#1E223B" stroke-width="0.875374" stroke-linecap="round" stroke-linejoin="round"/>
<path d="M1012 131.477H1094.39" stroke="#1E223B" stroke-width="0.875374" stroke-linecap="round" stroke-linejoin="round" stroke-dasharray="2.63 3.5"/>
<path d="M966.153 72.2539H842.725C838.374 72.2539 834.847 75.7812 834.847 80.1323V165.919C834.847 170.27 838.374 173.797 842.725 173.797H966.153C970.504 173.797 974.031 170.27 974.031 165.919V80.1323C974.031 75.7812 970.504 72.2539 966.153 72.2539Z" fill="#2F4584"/>
<path d="M966.153 72.2539H842.725C838.374 72.2539 834.847 75.7812 834.847 80.1323V165.919C834.847 170.27 838.374 173.797 842.725 173.797H966.153C970.504 173.797 974.031 170.27 974.031 165.919V80.1323C974.031 75.7812 970.504 72.2539 966.153 72.2539Z" stroke="#1E223B" stroke-width="0.875374" stroke-linecap="round" stroke-linejoin="round"/>
<path d="M971.406 165.918V80.1311C971.406 77.2306 969.054 74.8789 966.154 74.8789H842.726C839.825 74.8789 837.474 77.2306 837.474 80.1311V165.918C837.474 168.819 839.825 171.17 842.726 171.17H966.154C969.054 171.17 971.406 168.819 971.406 165.918Z" fill="white"/>
<path d="M960.901 160.665V85.3828H847.978V160.665H960.901Z" fill="#FF5855" stroke="#1E223B" stroke-width="0.437687" stroke-miterlimit="10"/>
<path d="M971.406 165.918V80.1311C971.406 77.2306 969.054 74.8789 966.154 74.8789H842.726C839.825 74.8789 837.474 77.2306 837.474 80.1311V165.918C837.474 168.819 839.825 171.17 842.726 171.17H966.154C969.054 171.17 971.406 168.819 971.406 165.918Z" stroke="#1E223B" stroke-width="0.875374" stroke-linecap="round" stroke-linejoin="round"/>
<path d="M960.901 160.665V85.3828H847.978V160.665H960.901Z" stroke="#1E223B" stroke-width="0.875374" stroke-linecap="round" stroke-linejoin="round"/>
<g style="mix-blend-mode:multiply" opacity="0.11">
<g style="mix-blend-mode:multiply" opacity="0.11">
<path d="M948.646 61.75H866.36C864.91 61.75 863.734 62.9261 863.734 64.3761V157.166C863.734 158.616 864.91 159.792 866.36 159.792H948.646C950.096 159.792 951.272 158.616 951.272 157.166V64.3761C951.272 62.9261 950.096 61.75 948.646 61.75Z" fill="#161616"/>
</g>
<g style="mix-blend-mode:multiply" opacity="0.11">
<path d="M948.646 61.75H866.36C864.91 61.75 863.734 62.9261 863.734 64.3761V157.166C863.734 158.616 864.91 159.792 866.36 159.792H948.646C950.096 159.792 951.272 158.616 951.272 157.166V64.3761C951.272 62.9261 950.096 61.75 948.646 61.75Z" stroke="#1E223B" stroke-width="0.437687" stroke-miterlimit="10"/>
</g>
</g>
<path d="M946.238 60H863.953C862.503 60 861.327 61.1761 861.327 62.6261V155.416C861.327 156.866 862.503 158.042 863.953 158.042H946.238C947.689 158.042 948.865 156.866 948.865 155.416V62.6261C948.865 61.1761 947.689 60 946.238 60Z" fill="white"/>
<path d="M861.327 143.16H948.865V155.415C948.865 156.112 948.588 156.78 948.096 157.272C947.603 157.765 946.935 158.042 946.238 158.042H863.953C863.257 158.042 862.589 157.765 862.096 157.272C861.604 156.78 861.327 156.112 861.327 155.415V143.16Z" fill="#EFEFEF"/>
<path d="M946.238 60H863.953C862.503 60 861.327 61.1761 861.327 62.6261V155.416C861.327 156.866 862.503 158.042 863.953 158.042H946.238C947.689 158.042 948.865 156.866 948.865 155.416V62.6261C948.865 61.1761 947.689 60 946.238 60Z" stroke="#1E223B" stroke-width="0.875374" stroke-linecap="round" stroke-linejoin="round"/>
<path d="M863.702 60H946.489C946.801 60 947.11 60.0617 947.398 60.1812C947.687 60.3003 947.948 60.4753 948.169 60.6959C948.39 60.9165 948.564 61.1787 948.684 61.4667C948.803 61.7551 948.865 62.0641 948.865 62.3758V67.8788H861.327V62.3758C861.327 62.0641 861.388 61.7551 861.508 61.4667C861.627 61.1787 861.802 60.9165 862.023 60.6959C862.243 60.4753 862.505 60.3003 862.793 60.1812C863.081 60.0617 863.39 60 863.702 60Z" fill="#363D56"/>
<path d="M863.702 60H946.489C946.801 60 947.11 60.0617 947.398 60.1812C947.687 60.3003 947.948 60.4753 948.169 60.6959C948.39 60.9165 948.564 61.1787 948.684 61.4667C948.803 61.7551 948.865 62.0641 948.865 62.3758V67.8788H861.327V62.3758C861.327 62.0641 861.388 61.7551 861.508 61.4667C861.627 61.1787 861.802 60.9165 862.023 60.6959C862.243 60.4753 862.505 60.3003 862.793 60.1812C863.081 60.0617 863.39 60 863.702 60Z" stroke="#1E223B" stroke-width="0.875374" stroke-linecap="round" stroke-linejoin="round"/>
<path d="M948.865 67.8789H861.327V71.3804H948.865V67.8789Z" fill="#424960"/>
<path d="M948.865 67.8789H861.327V71.3804H948.865V67.8789Z" stroke="#1E223B" stroke-width="0.875374" stroke-linecap="round" stroke-linejoin="round"/>
<path d="M871.584 65.2511C872.309 65.2511 872.897 64.6633 872.897 63.9381C872.897 63.2128 872.309 62.625 871.584 62.625C870.859 62.625 870.271 63.2128 870.271 63.9381C870.271 64.6633 870.859 65.2511 871.584 65.2511Z" fill="#383838"/>
<path d="M871.584 65.2511C872.309 65.2511 872.897 64.6633 872.897 63.9381C872.897 63.2128 872.309 62.625 871.584 62.625C870.859 62.625 870.271 63.2128 870.271 63.9381C870.271 64.6633 870.859 65.2511 871.584 65.2511Z" stroke="#1E223B" stroke-width="0.875374" stroke-linecap="round" stroke-linejoin="round"/>
<path d="M876.498 65.2511C877.223 65.2511 877.811 64.6633 877.811 63.9381C877.811 63.2128 877.223 62.625 876.498 62.625C875.773 62.625 875.185 63.2128 875.185 63.9381C875.185 64.6633 875.773 65.2511 876.498 65.2511Z" fill="#C6C6C6"/>
<path d="M876.498 65.2511C877.223 65.2511 877.811 64.6633 877.811 63.9381C877.811 63.2128 877.223 62.625 876.498 62.625C875.773 62.625 875.185 63.2128 875.185 63.9381C875.185 64.6633 875.773 65.2511 876.498 65.2511Z" stroke="#1E223B" stroke-width="0.875374" stroke-linecap="round" stroke-linejoin="round"/>
<path opacity="0.28" d="M911.004 62.625H883.868C883.143 62.625 882.555 63.2128 882.555 63.9381C882.555 64.6633 883.143 65.2511 883.868 65.2511H911.004C911.73 65.2511 912.317 64.6633 912.317 63.9381C912.317 63.2128 911.73 62.625 911.004 62.625Z" fill="#8289A3"/>
<g opacity="0.32">
<path opacity="0.32" d="M878.809 89.4493C880.675 89.4493 882.188 87.9362 882.188 86.0704C882.188 84.2041 880.675 82.6914 878.809 82.6914C876.943 82.6914 875.43 84.2041 875.43 86.0704C875.43 87.9362 876.943 89.4493 878.809 89.4493Z" stroke="#1E223B" stroke-width="0.437687" stroke-linecap="round" stroke-linejoin="round"/>
<path opacity="0.32" d="M878.809 87.5177C879.609 87.5177 880.257 86.8695 880.257 86.0694C880.257 85.2697 879.609 84.6211 878.809 84.6211C878.009 84.6211 877.361 85.2697 877.361 86.0694C877.361 86.8695 878.009 87.5177 878.809 87.5177Z" stroke="#1E223B" stroke-width="0.437687" stroke-linecap="round" stroke-linejoin="round"/>
<path opacity="0.32" d="M885.958 86.3603L883.626 85.7358V85.7419C883.612 85.5397 883.586 85.3383 883.547 85.1396L883.55 85.1445L885.64 83.9377C885.806 83.841 885.927 83.683 885.976 83.4974C886.025 83.3119 885.999 83.1145 885.903 82.9486L885.058 81.4858C885.01 81.4031 884.947 81.3309 884.872 81.2731C884.796 81.2153 884.711 81.1729 884.619 81.1479C884.527 81.1234 884.431 81.1173 884.337 81.1296C884.243 81.1418 884.152 81.1729 884.069 81.2206L881.979 82.4273V82.4304C881.827 82.2982 881.668 82.1756 881.501 82.0636H881.504L882.129 79.732C882.179 79.5464 882.152 79.3486 882.056 79.1823C881.961 79.0164 881.803 78.8947 881.617 78.8453L879.985 78.4076C879.799 78.3577 879.602 78.3839 879.436 78.4798C879.269 78.5761 879.148 78.7341 879.098 78.9197L878.473 81.2508H878.477C878.276 81.2643 878.077 81.2906 877.879 81.3296H877.882L876.675 79.2396C876.579 79.0733 876.421 78.9516 876.236 78.9022C876.05 78.8523 875.853 78.8781 875.686 78.9744L874.223 79.8191C874.057 79.915 873.936 80.0734 873.886 80.2585C873.836 80.4441 873.862 80.642 873.958 80.8083L875.165 82.8987L875.17 82.8956C875.037 83.0479 874.913 83.209 874.8 83.3771V83.3709L872.469 82.7464C872.377 82.7214 872.282 82.7153 872.187 82.7275C872.093 82.7402 872.002 82.7709 871.92 82.8186C871.837 82.8663 871.766 82.9293 871.707 83.005C871.65 83.0803 871.607 83.1665 871.583 83.2585L871.145 84.8901C871.095 85.0757 871.121 85.2731 871.217 85.4394C871.313 85.6058 871.471 85.7274 871.657 85.7773L873.988 86.4019L873.991 86.3927C874.004 86.5971 874.031 86.8007 874.071 87.002L874.066 86.9932L871.976 88.1999C871.893 88.2472 871.821 88.3107 871.763 88.386C871.705 88.4617 871.663 88.5475 871.638 88.6394C871.614 88.7313 871.608 88.8272 871.62 88.9213C871.632 89.0158 871.663 89.1064 871.711 89.1891L872.556 90.6519C872.603 90.7341 872.666 90.8064 872.742 90.8641C872.817 90.9219 872.903 90.9648 872.995 90.9893C873.087 91.0138 873.183 91.02 873.277 91.0077C873.371 90.9955 873.462 90.9644 873.545 90.9171L875.635 89.7104L875.629 89.6995C875.784 89.8356 875.948 89.9612 876.12 90.0763L876.108 90.0732L875.483 92.4048C875.459 92.4963 875.452 92.5921 875.465 92.6867C875.477 92.7808 875.508 92.8718 875.555 92.9541C875.603 93.0364 875.667 93.1086 875.742 93.1664C875.817 93.2241 875.903 93.2666 875.995 93.2916L877.627 93.7292C877.813 93.7787 878.01 93.7524 878.176 93.6566C878.343 93.5607 878.464 93.4023 878.514 93.2172L879.141 90.8856L879.129 90.8825C879.335 90.8685 879.54 90.8414 879.742 90.8016L879.731 90.8081L880.938 92.8981C881.034 93.0644 881.192 93.1856 881.377 93.2351C881.563 93.285 881.761 93.2592 881.927 93.1633L883.39 92.3186C883.556 92.2223 883.678 92.0643 883.727 91.8787C883.777 91.6931 883.751 91.4957 883.655 91.3294L882.448 89.239L882.439 89.2443C882.574 89.0898 882.699 88.9269 882.814 88.7571V88.7659L885.145 89.3909C885.33 89.4404 885.528 89.4141 885.694 89.3182C885.86 89.2224 885.982 89.0639 886.031 88.8788L886.469 87.2467C886.519 87.0611 886.493 86.8637 886.397 86.6974C886.301 86.531 886.143 86.4098 885.958 86.3603Z" stroke="#1E223B" stroke-width="0.437687" stroke-linecap="round" stroke-linejoin="round"/>
</g>
<path opacity="0.32" d="M888.683 84.5078H929.825" stroke="#1E223B" stroke-width="0.875374" stroke-linecap="round" stroke-linejoin="round"/>
<path opacity="0.32" d="M888.683 88.0117H914.944" stroke="#1E223B" stroke-width="0.875374" stroke-linecap="round" stroke-linejoin="round"/>
<path opacity="0.15" d="M876.427 105.082H917.57" stroke="#1E223B" stroke-width="0.875374" stroke-linecap="round" stroke-linejoin="round"/>
<path opacity="0.32" d="M876.427 108.871H902.688" stroke="#1E223B" stroke-width="0.875374" stroke-linecap="round" stroke-linejoin="round"/>
<path opacity="0.32" d="M897.436 112.668H912.755" stroke="#1E223B" stroke-width="0.875374" stroke-linecap="round" stroke-linejoin="round"/>
<path opacity="0.26" d="M876.427 112.668H894.81" stroke="#1E223B" stroke-width="0.875374" stroke-linecap="round" stroke-linejoin="round"/>
<path opacity="0.15" d="M876.427 116.461H892.184" stroke="#1E223B" stroke-width="0.875374" stroke-linecap="round" stroke-linejoin="round"/>
<path d="M878.178 123.609C877.714 123.609 877.268 123.794 876.94 124.122C876.612 124.451 876.427 124.896 876.427 125.36C876.427 125.825 876.612 126.27 876.94 126.598C877.268 126.927 877.714 127.111 878.178 127.111H913.485V123.609H878.178Z" fill="#4AD3A5" stroke="#1E223B" stroke-width="0.437687" stroke-miterlimit="10"/>
<path d="M933.327 123.609H878.178C877.211 123.609 876.427 124.393 876.427 125.36C876.427 126.327 877.211 127.111 878.178 127.111H933.327C934.293 127.111 935.077 126.327 935.077 125.36C935.077 124.393 934.293 123.609 933.327 123.609Z" stroke="#1E223B" stroke-width="0.437687" stroke-linecap="round" stroke-linejoin="round"/>
</g>
<defs>
<clipPath id="clip0_414_18286">
<rect width="1200" height="150" rx="20" fill="white"/>
</clipPath>
</defs>
</svg>
