<svg width="1200" height="150" viewBox="0 0 1200 150" fill="none" xmlns="http://www.w3.org/2000/svg">
<g clip-path="url(#clip0_116_19096)">
<rect width="1200" height="150" rx="10" fill="white"/>
<path opacity="0.3" d="M1218.21 36.005H1211.34C1209.5 35.9555 1207.68 36.2744 1205.97 36.9428C1204.25 37.6113 1202.69 38.6158 1201.38 39.8971C1200.06 41.1783 1199.02 42.7103 1198.3 44.4026C1197.59 46.0949 1197.22 47.9131 1197.22 49.75C1197.22 51.5869 1197.59 53.4052 1198.3 55.0974C1199.02 56.7897 1200.06 58.3217 1201.38 59.6029C1202.69 60.8842 1204.25 61.8887 1205.97 62.5572C1207.68 63.2256 1209.5 63.5445 1211.34 63.495H1218.21C1221.79 63.3984 1225.19 61.9079 1227.69 59.3407C1230.19 56.7736 1231.59 53.3325 1231.59 49.75C1231.59 46.1675 1230.19 42.7264 1227.69 40.1593C1225.19 37.5921 1221.79 36.1016 1218.21 36.005V36.005Z" fill="#FFE2D1"/>
<path opacity="0.3" d="M905.61 90.9844H898.74C895.096 90.9844 891.601 92.432 889.024 95.0087C886.448 97.5855 885 101.08 885 104.724C885 108.368 886.448 111.863 889.024 114.44C891.601 117.017 895.096 118.464 898.74 118.464H905.61C909.254 118.464 912.749 117.017 915.326 114.44C917.902 111.863 919.35 108.368 919.35 104.724C919.35 101.08 917.902 97.5855 915.326 95.0087C912.749 92.432 909.254 90.9844 905.61 90.9844Z" fill="#FFE2D1"/>
<path opacity="0.3" d="M1205.03 90.985H1149.49C1145.91 90.8884 1142.51 89.3979 1140.01 86.8307C1137.51 84.2636 1136.11 80.8225 1136.11 77.24C1136.11 73.6575 1137.51 70.2164 1140.01 67.6493C1142.51 65.0821 1145.91 63.5916 1149.49 63.495H1171.49C1173.33 63.5445 1175.15 63.2256 1176.86 62.5572C1178.58 61.8887 1180.14 60.8842 1181.45 59.6029C1182.77 58.3217 1183.81 56.7897 1184.53 55.0974C1185.24 53.4052 1185.61 51.5869 1185.61 49.75C1185.61 47.9131 1185.24 46.0949 1184.53 44.4026C1183.81 42.7103 1182.77 41.1783 1181.45 39.8971C1180.14 38.6158 1178.58 37.6113 1176.86 36.9428C1175.15 36.2744 1173.33 35.9555 1171.49 36.005H1000.21C996.629 36.1016 993.227 37.5921 990.728 40.1593C988.229 42.7264 986.831 46.1675 986.831 49.75C986.831 53.3325 988.229 56.7736 990.728 59.3407C993.227 61.9079 996.629 63.3984 1000.21 63.495H1029.38C1031.22 63.4455 1033.04 63.7643 1034.75 64.4328C1036.47 65.1013 1038.03 66.1058 1039.34 67.3871C1040.66 68.6683 1041.7 70.2003 1042.42 71.8926C1043.13 73.5849 1043.5 75.4031 1043.5 77.24C1043.5 79.0769 1043.13 80.8951 1042.42 82.5874C1041.7 84.2797 1040.66 85.8117 1039.34 87.093C1038.03 88.3742 1036.47 89.3787 1034.75 90.0472C1033.04 90.7157 1031.22 91.0345 1029.38 90.985H945.45C941.806 90.985 938.311 92.4326 935.734 95.0093C933.158 97.5861 931.71 101.081 931.71 104.725C931.71 108.369 933.158 111.864 935.734 114.441C938.311 117.017 941.806 118.465 945.45 118.465H1205.01C1208.65 118.465 1212.15 117.017 1214.73 114.441C1217.3 111.864 1218.75 108.369 1218.75 104.725C1218.75 101.081 1217.3 97.5861 1214.73 95.0093C1212.15 92.4326 1208.65 90.985 1205.01 90.985H1205.03Z" fill="#FFE2D1"/>
<path d="M1068.07 83.7493L1056.29 84.1278C1056.02 84.1363 1055.75 84.091 1055.51 83.9947C1055.26 83.8984 1055.03 83.753 1054.84 83.5672C1054.65 83.3814 1054.49 83.159 1054.39 82.9131C1054.29 82.6672 1054.23 82.4029 1054.23 82.1359C1054.23 81.6188 1054.43 81.1219 1054.79 80.7504C1055.15 80.3789 1055.64 80.1618 1056.16 80.1451L1067.94 79.7666C1068.21 79.7582 1068.48 79.8034 1068.73 79.8997C1068.97 79.996 1069.2 80.1413 1069.39 80.3271C1069.59 80.5129 1069.74 80.7354 1069.84 80.9813C1069.95 81.2272 1070 81.4915 1070 81.7585C1070 82.2757 1069.8 82.7726 1069.44 83.1441C1069.08 83.5156 1068.59 83.7326 1068.07 83.7493Z" fill="#1C1C1C"/>
<path d="M889.273 90.1315L872.982 90.7801C872.725 90.7903 872.469 90.7485 872.229 90.6574C871.989 90.5662 871.77 90.4276 871.585 90.2497C871.4 90.0718 871.253 89.8583 871.152 89.6221C871.052 89.3859 871 89.1319 871 88.8752C871 88.3829 871.191 87.9098 871.532 87.5549C871.873 87.2 872.338 86.9909 872.83 86.9714L889.124 86.3217C889.38 86.3118 889.637 86.3539 889.877 86.4455C890.117 86.537 890.336 86.6761 890.521 86.8545C890.706 87.0328 890.853 87.2467 890.953 87.4832C891.053 87.7198 891.105 87.9742 891.104 88.2312V88.2312C891.103 88.7229 890.912 89.1952 890.57 89.5493C890.229 89.9034 889.764 90.112 889.273 90.1315V90.1315Z" fill="#FF6E17"/>
<path d="M1026.72 89.0205L918.628 93.3432C905.818 93.855 895.155 83.6097 895.155 70.7895C895.154 64.9588 897.41 59.354 901.449 55.1494C905.489 50.9447 910.999 48.4663 916.825 48.2334L1024.91 43.913C1037.74 43.4 1048.4 53.6646 1048.39 66.4961C1048.38 72.3212 1046.12 77.918 1042.08 82.1159C1038.04 86.3138 1032.54 88.7878 1026.72 89.0205V89.0205Z" fill="#FF6E17"/>
<path d="M916.967 63.8126L921.513 63.6172V74.1495L928.775 73.8377V77.4531L916.967 77.9604V63.8126Z" fill="white"/>
<path d="M930.688 63.2246L942.929 62.6992V66.0887L935.234 66.4186V68.3732L941.818 68.0908V71.3402L935.234 71.6226V73.7829L943.073 73.4439V76.8334L930.688 77.3656V63.2246Z" fill="white"/>
<path d="M949.388 76.5739L944.372 62.6363L949.231 62.4284L952.069 71.7687H952.151L955.011 62.1832L959.66 61.9844L954.654 76.348L949.388 76.5739Z" fill="white"/>
<path d="M961.546 61.9043L973.787 61.3789V64.7684L966.091 65.0983V67.0529L972.675 66.7705V70.0199L966.091 70.3023V72.4626L973.93 72.1236V75.5131L961.546 76.0442V61.9043Z" fill="white"/>
<path d="M976.4 61.2619L980.945 61.0664V71.5987L988.21 71.2824V74.8978L976.402 75.404L976.4 61.2619Z" fill="white"/>
<path d="M1009.23 72.7331C1008.01 73.7997 1006.28 74.3816 1004.03 74.4787C1001.78 74.5759 1000.04 74.1428 998.812 73.1794C997.585 72.2183 996.972 70.7706 996.972 68.8363V60.3818L1001.52 60.1863V68.5788C1001.52 69.3742 1001.73 69.9993 1002.16 70.4543C1002.58 70.9092 1003.2 71.1194 1004.01 71.0847C1004.82 71.0508 1005.44 70.7842 1005.87 70.2848C1006.3 69.7854 1006.52 69.1452 1006.52 68.3641V59.9728L1011.06 59.7773V68.2342C1011.06 70.1662 1010.45 71.6658 1009.23 72.7331Z" fill="white"/>
<path d="M1024.4 59.8096C1025.07 60.1768 1025.63 60.731 1026 61.4061C1026.39 62.1273 1026.59 62.9377 1026.57 63.7584V64.025C1026.58 64.8639 1026.39 65.6921 1026 66.4361C1025.63 67.1502 1025.08 67.7528 1024.4 68.1817C1023.69 68.6216 1022.88 68.8657 1022.05 68.889L1018.66 69.0347V73.6015L1014.11 73.7959V59.6447L1022.05 59.3057C1022.87 59.2542 1023.68 59.4286 1024.4 59.8096V59.8096ZM1018.65 65.7221L1020.53 65.6418C1021.01 65.6215 1021.37 65.4829 1021.61 65.2261C1021.86 64.9447 1021.98 64.5775 1021.97 64.2024V64.0375C1021.97 63.5991 1021.85 63.265 1021.61 63.0353C1021.37 62.8056 1021.01 62.7009 1020.53 62.7212L1018.65 62.8014V65.7221Z" fill="white"/>
<path d="M1035.36 91.6482C1040.51 91.6505 1045.45 93.6735 1049.13 97.2827C1052.81 100.892 1054.92 105.799 1055.02 110.951C1055.12 116.102 1053.19 121.087 1049.66 124.834C1046.12 128.581 1041.26 130.791 1036.11 130.99L909.001 136.041C908.73 136.052 908.459 136.057 908.189 136.057C903.041 136.048 898.102 134.022 894.43 130.413C890.759 126.804 888.648 121.901 888.549 116.754C888.451 111.607 890.374 106.626 893.904 102.88C897.435 99.134 902.293 96.9205 907.437 96.7144L1034.54 91.6652C1034.81 91.6539 1035.08 91.6482 1035.35 91.6482H1035.36ZM1035.35 88.5977C1035.04 88.5977 1034.73 88.6037 1034.42 88.6157L907.316 93.6661C901.374 93.9031 895.761 96.4596 891.681 100.787C887.602 105.115 885.381 110.869 885.495 116.815C885.609 122.762 888.049 128.426 892.292 132.594C896.534 136.762 902.241 139.102 908.189 139.11C908.498 139.11 908.81 139.11 909.121 139.092L1036.23 134.041C1042.17 133.811 1047.79 131.257 1051.88 126.929C1055.97 122.6 1058.19 116.842 1058.08 110.891C1057.96 104.94 1055.52 99.2714 1051.27 95.1029C1047.02 90.9344 1041.31 88.5988 1035.35 88.5977Z" fill="#1C1C1C"/>
<path d="M943.255 121.761L937.154 124.971C937.104 124.997 937.047 125.009 936.99 125.005C936.934 125.001 936.879 124.981 936.833 124.947C936.787 124.914 936.752 124.868 936.73 124.815C936.709 124.763 936.703 124.705 936.712 124.649L937.878 117.852C937.887 117.803 937.883 117.753 937.868 117.706C937.852 117.659 937.826 117.616 937.79 117.582L932.848 112.768C932.808 112.728 932.779 112.678 932.765 112.623C932.752 112.568 932.754 112.51 932.771 112.456C932.789 112.402 932.821 112.354 932.864 112.317C932.908 112.28 932.96 112.256 933.017 112.248L939.842 111.256C939.89 111.248 939.936 111.229 939.975 111.2C940.015 111.171 940.046 111.133 940.068 111.089L943.118 104.904C943.144 104.853 943.183 104.81 943.231 104.78C943.279 104.75 943.335 104.734 943.392 104.734C943.449 104.734 943.504 104.75 943.553 104.78C943.601 104.81 943.64 104.853 943.665 104.904L946.716 111.089C946.738 111.133 946.769 111.171 946.809 111.2C946.848 111.229 946.894 111.248 946.942 111.256L953.766 112.248C953.822 112.256 953.875 112.28 953.919 112.317C953.962 112.353 953.994 112.401 954.012 112.455C954.03 112.509 954.032 112.567 954.018 112.622C954.005 112.678 953.976 112.728 953.936 112.768L949.005 117.582C948.969 117.616 948.943 117.659 948.927 117.706C948.912 117.753 948.908 117.803 948.917 117.852L950.083 124.649C950.092 124.705 950.086 124.763 950.065 124.815C950.043 124.868 950.008 124.914 949.962 124.947C949.916 124.981 949.861 125.001 949.805 125.005C949.748 125.009 949.691 124.997 949.641 124.971L943.54 121.761C943.496 121.738 943.447 121.726 943.398 121.726C943.348 121.726 943.299 121.738 943.255 121.761Z" fill="#FF6E17"/>
<path d="M971.629 120.745L965.528 123.954C965.477 123.981 965.421 123.992 965.364 123.988C965.307 123.984 965.253 123.964 965.207 123.93C965.161 123.897 965.125 123.851 965.104 123.799C965.082 123.746 965.076 123.688 965.086 123.632L966.252 116.835C966.26 116.787 966.257 116.736 966.241 116.689C966.226 116.642 966.199 116.6 966.164 116.565L961.225 111.751C961.185 111.711 961.156 111.661 961.142 111.606C961.129 111.551 961.131 111.493 961.148 111.439C961.166 111.385 961.198 111.337 961.241 111.3C961.285 111.264 961.337 111.24 961.394 111.231L968.219 110.239C968.267 110.232 968.313 110.213 968.352 110.184C968.391 110.155 968.423 110.117 968.445 110.073L971.495 103.889C971.521 103.838 971.56 103.795 971.608 103.765C971.656 103.735 971.712 103.719 971.769 103.719C971.826 103.719 971.881 103.735 971.93 103.765C971.978 103.795 972.017 103.838 972.042 103.889L975.093 110.073C975.114 110.117 975.146 110.155 975.186 110.184C975.225 110.213 975.271 110.232 975.319 110.239L982.144 111.231C982.2 111.24 982.253 111.264 982.296 111.3C982.34 111.337 982.372 111.385 982.389 111.439C982.407 111.493 982.409 111.551 982.395 111.606C982.382 111.661 982.353 111.711 982.312 111.751L977.374 116.565C977.338 116.6 977.312 116.642 977.296 116.689C977.281 116.736 977.277 116.787 977.286 116.835L978.452 123.632C978.461 123.688 978.455 123.746 978.434 123.799C978.412 123.851 978.377 123.897 978.331 123.93C978.285 123.964 978.231 123.984 978.174 123.988C978.117 123.992 978.06 123.981 978.01 123.954L971.909 120.745C971.866 120.723 971.818 120.711 971.769 120.711C971.72 120.711 971.672 120.723 971.629 120.745V120.745Z" fill="#FF6E17"/>
<path d="M914.884 122.785L908.783 125.995C908.732 126.021 908.676 126.033 908.619 126.028C908.562 126.024 908.508 126.004 908.462 125.971C908.416 125.937 908.38 125.892 908.359 125.839C908.338 125.786 908.331 125.729 908.341 125.673L909.507 118.875C909.515 118.827 909.512 118.777 909.496 118.73C909.481 118.682 909.454 118.64 909.419 118.605L904.48 113.791C904.44 113.752 904.411 113.701 904.398 113.646C904.384 113.591 904.386 113.533 904.404 113.479C904.421 113.425 904.453 113.377 904.497 113.34C904.54 113.304 904.593 113.28 904.649 113.272L911.474 112.28C911.522 112.272 911.568 112.253 911.608 112.224C911.647 112.194 911.679 112.156 911.7 112.112L914.751 105.928C914.776 105.877 914.815 105.834 914.863 105.804C914.911 105.774 914.967 105.758 915.024 105.758C915.081 105.758 915.137 105.774 915.185 105.804C915.233 105.834 915.272 105.877 915.297 105.928L918.348 112.112C918.37 112.156 918.401 112.194 918.441 112.223C918.48 112.252 918.526 112.272 918.574 112.28L925.399 113.272C925.455 113.28 925.508 113.303 925.552 113.34C925.595 113.377 925.628 113.425 925.645 113.479C925.663 113.533 925.665 113.591 925.651 113.646C925.638 113.701 925.609 113.751 925.569 113.791L920.63 118.605C920.595 118.64 920.568 118.682 920.553 118.73C920.537 118.777 920.534 118.827 920.542 118.875L921.708 125.673C921.718 125.729 921.711 125.786 921.69 125.839C921.669 125.892 921.633 125.937 921.587 125.971C921.541 126.004 921.487 126.024 921.43 126.028C921.373 126.033 921.317 126.021 921.266 125.995L915.165 122.785C915.122 122.762 915.073 122.75 915.025 122.75C914.976 122.75 914.927 122.762 914.884 122.785V122.785Z" fill="#FF6E17"/>
<path d="M1000 119.725L993.902 122.935C993.852 122.961 993.795 122.973 993.738 122.969C993.682 122.964 993.627 122.944 993.581 122.911C993.535 122.877 993.5 122.832 993.478 122.779C993.457 122.726 993.451 122.669 993.46 122.613L994.626 115.816C994.635 115.767 994.631 115.717 994.616 115.67C994.6 115.623 994.574 115.58 994.538 115.546L989.6 110.732C989.559 110.692 989.53 110.641 989.517 110.586C989.503 110.531 989.505 110.473 989.523 110.419C989.541 110.365 989.573 110.317 989.617 110.28C989.66 110.244 989.713 110.22 989.769 110.212L996.593 109.22C996.641 109.212 996.687 109.193 996.726 109.164C996.765 109.135 996.797 109.097 996.819 109.054L999.87 102.869C999.895 102.818 999.934 102.775 999.982 102.745C1000.03 102.715 1000.09 102.699 1000.14 102.699C1000.2 102.699 1000.26 102.715 1000.3 102.745C1000.35 102.775 1000.39 102.818 1000.42 102.869L1003.47 109.054C1003.49 109.097 1003.52 109.135 1003.56 109.164C1003.6 109.193 1003.64 109.212 1003.69 109.22L1010.52 110.212C1010.57 110.22 1010.63 110.244 1010.67 110.281C1010.71 110.317 1010.75 110.365 1010.76 110.419C1010.78 110.474 1010.78 110.531 1010.77 110.586C1010.76 110.642 1010.73 110.692 1010.69 110.732L1005.75 115.546C1005.71 115.58 1005.69 115.623 1005.67 115.67C1005.66 115.717 1005.65 115.767 1005.66 115.816L1006.83 122.613C1006.84 122.669 1006.83 122.726 1006.81 122.779C1006.79 122.832 1006.75 122.877 1006.71 122.911C1006.66 122.944 1006.6 122.964 1006.55 122.969C1006.49 122.973 1006.43 122.961 1006.38 122.935L1000.28 119.725C1000.24 119.703 1000.19 119.691 1000.14 119.691C1000.09 119.691 1000.05 119.703 1000 119.725V119.725Z" fill="#FF6E17"/>
<path d="M1028.38 118.705L1022.28 121.915C1022.23 121.942 1022.17 121.953 1022.11 121.949C1022.06 121.945 1022 121.925 1021.95 121.891C1021.91 121.858 1021.87 121.812 1021.85 121.76C1021.83 121.707 1021.82 121.649 1021.83 121.593L1023 114.796C1023.01 114.747 1023 114.697 1022.99 114.65C1022.97 114.603 1022.95 114.561 1022.91 114.526L1017.97 109.712C1017.93 109.672 1017.9 109.622 1017.89 109.567C1017.88 109.511 1017.88 109.454 1017.9 109.4C1017.91 109.346 1017.95 109.297 1017.99 109.261C1018.03 109.224 1018.09 109.2 1018.14 109.192L1024.97 108.2C1025.02 108.192 1025.06 108.173 1025.1 108.144C1025.14 108.115 1025.17 108.078 1025.19 108.034L1028.24 101.849C1028.27 101.798 1028.31 101.756 1028.36 101.726C1028.41 101.696 1028.46 101.68 1028.52 101.68C1028.57 101.68 1028.63 101.696 1028.68 101.726C1028.73 101.756 1028.77 101.798 1028.79 101.849L1031.84 108.034C1031.86 108.078 1031.9 108.116 1031.93 108.145C1031.97 108.174 1032.02 108.193 1032.07 108.2L1038.89 109.192C1038.95 109.201 1039 109.225 1039.05 109.261C1039.09 109.298 1039.12 109.346 1039.14 109.4C1039.16 109.454 1039.16 109.512 1039.14 109.567C1039.13 109.622 1039.1 109.672 1039.06 109.712L1034.12 114.526C1034.09 114.561 1034.06 114.603 1034.05 114.65C1034.03 114.697 1034.03 114.747 1034.04 114.796L1035.21 121.593C1035.22 121.649 1035.21 121.707 1035.19 121.76C1035.17 121.812 1035.14 121.858 1035.09 121.891C1035.04 121.925 1034.99 121.945 1034.93 121.949C1034.88 121.953 1034.82 121.942 1034.77 121.915L1028.67 118.705C1028.62 118.681 1028.57 118.669 1028.52 118.669C1028.47 118.669 1028.42 118.681 1028.38 118.705V118.705Z" fill="#FF6E17"/>
<path d="M971.771 26.9961L986.854 39.4401L980.953 39.6706L971.753 32.0792L962.552 40.3914L956.688 40.6208L971.771 26.9961Z" fill="#FF6E17"/>
<path d="M971.771 16L986.854 28.4429L980.953 28.6745L971.753 21.0831L962.552 29.3942L956.688 29.6235L971.771 16Z" fill="#FF6E17"/>
<path d="M805 84L847 118.707L830.568 119.35L804.95 98.1771L779.328 121.36L763 122L805 84Z" fill="#FF6E17" fill-opacity="0.2"/>
<path d="M805 53L847 87.7067L830.568 88.3528L804.95 67.1783L779.328 90.3603L763 91L805 53Z" fill="#FF6E17" fill-opacity="0.2"/>
</g>
<rect x="0.5" y="0.5" width="1199" height="149" rx="9.5" stroke="#F1F1F1"/>
<defs>
<clipPath id="clip0_116_19096">
<rect width="1200" height="150" rx="10" fill="white"/>
</clipPath>
</defs>
</svg>
