<svg width="20" height="20" viewBox="0 0 20 20" fill="none" xmlns="http://www.w3.org/2000/svg">
<path d="M15.4766 8.21897C16.2695 8.12811 16.9849 7.77556 17.5369 7.24733L17.6156 7.16374C18.2678 6.50104 18.6755 5.58998 18.6755 4.57836C18.6755 3.56432 18.2701 2.64599 17.6156 1.98329C16.9622 1.31817 16.0596 0.90625 15.0617 0.90625C14.0661 0.90625 13.1707 1.32059 12.5173 1.98329L12.4351 2.06325C11.9164 2.62418 11.5694 3.35109 11.4788 4.15675L11.4764 4.16281C11.244 6.00795 10.4213 7.78767 9.02629 9.20514C7.61819 10.6359 5.84167 11.4634 4.00792 11.6912C3.9948 11.6924 3.98526 11.6984 3.97334 11.7021C3.18166 11.816 2.47224 12.1867 1.93333 12.7343C1.28114 13.397 0.876953 14.3141 0.876953 15.3257C0.876953 16.3373 1.28114 17.2545 1.93333 17.9172C2.58551 18.5799 3.48808 18.9906 4.48364 18.9906C5.47921 18.9906 6.38178 18.5799 7.03396 17.9172C7.57288 17.3696 7.93772 16.6475 8.0498 15.8443C8.05337 15.8321 8.05933 15.8225 8.06053 15.8091C8.28349 13.9446 9.09782 12.1407 10.5071 10.7098C11.9021 9.29359 13.6536 8.45643 15.4694 8.22018L15.4766 8.21897Z" fill="url(#paint0_linear_29276_8322)"/>
<path d="M5.35558 8.26592C7.36461 7.78389 8.60869 5.73822 8.1343 3.6968C7.65991 1.65538 5.6467 0.391252 3.63767 0.873289C1.62864 1.35533 0.384568 3.40099 0.858957 5.44241C1.33335 7.48383 3.34656 8.74796 5.35558 8.26592Z" fill="url(#paint1_linear_29276_8322)"/>
<path d="M16.0807 19.0315C18.0897 18.5495 19.3338 16.5038 18.8594 14.4624C18.385 12.421 16.3718 11.1569 14.3628 11.6389C12.3537 12.121 11.1097 14.1666 11.5841 16.208C12.0584 18.2495 14.0716 19.5136 16.0807 19.0315Z" fill="url(#paint2_linear_29276_8322)"/>
<defs>
<linearGradient id="paint0_linear_29276_8322" x1="9.77624" y1="0.90625" x2="9.77624" y2="18.9906" gradientUnits="userSpaceOnUse">
<stop stop-color="#FF2612"/>
<stop offset="1" stop-color="#FF6E17"/>
</linearGradient>
<linearGradient id="paint1_linear_29276_8322" x1="3.63767" y1="0.873289" x2="5.40838" y2="8.25326" gradientUnits="userSpaceOnUse">
<stop stop-color="#FF2612"/>
<stop offset="1" stop-color="#FF6E17"/>
</linearGradient>
<linearGradient id="paint2_linear_29276_8322" x1="14.3628" y1="11.6389" x2="16.1335" y2="19.0189" gradientUnits="userSpaceOnUse">
<stop stop-color="#FF2612"/>
<stop offset="1" stop-color="#FF6E17"/>
</linearGradient>
</defs>
</svg>
