<svg width="1200" height="150" viewBox="0 0 1200 150" fill="none" xmlns="http://www.w3.org/2000/svg">
<g clip-path="url(#clip0_87_19438)">
<rect width="1200" height="150" rx="10" fill="white"/>
<path opacity="0.3" d="M1109.28 59.0037H1105.83C1104.91 58.9672 1103.99 59.2023 1103.14 59.6951C1102.28 60.188 1101.49 60.9286 1100.83 61.8733C1100.17 62.8179 1099.65 63.9474 1099.29 65.1951C1098.93 66.4428 1098.75 67.7834 1098.75 69.1377C1098.75 70.492 1098.93 71.8326 1099.29 73.0803C1099.65 74.328 1100.17 75.4575 1100.83 76.4022C1101.49 77.3468 1102.28 78.0874 1103.14 78.5803C1103.99 79.0732 1104.91 79.3083 1105.83 79.2718H1109.28C1111.08 79.2005 1112.79 78.1016 1114.04 76.2089C1115.3 74.3161 1116 71.7791 1116 69.1377C1116 66.4964 1115.3 63.9593 1114.04 62.0666C1112.79 60.1738 1111.08 59.0749 1109.28 59.0037V59.0037Z" fill="#FFE2D1"/>
<path opacity="0.3" d="M952.347 99.5391H948.898C947.069 99.5391 945.314 100.606 944.02 102.506C942.727 104.406 942 106.983 942 109.669C942 112.356 942.727 114.933 944.02 116.833C945.314 118.732 947.069 119.8 948.898 119.8H952.347C954.176 119.8 955.931 118.732 957.225 116.833C958.518 114.933 959.245 112.356 959.245 109.669C959.245 106.983 958.518 104.406 957.225 102.506C955.931 100.606 954.176 99.5391 952.347 99.5391Z" fill="#FFE2D1"/>
<path opacity="0.3" d="M1102.67 99.5398H1074.78C1072.99 99.4686 1071.28 98.3697 1070.02 96.477C1068.77 94.5842 1068.07 92.0471 1068.07 89.4058C1068.07 86.7644 1068.77 84.2274 1070.02 82.3347C1071.28 80.4419 1072.99 79.343 1074.78 79.2718H1085.83C1086.75 79.3083 1087.67 79.0732 1088.53 78.5803C1089.39 78.0874 1090.17 77.3468 1090.83 76.4022C1091.49 75.4575 1092.02 74.328 1092.37 73.0803C1092.73 71.8326 1092.92 70.492 1092.92 69.1377C1092.92 67.7834 1092.73 66.4428 1092.37 65.1951C1092.02 63.9474 1091.49 62.8179 1090.83 61.8733C1090.17 60.9286 1089.39 60.188 1088.53 59.6951C1087.67 59.2023 1086.75 58.9672 1085.83 59.0037H999.84C998.042 59.0749 996.334 60.1738 995.079 62.0666C993.825 63.9593 993.123 66.4964 993.123 69.1377C993.123 71.7791 993.825 74.3161 995.079 76.2089C996.334 78.1016 998.042 79.2005 999.84 79.2718H1014.48C1015.41 79.2352 1016.32 79.4704 1017.18 79.9632C1018.04 80.4561 1018.82 81.1967 1019.49 82.1413C1020.15 83.086 1020.67 84.2155 1021.03 85.4632C1021.39 86.7109 1021.57 88.0515 1021.57 89.4058C1021.57 90.7601 1021.39 92.1007 1021.03 93.3484C1020.67 94.5961 1020.15 95.7256 1019.49 96.6703C1018.82 97.6149 1018.04 98.3555 1017.18 98.8484C1016.32 99.3413 1015.41 99.5764 1014.48 99.5398H972.348C970.519 99.5398 968.764 100.607 967.471 102.507C966.177 104.407 965.45 106.983 965.45 109.67C965.45 112.357 966.177 114.934 967.471 116.833C968.764 118.733 970.519 119.801 972.348 119.801H1102.66C1104.49 119.801 1106.24 118.733 1107.53 116.833C1108.83 114.934 1109.55 112.357 1109.55 109.67C1109.55 106.983 1108.83 104.407 1107.53 102.507C1106.24 100.607 1104.49 99.5398 1102.66 99.5398H1102.67Z" fill="#FFE2D1"/>
<path d="M1029.64 62.8495C1029.72 61.8394 1029.77 60.8232 1029.77 59.7979C1029.81 49.2262 1025.65 39.0728 1018.2 31.5712C1010.75 24.0696 1000.62 19.8344 990.052 19.7971C979.481 19.7599 969.327 23.9237 961.826 31.3727C954.324 38.8216 950.089 48.9455 950.052 59.5171C949.652 59.4988 949.249 59.4866 948.846 59.4866C942.713 59.5568 936.854 62.0426 932.542 66.4047C928.229 70.7668 925.811 76.6534 925.811 82.7873C925.811 88.9213 928.229 94.8078 932.542 99.1699C936.854 103.532 942.713 106.018 948.846 106.088C947.314 108.357 946.536 111.051 946.624 113.788C946.712 116.524 947.66 119.163 949.334 121.33C951.008 123.496 953.323 125.079 955.948 125.854C958.574 126.629 961.378 126.557 963.96 125.646C966.542 124.736 968.771 123.035 970.33 120.784C971.89 118.534 972.7 115.849 972.645 113.112C972.59 110.374 971.674 107.724 970.026 105.538C968.378 103.351 966.083 101.74 963.466 100.934C965.858 99.0066 967.848 96.628 969.323 93.9334C973.884 96.6805 978.948 98.4881 984.218 99.2501C989.488 100.012 994.857 99.713 1000.01 98.3705C1000.68 101.336 1001.81 104.177 1003.37 106.79C999.777 107.578 996.502 109.413 993.957 112.064C991.412 114.714 989.71 118.061 989.068 121.679C988.427 125.297 988.873 129.025 990.351 132.389C991.83 135.753 994.273 138.603 997.373 140.578C1000.47 142.552 1004.09 143.562 1007.76 143.48C1011.44 143.397 1015 142.227 1018.01 140.115C1021.02 138.004 1023.33 135.048 1024.66 131.621C1025.98 128.194 1026.26 124.45 1025.46 120.864C1026.42 120.959 1027.39 121.011 1028.37 121.011C1035.97 120.997 1043.26 118.013 1048.68 112.696C1054.11 107.379 1057.24 100.15 1057.41 92.5558C1057.57 84.9612 1054.76 77.6025 1049.58 72.0522C1044.39 66.5018 1037.24 63.2001 1029.65 62.8526L1029.64 62.8495Z" fill="#FFF7F2"/>
<path d="M1039.93 78.0666H1039.47C1035.76 78.0625 1032.21 76.5876 1029.59 73.9656C1026.97 71.3436 1025.49 67.7886 1025.49 64.0809C1025.49 59.9918 1028.95 55.4662 1029.97 54.2089L1021.26 45.5179C1020.02 46.5585 1015.44 50.1533 1011.26 50.1533C1007.55 50.1493 1003.99 48.6749 1001.37 46.0536C998.75 43.4323 997.275 39.8782 997.27 36.1707C997.27 35.9449 997.27 35.7557 997.27 35.597L996.702 35.5513C995.372 35.4383 993.147 35.2461 991.514 35.2461C989.818 35.2461 987.483 35.4475 986.36 35.5513C986.36 35.7374 986.36 35.9419 986.36 36.1616C986.356 39.8688 984.882 43.4229 982.26 46.0443C979.639 48.6657 976.085 50.1401 972.378 50.1442C968.084 50.1442 963.442 46.3632 962.136 45.2219L953.076 54.1693C954.092 55.3899 957.605 59.9307 957.605 64.0748C957.601 67.7828 956.126 71.3378 953.504 73.9597C950.882 76.5816 947.327 78.0564 943.619 78.0605H943.057C943.057 78.2161 943.027 78.3961 943.009 78.6036C942.884 80.0074 942.67 82.3571 942.67 84.0966C942.67 86.0618 942.951 88.8815 943.082 90.1052H943.619C947.327 90.1085 950.882 91.5826 953.504 94.204C956.126 96.8255 957.601 100.38 957.605 104.088C957.605 108.201 954.117 112.733 953.064 114.009L962.219 123.005C963.513 121.876 968.081 118.186 972.378 118.186C976.085 118.19 979.639 119.665 982.26 122.286C984.882 124.908 986.356 128.462 986.36 132.169C986.36 132.361 986.36 132.523 986.36 132.66L987.05 132.712C988.27 132.801 990.101 132.938 991.511 132.938C993.403 132.938 996.089 132.685 997.267 132.563C997.267 132.447 997.267 132.318 997.267 132.169C997.266 128.46 998.737 124.903 1001.36 122.278C1003.98 119.653 1007.53 118.174 1011.24 118.168C1015.37 118.168 1019.92 121.68 1021.17 122.721L1029.98 113.945C1028.96 112.724 1025.49 108.18 1025.49 104.069C1025.49 100.363 1026.97 96.8108 1029.59 94.1907C1032.21 91.5707 1035.76 90.0971 1039.47 90.093H1039.95C1039.95 89.9526 1039.98 89.7878 1040 89.6078C1040.12 88.2895 1040.34 85.836 1040.34 84.0874C1040.34 82.11 1040.06 79.2903 1039.93 78.0666ZM1008.21 84.0905C1008.21 87.4517 1007.22 90.7374 1005.35 93.5321C1003.48 96.3269 1000.83 98.5051 997.722 99.7913C994.616 101.078 991.199 101.414 987.903 100.758C984.606 100.103 981.578 98.4841 979.201 96.1074C976.825 93.7307 975.206 90.7025 974.55 87.4059C973.895 84.1093 974.231 80.6923 975.517 77.5869C976.804 74.4816 978.982 71.8274 981.777 69.96C984.571 68.0927 987.857 67.096 991.218 67.096C995.724 67.1016 1000.04 68.8939 1003.23 72.0798C1006.41 75.2656 1008.21 79.585 1008.21 84.0905Z" fill="#FF6E17"/>
<path d="M974.409 49.9863C974.944 50.0938 975.487 50.149 976.033 50.1511C979.74 50.1471 983.294 48.6726 985.915 46.0512C988.537 43.4299 990.011 39.8757 990.015 36.1685C990.015 35.9488 990.015 35.7444 990.015 35.5582C990.766 35.485 992.06 35.3721 993.341 35.3049C992.701 35.2744 992.069 35.25 991.511 35.25C989.814 35.25 987.479 35.4514 986.356 35.5552C986.356 35.7413 986.356 35.9458 986.356 36.1655C986.351 39.5183 985.142 42.7577 982.949 45.2942C980.756 47.8307 977.726 49.4958 974.409 49.9863V49.9863Z" fill="white"/>
<path d="M956.719 113.994C957.772 112.719 961.26 108.196 961.26 104.073C961.256 100.366 959.781 96.811 957.159 94.1895C954.537 91.5681 950.982 90.094 947.274 90.0908H946.737C946.606 88.8701 946.325 86.0474 946.325 84.0821C946.325 82.3518 946.539 80.0021 946.664 78.5892C946.682 78.3817 946.7 78.2016 946.713 78.046H947.274C950.982 78.042 954.537 76.5672 957.159 73.9452C959.781 71.3233 961.256 67.7684 961.26 64.0604C961.26 59.9163 957.747 55.3815 956.731 54.1548L964.165 46.8309C963.249 46.1687 962.529 45.5705 962.129 45.2227L953.069 54.17C954.085 55.3907 957.598 59.9315 957.598 64.0756C957.594 67.7836 956.119 71.3386 953.497 73.9605C950.875 76.5824 947.32 78.0572 943.612 78.0613H943.051C943.051 78.2169 943.02 78.3969 943.002 78.6044C942.877 80.0082 942.663 82.3579 942.663 84.0974C942.663 86.0626 942.944 88.8823 943.075 90.106H943.612C947.32 90.1093 950.875 91.5834 953.497 94.2048C956.119 96.8263 957.594 100.381 957.598 104.089C957.598 108.202 954.11 112.734 953.057 114.009L962.212 123.006C962.612 122.658 963.326 122.063 964.247 121.41L956.719 113.994Z" fill="white"/>
<path d="M990.702 132.7L990.013 132.648C990.013 132.511 990.013 132.343 990.013 132.157C990.01 128.449 988.537 124.894 985.916 122.271C983.295 119.648 979.741 118.173 976.033 118.168C975.485 118.17 974.938 118.225 974.4 118.333C977.718 118.821 980.75 120.484 982.944 123.021C985.138 125.557 986.348 128.797 986.354 132.151C986.354 132.343 986.354 132.505 986.354 132.642L987.043 132.694C988.264 132.782 990.095 132.92 991.505 132.92C992.06 132.92 992.686 132.895 993.336 132.862C992.374 132.816 991.428 132.752 990.702 132.7Z" fill="white"/>
<path d="M1006.88 74.9818C1006.54 74.9276 1006.2 74.9661 1005.89 75.0931C1005.58 75.2201 1005.31 75.4306 1005.11 75.7016C1004.91 75.9726 1004.79 76.2935 1004.76 76.6289C1004.73 76.9644 1004.79 77.3015 1004.94 77.6032V77.6032C1006.48 80.7847 1006.84 84.4079 1005.96 87.8302C1005.08 91.2526 1003.02 94.253 1000.14 96.2993C997.257 98.3457 993.745 99.3058 990.224 99.0094C986.702 98.713 983.4 97.1793 980.902 94.6801C978.404 92.181 976.872 88.878 976.577 85.3568C976.282 81.8356 977.244 78.3238 979.291 75.4441C981.339 72.5643 984.34 70.5027 987.763 69.6249C991.186 68.7471 994.809 69.1097 997.99 70.6485C998.291 70.7972 998.627 70.8602 998.962 70.8305C999.297 70.8007 999.617 70.6795 999.887 70.48C1000.16 70.2806 1000.37 70.0106 1000.49 69.6996C1000.62 69.3886 1000.66 69.0486 1000.61 68.7168C1000.56 68.4315 1000.45 68.1614 1000.28 67.9293C1000.1 67.6972 999.879 67.5099 999.619 67.3833C995.654 65.4494 991.132 64.9839 986.857 66.0696C982.581 67.1552 978.829 69.7215 976.267 73.3126C973.705 76.9037 972.499 81.2868 972.864 85.683C973.228 90.0792 975.14 94.2037 978.259 97.3236C981.377 100.443 985.501 102.356 989.897 102.723C994.293 103.089 998.677 101.885 1002.27 99.3239C1005.86 96.7632 1008.43 93.0118 1009.52 88.7366C1010.6 84.4614 1010.14 79.9391 1008.21 75.9736C1008.08 75.7129 1007.9 75.4865 1007.66 75.3137C1007.43 75.141 1007.16 75.0271 1006.88 74.9818V74.9818Z" fill="black"/>
<path d="M1042.35 75.0023C1042.05 74.762 1041.7 74.5845 1041.32 74.4798C1040.95 74.375 1040.56 74.3452 1040.17 74.392C1040.12 74.392 1039.93 74.4072 1039.47 74.4072C1036.73 74.404 1034.11 73.3152 1032.17 71.3798C1030.24 69.4443 1029.15 66.8203 1029.15 64.0836C1029.15 61.3371 1032.01 57.4371 1033.01 56.2897C1033.52 55.6867 1033.79 54.92 1033.78 54.1316C1033.76 53.3433 1033.46 52.5867 1032.93 52.0022L1023.33 42.4414C1022.74 41.9509 1021.99 41.6868 1021.23 41.6963C1020.46 41.7058 1019.72 41.9884 1019.14 42.4933C1017.98 43.5309 1014.04 46.4909 1011.24 46.4909C1008.5 46.4885 1005.88 45.4005 1003.94 43.4656C1002.01 41.5307 1000.92 38.9071 1000.92 36.1703C1000.92 35.6638 1000.93 35.4441 1000.93 35.4349C1000.99 35.0407 1000.96 34.6396 1000.86 34.2553C1000.76 33.8709 1000.58 33.5109 1000.34 33.1965C1000.09 32.8822 999.787 32.6196 999.44 32.4244C999.094 32.2292 998.711 32.1053 998.316 32.0598C998.151 32.0415 994.23 31.5898 991.502 31.5898C988.984 31.5898 985.441 31.9682 985.292 31.9835C984.895 32.0252 984.51 32.1467 984.162 32.3407C983.813 32.5348 983.507 32.7973 983.262 33.1126C983.016 33.422 982.835 33.7781 982.73 34.1594C982.625 34.5407 982.599 34.9393 982.652 35.3311C982.652 35.3769 982.679 35.6363 982.679 36.1703C982.676 38.9065 981.588 41.5297 979.653 43.4645C977.718 45.3993 975.095 46.4877 972.359 46.4909C969.469 46.4909 965.45 43.3447 964.272 42.2431C963.683 41.7094 962.917 41.4125 962.122 41.4097C961.327 41.4069 960.559 41.6983 959.966 42.2278L949.993 52.0663C949.5 52.6535 949.231 53.3971 949.236 54.1642C949.24 54.9312 949.518 55.6717 950.018 56.2531C951.031 57.4036 953.924 61.3127 953.924 64.0836C953.921 66.8209 952.833 69.4453 950.898 71.3808C948.962 73.3164 946.338 74.4048 943.6 74.4072C943.106 74.4072 942.892 74.392 942.88 74.392C942.194 74.2974 941.496 74.4437 940.906 74.806C940.315 75.1682 939.869 75.724 939.642 76.3786L939.548 76.7234C939.527 76.8151 939.51 76.9078 939.499 77.0011C939.499 77.0438 938.989 81.2307 938.989 84.0901C938.989 86.9494 939.493 91.1088 939.499 91.1607C939.546 91.5535 939.67 91.933 939.865 92.2775C940.06 92.6219 940.32 92.9244 940.632 93.1675C940.945 93.4107 941.302 93.5896 941.683 93.694C942.065 93.7985 942.463 93.8263 942.856 93.7759C942.904 93.7759 943.115 93.7546 943.609 93.7546C946.346 93.757 948.97 94.845 950.906 96.7799C952.841 98.7148 953.93 101.338 953.933 104.075C953.933 106.852 951.034 110.761 950.021 111.912C949.509 112.515 949.235 113.284 949.249 114.074C949.263 114.865 949.564 115.624 950.097 116.208L960.155 126.102C960.751 126.587 961.501 126.843 962.269 126.825C963.037 126.806 963.773 126.514 964.345 126.001C965.517 124.921 969.509 121.839 972.371 121.839C975.107 121.842 977.73 122.93 979.665 124.865C981.6 126.8 982.688 129.423 982.692 132.159C982.692 132.645 982.692 132.84 982.692 132.84C982.639 133.234 982.666 133.635 982.771 134.019C982.876 134.402 983.057 134.761 983.302 135.074C983.548 135.387 983.854 135.647 984.202 135.84C984.55 136.033 984.933 136.154 985.328 136.197C985.365 136.197 988.951 136.587 991.511 136.587C994.257 136.587 998.261 136.126 998.298 136.12C999.083 136.03 999.801 135.633 1000.3 135.016C1000.79 134.398 1001.02 133.611 1000.94 132.825C1000.94 132.779 1000.94 132.608 1000.94 132.156C1000.94 129.422 1002.02 126.8 1003.96 124.865C1005.89 122.929 1008.51 121.838 1011.24 121.83C1014.02 121.83 1017.93 124.729 1019.08 125.745C1019.68 126.249 1020.44 126.521 1021.22 126.511C1022.01 126.5 1022.76 126.208 1023.35 125.687L1033.02 116.056C1033.51 115.467 1033.78 114.725 1033.78 113.959C1033.77 113.193 1033.5 112.452 1033 111.869C1032 110.725 1029.13 106.84 1029.13 104.069C1029.14 101.331 1030.23 98.7073 1032.17 96.7734C1034.11 94.8395 1036.73 93.7538 1039.47 93.7546C1039.92 93.7546 1040.12 93.7546 1040.13 93.7546C1040.52 93.8041 1040.92 93.7755 1041.3 93.6706C1041.68 93.5657 1042.04 93.3864 1042.35 93.1431C1042.66 92.8998 1042.92 92.5973 1043.12 92.2529C1043.31 91.9085 1043.44 91.529 1043.49 91.1363C1043.49 91.0966 1043.99 86.925 1043.99 84.0809C1043.99 81.2368 1043.49 77.0469 1043.48 77.0042C1043.44 76.6126 1043.31 76.2341 1043.12 75.8906C1042.92 75.547 1042.66 75.2452 1042.35 75.0023V75.0023ZM962.212 122.992L953.057 113.996C954.11 112.72 957.598 108.198 957.598 104.075C957.594 100.367 956.119 96.8129 953.497 94.1914C950.875 91.5699 947.32 90.0958 943.612 90.0926H943.075C942.944 88.872 942.663 86.0492 942.663 84.084C942.663 82.3537 942.877 80.0039 943.002 78.591C943.02 78.3835 943.039 78.2035 943.051 78.0478H943.612C947.32 78.0438 950.875 76.569 953.497 73.9471C956.119 71.3252 957.594 67.7702 957.598 64.0622C957.598 59.9181 954.086 55.3834 953.069 54.1566L962.13 45.2337C963.436 46.375 968.077 50.156 972.371 50.156C976.078 50.1519 979.632 48.6775 982.254 46.0561C984.875 43.4347 986.35 39.8806 986.354 36.1734C986.354 35.9537 986.354 35.7492 986.354 35.5631C987.477 35.4563 989.811 35.2579 991.508 35.2579C993.147 35.2579 995.371 35.444 996.696 35.5631L997.263 35.6088C997.263 35.7675 997.263 35.9567 997.263 36.1826C997.268 39.89 998.743 43.4442 1001.36 46.0654C1003.99 48.6867 1007.54 50.1611 1011.25 50.1651C1015.43 50.1651 1020.01 46.5703 1021.25 45.5297L1029.98 54.2238C1028.95 55.481 1025.5 60.0219 1025.5 64.0958C1025.5 67.8035 1026.97 71.3584 1029.6 73.9805C1032.22 76.6025 1035.77 78.0774 1039.48 78.0814H1039.93C1040.07 79.3021 1040.35 82.1248 1040.35 84.1053C1040.35 85.8539 1040.13 88.3074 1040 89.6257C1040 89.8088 1039.97 89.9706 1039.96 90.1109H1039.48C1035.77 90.115 1032.22 91.5894 1029.6 94.2108C1026.98 96.8322 1025.5 100.386 1025.5 104.093C1025.5 108.204 1028.97 112.736 1029.99 113.969L1021.18 122.745C1019.92 121.704 1015.38 118.192 1011.25 118.192C1007.54 118.195 1003.99 119.669 1001.36 122.291C998.742 124.912 997.267 128.467 997.263 132.175C997.263 132.324 997.263 132.452 997.263 132.568C996.085 132.69 993.4 132.944 991.508 132.944C990.104 132.944 988.264 132.806 987.046 132.718L986.357 132.666C986.357 132.529 986.357 132.361 986.357 132.175C986.359 128.463 984.887 124.902 982.264 122.275C979.642 119.648 976.083 118.171 972.371 118.168C968.074 118.168 963.506 121.863 962.212 122.992Z" fill="#1C1C1C"/>
<g opacity="0.3">
<path opacity="0.3" d="M945.556 43.7965C944.591 43.7965 943.647 43.5101 942.844 42.9736C942.041 42.4371 941.415 41.6745 941.045 40.7824C940.676 39.8902 940.579 38.9084 940.768 37.9613C940.956 37.0142 941.421 36.1442 942.104 35.4613C942.787 34.7785 943.657 34.3135 944.604 34.1251C945.551 33.9367 946.533 34.0334 947.425 34.4029C948.317 34.7725 949.08 35.3983 949.616 36.2012C950.153 37.0042 950.439 37.9482 950.439 38.9138C950.439 40.2088 949.925 41.4507 949.009 42.3664C948.093 43.282 946.851 43.7965 945.556 43.7965ZM945.556 36.4725C945.074 36.4725 944.602 36.6157 944.2 36.884C943.799 37.1522 943.486 37.5335 943.301 37.9796C943.116 38.4257 943.068 38.9166 943.162 39.3901C943.256 39.8637 943.489 40.2987 943.83 40.6401C944.172 40.9815 944.607 41.2141 945.08 41.3083C945.554 41.4025 946.045 41.3541 946.491 41.1693C946.937 40.9845 947.318 40.6716 947.586 40.2702C947.855 39.8687 947.998 39.3967 947.998 38.9138C947.998 38.2664 947.741 37.6454 947.283 37.1876C946.825 36.7298 946.204 36.4725 945.556 36.4725Z" fill="#00AEEF"/>
<path opacity="0.3" d="M977.116 148.378C976.15 148.378 975.206 148.092 974.403 147.556C973.6 147.019 972.975 146.257 972.605 145.364C972.236 144.472 972.139 143.49 972.327 142.543C972.516 141.596 972.981 140.726 973.663 140.043C974.346 139.361 975.216 138.895 976.163 138.707C977.111 138.519 978.092 138.615 978.984 138.985C979.877 139.355 980.639 139.98 981.176 140.783C981.712 141.586 981.999 142.53 981.999 143.496C981.999 144.791 981.484 146.033 980.569 146.948C979.653 147.864 978.411 148.378 977.116 148.378ZM977.116 141.055C976.633 141.055 976.161 141.198 975.76 141.466C975.358 141.734 975.045 142.116 974.861 142.562C974.676 143.008 974.627 143.499 974.722 143.972C974.816 144.446 975.048 144.881 975.39 145.222C975.731 145.564 976.166 145.796 976.64 145.89C977.113 145.984 977.604 145.936 978.05 145.751C978.496 145.567 978.878 145.254 979.146 144.852C979.414 144.451 979.557 143.979 979.557 143.496C979.557 142.848 979.3 142.227 978.842 141.77C978.384 141.312 977.763 141.055 977.116 141.055Z" fill="#00AEEF"/>
<path opacity="0.3" d="M933.094 110.949C932.369 110.949 931.661 110.734 931.059 110.332C930.457 109.929 929.988 109.357 929.71 108.688C929.433 108.019 929.361 107.283 929.502 106.573C929.643 105.862 929.992 105.21 930.504 104.698C931.016 104.185 931.669 103.837 932.379 103.695C933.09 103.554 933.826 103.627 934.495 103.904C935.164 104.181 935.736 104.65 936.138 105.252C936.541 105.855 936.756 106.563 936.756 107.287C936.756 108.258 936.37 109.19 935.683 109.876C934.996 110.563 934.065 110.949 933.094 110.949ZM933.094 106.066C932.852 106.066 932.616 106.138 932.415 106.272C932.215 106.406 932.058 106.597 931.966 106.82C931.873 107.043 931.849 107.288 931.896 107.525C931.943 107.762 932.06 107.979 932.23 108.15C932.401 108.321 932.619 108.437 932.855 108.484C933.092 108.531 933.338 108.507 933.561 108.415C933.784 108.322 933.974 108.166 934.109 107.965C934.243 107.764 934.314 107.528 934.314 107.287C934.314 106.963 934.186 106.653 933.957 106.424C933.728 106.195 933.417 106.066 933.094 106.066Z" fill="#EC008C"/>
<path opacity="0.3" d="M977.311 24.7557H973.649V21.0938H971.208V24.7557H967.546V27.197H971.208V30.859H973.649V27.197H977.311V24.7557Z" fill="#EC008C"/>
<path opacity="0.3" d="M946.777 133.728H943.115V130.066H940.674V133.728H937.012V136.17H940.674V139.832H943.115V136.17H946.777V133.728Z" fill="#F9ED32"/>
<path opacity="0.3" d="M933.093 73.2186H930.652V70.7773H928.211V73.2186H925.77V75.6599H928.211V78.1013H930.652V75.6599H933.093V73.2186Z" fill="#F9ED32"/>
<path opacity="0.3" d="M989.289 16.662C990.3 16.662 991.12 15.8422 991.12 14.831C991.12 13.8198 990.3 13 989.289 13C988.278 13 987.458 13.8198 987.458 14.831C987.458 15.8422 988.278 16.662 989.289 16.662Z" fill="#00AEEF"/>
<path opacity="0.3" d="M930.652 47.3534C931.663 47.3534 932.483 46.5336 932.483 45.5224C932.483 44.5112 931.663 43.6914 930.652 43.6914C929.641 43.6914 928.821 44.5112 928.821 45.5224C928.821 46.5336 929.641 47.3534 930.652 47.3534Z" fill="#EC008C"/>
<path opacity="0.3" d="M919.831 98.8495C920.842 98.8495 921.662 98.0297 921.662 97.0185C921.662 96.0073 920.842 95.1875 919.831 95.1875C918.82 95.1875 918 96.0073 918 97.0185C918 98.0297 918.82 98.8495 919.831 98.8495Z" fill="#00AEEF"/>
<path opacity="0.3" d="M956.347 147.767C957.358 147.767 958.178 146.948 958.178 145.936C958.178 144.925 957.358 144.105 956.347 144.105C955.335 144.105 954.516 144.925 954.516 145.936C954.516 146.948 955.335 147.767 956.347 147.767Z" fill="#EC008C"/>
<path opacity="0.3" d="M952.269 22.9237C953.281 22.9237 954.1 22.1039 954.1 21.0927C954.1 20.0815 953.281 19.2617 952.269 19.2617C951.258 19.2617 950.438 20.0815 950.438 21.0927C950.438 22.1039 951.258 22.9237 952.269 22.9237Z" fill="#F9ED32"/>
<path opacity="0.3" d="M1032.56 38.9138C1032.56 37.9482 1032.85 37.0042 1033.39 36.2012C1033.92 35.3983 1034.69 34.7725 1035.58 34.4029C1036.47 34.0334 1037.45 33.9367 1038.4 34.1251C1039.35 34.3135 1040.22 34.7785 1040.9 35.4613C1041.58 36.1442 1042.05 37.0142 1042.24 37.9613C1042.42 38.9084 1042.33 39.8902 1041.96 40.7824C1041.59 41.6745 1040.96 42.4371 1040.16 42.9736C1039.36 43.5101 1038.41 43.7965 1037.45 43.7965C1036.15 43.7965 1034.91 43.282 1033.99 42.3664C1033.08 41.4507 1032.56 40.2088 1032.56 38.9138ZM1035.01 38.9138C1035.01 39.3967 1035.15 39.8687 1035.42 40.2702C1035.69 40.6716 1036.07 40.9845 1036.51 41.1693C1036.96 41.3541 1037.45 41.4025 1037.92 41.3083C1038.4 41.2141 1038.83 40.9815 1039.17 40.6401C1039.51 40.2987 1039.75 39.8637 1039.84 39.3901C1039.94 38.9166 1039.89 38.4257 1039.7 37.9796C1039.52 37.5335 1039.2 37.1522 1038.8 36.884C1038.4 36.6157 1037.93 36.4725 1037.45 36.4725C1036.8 36.4725 1036.18 36.7298 1035.72 37.1876C1035.26 37.6454 1035.01 38.2664 1035.01 38.9138Z" fill="#EC008C"/>
<path opacity="0.3" d="M1001 143.496C1001 142.53 1001.29 141.586 1001.83 140.783C1002.36 139.98 1003.13 139.355 1004.02 138.985C1004.91 138.615 1005.89 138.519 1006.84 138.707C1007.79 138.895 1008.66 139.361 1009.34 140.043C1010.02 140.726 1010.49 141.596 1010.68 142.543C1010.86 143.49 1010.77 144.472 1010.4 145.364C1010.03 146.257 1009.4 147.019 1008.6 147.556C1007.8 148.092 1006.85 148.378 1005.89 148.378C1004.59 148.378 1003.35 147.864 1002.43 146.948C1001.52 146.033 1001 144.791 1001 143.496ZM1003.45 143.496C1003.45 143.979 1003.59 144.451 1003.86 144.852C1004.12 145.254 1004.51 145.567 1004.95 145.751C1005.4 145.936 1005.89 145.984 1006.36 145.89C1006.84 145.796 1007.27 145.564 1007.61 145.222C1007.95 144.881 1008.19 144.446 1008.28 143.972C1008.38 143.499 1008.33 143.008 1008.14 142.562C1007.96 142.116 1007.64 141.734 1007.24 141.466C1006.84 141.198 1006.37 141.055 1005.89 141.055C1005.24 141.055 1004.62 141.312 1004.16 141.77C1003.7 142.227 1003.45 142.848 1003.45 143.496Z" fill="#EC008C"/>
<path opacity="0.3" d="M1046.25 107.287C1046.25 106.563 1046.46 105.855 1046.87 105.252C1047.27 104.65 1047.84 104.181 1048.51 103.904C1049.18 103.627 1049.91 103.554 1050.62 103.695C1051.33 103.837 1051.99 104.185 1052.5 104.698C1053.01 105.21 1053.36 105.862 1053.5 106.573C1053.64 107.283 1053.57 108.019 1053.29 108.688C1053.02 109.357 1052.55 109.929 1051.94 110.332C1051.34 110.734 1050.63 110.949 1049.91 110.949C1048.94 110.949 1048.01 110.563 1047.32 109.876C1046.63 109.19 1046.25 108.258 1046.25 107.287V107.287ZM1048.69 107.287C1048.69 107.528 1048.76 107.764 1048.9 107.965C1049.03 108.166 1049.22 108.322 1049.44 108.415C1049.67 108.507 1049.91 108.531 1050.15 108.484C1050.38 108.437 1050.6 108.321 1050.77 108.15C1050.94 107.979 1051.06 107.762 1051.11 107.525C1051.15 107.288 1051.13 107.043 1051.04 106.82C1050.95 106.597 1050.79 106.406 1050.59 106.272C1050.39 106.138 1050.15 106.066 1049.91 106.066C1049.59 106.066 1049.28 106.195 1049.05 106.424C1048.82 106.653 1048.69 106.963 1048.69 107.287Z" fill="#F9ED32"/>
<path opacity="0.3" d="M1015.46 24.7557H1011.79V21.0938H1009.35V24.7557H1005.69V27.197H1009.35V30.859H1011.79V27.197H1015.46V24.7557Z" fill="#F9ED32"/>
<path opacity="0.3" d="M1045.99 133.728H1042.33V130.066H1039.89V133.728H1036.22V136.17H1039.89V139.832H1042.33V136.17H1045.99V133.728Z" fill="#00AEEF"/>
<path opacity="0.3" d="M1057.23 73.2186H1054.79V70.7773H1052.35V73.2186H1049.91V75.6599H1052.35V78.1013H1054.79V75.6599H1057.23V73.2186Z" fill="#00AEEF"/>
<path opacity="0.3" d="M1052.35 47.3534C1053.36 47.3534 1054.18 46.5336 1054.18 45.5224C1054.18 44.5112 1053.36 43.6914 1052.35 43.6914C1051.34 43.6914 1050.52 44.5112 1050.52 45.5224C1050.52 46.5336 1051.34 47.3534 1052.35 47.3534Z" fill="#F9ED32"/>
<path opacity="0.3" d="M1063.17 98.8495C1064.18 98.8495 1065 98.0297 1065 97.0185C1065 96.0073 1064.18 95.1875 1063.17 95.1875C1062.16 95.1875 1061.34 96.0073 1061.34 97.0185C1061.34 98.0297 1062.16 98.8495 1063.17 98.8495Z" fill="#EC008C"/>
<path opacity="0.3" d="M1026.65 147.767C1027.66 147.767 1028.48 146.948 1028.48 145.936C1028.48 144.925 1027.66 144.105 1026.65 144.105C1025.64 144.105 1024.82 144.925 1024.82 145.936C1024.82 146.948 1025.64 147.767 1026.65 147.767Z" fill="#F9ED32"/>
<path opacity="0.3" d="M1030.73 22.9237C1031.74 22.9237 1032.56 22.1039 1032.56 21.0927C1032.56 20.0815 1031.74 19.2617 1030.73 19.2617C1029.72 19.2617 1028.9 20.0815 1028.9 21.0927C1028.9 22.1039 1029.72 22.9237 1030.73 22.9237Z" fill="#00AEEF"/>
</g>
<path d="M929.783 46.9161H929.546C927.61 46.914 925.754 46.1592 924.385 44.8172C923.016 43.4752 922.246 41.6557 922.245 39.7581C922.245 37.6652 924.05 35.3489 924.587 34.7054L920.035 30.2572C919.389 30.7898 916.997 32.6297 914.813 32.6297C912.877 32.6276 911.021 31.873 909.652 30.5314C908.283 29.1898 907.513 27.3708 907.51 25.4732C907.51 25.3577 907.51 25.2608 907.51 25.1796L907.214 25.1562C906.519 25.0984 905.357 25 904.505 25C903.619 25 902.4 25.1031 901.813 25.1562C901.813 25.2515 901.813 25.3561 901.813 25.4686C901.811 27.3659 901.041 29.185 899.673 30.5267C898.304 31.8683 896.448 32.623 894.512 32.625C892.27 32.625 889.847 30.6899 889.165 30.1057L884.434 34.6851C884.964 35.3099 886.798 37.6339 886.798 39.7549C886.796 41.6527 886.026 43.4722 884.657 44.8142C883.288 46.1561 881.432 46.9109 879.496 46.913H879.202C879.202 46.9926 879.186 47.0848 879.177 47.191C879.112 47.9094 879 49.1121 879 50.0023C879 51.0082 879.147 52.4513 879.215 53.0777H879.496C881.432 53.0793 883.288 53.8338 884.657 55.1755C886.026 56.5172 886.796 58.3365 886.798 60.2341C886.798 62.3395 884.977 64.6589 884.427 65.3117L889.208 69.9161C889.883 69.3382 892.269 67.4499 894.512 67.4499C896.448 67.452 898.304 68.2067 899.673 69.5483C901.041 70.89 901.811 72.709 901.813 74.6064C901.813 74.7048 901.813 74.7876 901.813 74.8579L902.174 74.8844C902.811 74.9297 903.767 75 904.503 75C905.491 75 906.893 74.8704 907.508 74.8079C907.508 74.7485 907.508 74.6829 907.508 74.6064C907.508 72.7082 908.276 70.8874 909.644 69.5439C911.012 68.2004 912.868 67.4439 914.805 67.4406C916.959 67.4406 919.335 69.2383 919.992 69.7709L924.589 65.2789C924.06 64.6542 922.245 62.3286 922.245 60.2247C922.248 58.3279 923.018 56.5096 924.387 55.1687C925.755 53.8277 927.611 53.0735 929.546 53.0714H929.798C929.798 52.9996 929.812 52.9152 929.82 52.8231C929.884 52.1483 930 50.8926 930 49.9977C930 48.9856 929.853 47.5424 929.783 46.9161ZM913.224 49.9992C913.224 51.7195 912.704 53.4012 911.729 54.8316C910.754 56.262 909.368 57.3768 907.746 58.0351C906.125 58.6935 904.34 58.8657 902.619 58.5301C900.898 58.1945 899.316 57.3661 898.075 56.1497C896.834 54.9332 895.989 53.3834 895.647 51.6961C895.304 50.0089 895.48 48.26 896.152 46.6706C896.823 45.0813 897.961 43.7228 899.42 42.7671C900.879 41.8113 902.595 41.3012 904.35 41.3012C906.703 41.3041 908.958 42.2214 910.622 43.852C912.285 45.4825 913.221 47.6932 913.224 49.9992Z" fill="#FF6E17"/>
<path opacity="0.2" d="M1105.86 33.4646H1105.7C1104.41 33.4633 1103.17 32.9651 1102.26 32.0793C1101.34 31.1936 1100.83 29.9928 1100.83 28.7403C1100.83 27.359 1102.03 25.8303 1102.39 25.4056L1099.36 22.4698C1098.93 22.8213 1097.33 24.0356 1095.88 24.0356C1094.58 24.0342 1093.35 23.5362 1092.43 22.6508C1091.52 21.7653 1091.01 20.5647 1091.01 19.3123C1091.01 19.2361 1091.01 19.1722 1091.01 19.1185L1090.81 19.1031C1090.35 19.0649 1089.57 19 1089 19C1088.41 19 1087.6 19.068 1087.21 19.1031C1087.21 19.166 1087.21 19.235 1087.21 19.3093C1087.21 20.5615 1086.69 21.7621 1085.78 22.6476C1084.87 23.5331 1083.63 24.0312 1082.34 24.0325C1080.85 24.0325 1079.23 22.7553 1078.78 22.3698L1075.62 25.3922C1075.98 25.8045 1077.2 27.3384 1077.2 28.7383C1077.2 29.9908 1076.68 31.1917 1075.77 32.0773C1074.86 32.963 1073.62 33.4612 1072.33 33.4626H1072.13C1072.13 33.5151 1072.12 33.576 1072.12 33.646C1072.07 34.1202 1072 34.914 1072 35.5015C1072 36.1654 1072.1 37.1179 1072.14 37.5312H1072.33C1073.62 37.5323 1074.86 38.0303 1075.77 38.9158C1076.68 39.8013 1077.2 41.0021 1077.2 42.2545C1077.2 43.6441 1075.98 45.1749 1075.62 45.6058L1078.81 48.6446C1079.26 48.2632 1080.85 47.017 1082.34 47.017C1083.63 47.0183 1084.87 47.5164 1085.78 48.4019C1086.69 49.2874 1087.21 50.488 1087.21 51.7402C1087.21 51.8052 1087.21 51.8598 1087.21 51.9062L1087.45 51.9237C1087.87 51.9536 1088.51 52 1089 52C1089.66 52 1090.6 51.9144 1091.01 51.8732C1091.01 51.834 1091.01 51.7907 1091.01 51.7402C1091.01 50.4874 1091.52 49.2857 1092.43 48.399C1093.34 47.5122 1094.58 47.013 1095.87 47.0108C1097.31 47.0108 1098.89 48.1973 1099.33 48.5488L1102.39 45.5841C1102.04 45.1718 1100.83 43.6369 1100.83 42.2483C1100.83 40.9964 1101.35 39.7964 1102.26 38.9113C1103.17 38.0263 1104.41 37.5285 1105.7 37.5271H1105.87C1105.87 37.4797 1105.87 37.424 1105.88 37.3632C1105.92 36.9179 1106 36.0891 1106 35.4985C1106 34.8305 1105.9 33.878 1105.86 33.4646ZM1094.82 35.4995C1094.82 36.6349 1094.47 37.7448 1093.82 38.6888C1093.17 39.6329 1092.25 40.3687 1091.16 40.8032C1090.08 41.2377 1088.89 41.3514 1087.75 41.1299C1086.6 40.9084 1085.54 40.3616 1084.72 39.5588C1083.89 38.7559 1083.33 37.733 1083.1 36.6194C1082.87 35.5059 1082.99 34.3516 1083.43 33.3026C1083.88 32.2536 1084.64 31.3571 1085.61 30.7263C1086.59 30.0955 1087.73 29.7588 1088.9 29.7588C1090.47 29.7607 1091.97 30.3661 1093.08 31.4423C1094.19 32.5185 1094.81 33.9775 1094.82 35.4995Z" fill="#FF6E17"/>
<path opacity="0.2" d="M877.902 112.643H877.795C876.922 112.642 876.085 112.31 875.468 111.72C874.85 111.129 874.503 110.329 874.503 109.494C874.503 108.573 875.317 107.554 875.559 107.27L873.506 105.313C873.215 105.548 872.136 106.357 871.151 106.357C870.278 106.356 869.441 106.024 868.823 105.434C868.206 104.844 867.859 104.043 867.857 103.208C867.857 103.157 867.857 103.115 867.857 103.079L867.724 103.069C867.41 103.043 866.887 103 866.502 103C866.103 103 865.553 103.045 865.288 103.069C865.288 103.111 865.288 103.157 865.288 103.206C865.287 104.041 864.94 104.841 864.323 105.432C863.706 106.022 862.869 106.354 861.996 106.355C860.985 106.355 859.892 105.504 859.584 105.247L857.45 107.261C857.69 107.536 858.517 108.559 858.517 109.492C858.516 110.327 858.169 111.128 857.551 111.718C856.934 112.309 856.097 112.641 855.223 112.642H855.091C855.091 112.677 855.084 112.717 855.08 112.764C855.05 113.08 855 113.609 855 114.001C855 114.444 855.066 115.079 855.097 115.354H855.223C856.097 115.355 856.934 115.687 857.551 116.277C858.169 116.868 858.516 117.668 858.517 118.503C858.517 119.429 857.696 120.45 857.448 120.737L859.603 122.763C859.908 122.509 860.984 121.678 861.996 121.678C862.869 121.679 863.706 122.011 864.323 122.601C864.94 123.192 865.287 123.992 865.288 124.827C865.288 124.87 865.288 124.907 865.288 124.937L865.451 124.949C865.738 124.969 866.169 125 866.501 125C866.947 125 867.579 124.943 867.857 124.915C867.857 124.889 867.857 124.86 867.857 124.827C867.857 123.992 868.203 123.19 868.82 122.599C869.437 122.008 870.274 121.675 871.147 121.674C872.119 121.674 873.19 122.465 873.486 122.699L875.56 120.723C875.321 120.448 874.503 119.425 874.503 118.499C874.504 117.664 874.851 116.864 875.468 116.274C876.086 115.684 876.922 115.352 877.795 115.351H877.909C877.909 115.32 877.915 115.283 877.919 115.242C877.948 114.945 878 114.393 878 113.999C878 113.554 877.934 112.919 877.902 112.643ZM870.434 114C870.434 114.757 870.2 115.497 869.76 116.126C869.32 116.755 868.695 117.246 867.964 117.535C867.233 117.825 866.428 117.901 865.652 117.753C864.875 117.606 864.162 117.241 863.603 116.706C863.043 116.171 862.662 115.489 862.507 114.746C862.353 114.004 862.432 113.234 862.735 112.535C863.038 111.836 863.551 111.238 864.209 110.818C864.867 110.397 865.641 110.173 866.432 110.173C867.493 110.174 868.511 110.577 869.261 111.295C870.011 112.012 870.433 112.985 870.434 114Z" fill="#FF6E17"/>
<path d="M912.362 44.833C912.193 44.8054 912.019 44.825 911.86 44.8897C911.701 44.9545 911.563 45.0617 911.461 45.1998C911.359 45.3378 911.298 45.5013 911.283 45.6723C911.268 45.8432 911.3 46.015 911.376 46.1686V46.1686C912.16 47.7897 912.344 49.6357 911.896 51.3794C911.448 53.1231 910.396 54.6518 908.929 55.6945C907.461 56.7371 905.672 57.2263 903.878 57.0753C902.084 56.9242 900.401 56.1428 899.128 54.8695C897.855 53.5962 897.075 51.9132 896.924 50.1192C896.774 48.3251 897.264 46.5358 898.308 45.0686C899.351 43.6013 900.88 42.5509 902.624 42.1037C904.368 41.6564 906.214 41.8412 907.834 42.6252C907.988 42.701 908.159 42.733 908.33 42.7179C908.5 42.7028 908.663 42.641 908.801 42.5394C908.939 42.4377 909.046 42.3002 909.111 42.1417C909.176 41.9832 909.196 41.81 909.168 41.641C909.145 41.4956 909.087 41.358 909 41.2397C908.912 41.1215 908.797 41.0261 908.665 40.9615C906.645 39.9762 904.341 39.7391 902.162 40.2922C899.984 40.8453 898.072 42.1529 896.766 43.9826C895.461 45.8122 894.847 48.0455 895.033 50.2854C895.218 52.5253 896.192 54.6267 897.781 56.2163C899.37 57.8059 901.471 58.7806 903.711 58.9672C905.951 59.1538 908.185 58.5402 910.015 57.2355C911.845 55.9308 913.153 54.0195 913.707 51.8412C914.261 49.6629 914.025 47.3588 913.04 45.3384C912.976 45.2055 912.881 45.0902 912.763 45.0021C912.645 44.9141 912.508 44.8561 912.362 44.833V44.833Z" fill="black"/>
<path d="M931.157 45.327C931 45.2034 930.819 45.1121 930.627 45.0582C930.434 45.0044 930.232 44.989 930.034 45.0131C930.007 45.0131 929.911 45.0209 929.674 45.0209C928.267 45.0193 926.918 44.4593 925.922 43.4639C924.927 42.4685 924.368 41.119 924.367 39.7115C924.367 38.299 925.837 36.2932 926.352 35.7031C926.613 35.393 926.753 34.9987 926.746 34.5932C926.739 34.1877 926.585 33.7987 926.313 33.498L921.374 28.581C921.07 28.3287 920.686 28.1928 920.292 28.1977C919.897 28.2026 919.517 28.3479 919.219 28.6076C918.624 29.1413 916.598 30.6636 915.156 30.6636C913.749 30.6624 912.399 30.1028 911.404 29.1077C910.409 28.1126 909.849 26.7632 909.847 25.3557C909.847 25.0952 909.856 24.9822 909.856 24.9775C909.884 24.7748 909.871 24.5685 909.818 24.3708C909.766 24.1731 909.674 23.988 909.548 23.8263C909.423 23.6646 909.266 23.5296 909.088 23.4292C908.91 23.3288 908.713 23.2651 908.51 23.2417C908.425 23.2323 906.408 23 905.005 23C903.711 23 901.889 23.1946 901.812 23.2025C901.608 23.2239 901.41 23.2864 901.231 23.3862C901.051 23.486 900.894 23.621 900.768 23.7832C900.642 23.9423 900.548 24.1254 900.494 24.3215C900.441 24.5176 900.427 24.7226 900.454 24.9241C900.454 24.9477 900.468 25.0811 900.468 25.3557C900.467 26.763 899.907 28.1121 898.912 29.1071C897.917 30.1022 896.568 30.662 895.161 30.6636C893.675 30.6636 891.608 29.0455 891.002 28.4789C890.699 28.2045 890.305 28.0518 889.896 28.0503C889.488 28.0489 889.093 28.1988 888.788 28.4711L883.659 33.531C883.405 33.833 883.267 34.2155 883.27 34.6099C883.272 35.0044 883.414 35.3852 883.672 35.6843C884.193 36.276 885.68 38.2864 885.68 39.7115C885.679 41.1193 885.119 42.469 884.124 43.4645C883.129 44.4599 881.779 45.0197 880.371 45.0209C880.117 45.0209 880.007 45.0131 880.001 45.0131C879.648 44.9644 879.289 45.0397 878.986 45.226C878.682 45.4123 878.452 45.6981 878.336 46.0348L878.287 46.2121C878.276 46.2593 878.268 46.307 878.262 46.355C878.262 46.3769 878 48.5302 878 50.0008C878 51.4714 878.259 53.6105 878.262 53.6372C878.286 53.8392 878.35 54.0344 878.45 54.2116C878.55 54.3887 878.685 54.5443 878.845 54.6693C879.006 54.7944 879.189 54.8864 879.385 54.9401C879.582 54.9938 879.787 55.0081 879.988 54.9822C880.013 54.9822 880.122 54.9712 880.376 54.9712C881.783 54.9725 883.133 55.532 884.128 56.5271C885.124 57.5223 885.683 58.8716 885.685 60.2791C885.685 61.7073 884.194 63.7178 883.673 64.3094C883.41 64.6196 883.269 65.015 883.276 65.4217C883.283 65.8285 883.438 66.2186 883.712 66.5192L888.885 71.6074C889.192 71.8568 889.577 71.9886 889.972 71.9791C890.367 71.9696 890.746 71.8194 891.04 71.5556C891.642 71 893.695 69.4149 895.167 69.4149C896.574 69.4165 897.923 69.9763 898.918 70.9713C899.913 71.9664 900.473 73.3155 900.475 74.7227C900.475 74.9723 900.475 75.0727 900.475 75.0727C900.448 75.2755 900.462 75.4816 900.516 75.679C900.57 75.8763 900.663 76.0608 900.789 76.2217C900.915 76.3826 901.073 76.5165 901.251 76.6157C901.43 76.7149 901.627 76.7772 901.831 76.7991C901.85 76.7991 903.694 77 905.01 77C906.423 77 908.482 76.763 908.5 76.7599C908.904 76.7133 909.274 76.5091 909.528 76.1917C909.782 75.8743 909.901 75.4693 909.858 75.0649C909.858 75.0413 909.858 74.9534 909.858 74.7212C909.859 73.315 910.417 71.9665 911.41 70.9711C912.403 69.9756 913.75 69.4143 915.156 69.4101C916.584 69.4101 918.595 70.9011 919.186 71.4238C919.495 71.6833 919.887 71.8231 920.29 71.8176C920.694 71.8121 921.082 71.6618 921.383 71.3939L926.358 66.4408C926.61 66.1381 926.748 65.7561 926.746 65.3621C926.744 64.9681 926.602 64.5875 926.347 64.2875C925.831 63.6989 924.359 61.701 924.359 60.276C924.361 58.8679 924.922 57.5184 925.919 56.5238C926.916 55.5292 928.266 54.9708 929.674 54.9712C929.908 54.9712 930.007 54.9712 930.013 54.9712C930.215 54.9967 930.42 54.982 930.616 54.928C930.812 54.8741 930.996 54.7819 931.156 54.6567C931.317 54.5316 931.451 54.376 931.551 54.1989C931.651 54.0218 931.715 53.8266 931.739 53.6246C931.739 53.6042 932 51.4588 932 49.9961C932 48.5333 931.741 46.3785 931.738 46.3565C931.714 46.1551 931.65 45.9605 931.55 45.7838C931.451 45.6071 931.317 45.4519 931.157 45.327V45.327ZM889.943 70.0081L885.235 65.3814C885.776 64.7253 887.57 62.3994 887.57 60.2791C887.568 58.3722 886.809 56.5441 885.461 55.1959C884.113 53.8477 882.284 53.0896 880.378 53.0879H880.101C880.034 52.4601 879.89 51.0084 879.89 49.9976C879.89 49.1078 879.999 47.8993 880.064 47.1726C880.073 47.0659 880.083 46.9733 880.089 46.8933H880.378C882.284 46.8912 884.113 46.1327 885.461 44.7843C886.809 43.4358 887.568 41.6075 887.57 39.7005C887.57 37.5692 885.764 35.237 885.241 34.6061L889.9 30.017C890.572 30.604 892.959 32.5485 895.167 32.5485C897.074 32.5464 898.901 31.7881 900.25 30.44C901.598 29.0918 902.356 27.2639 902.358 25.3573C902.358 25.2443 902.358 25.1392 902.358 25.0434C902.936 24.9885 904.136 24.8865 905.009 24.8865C905.851 24.8865 906.995 24.9822 907.677 25.0434L907.968 25.067C907.968 25.1486 907.968 25.2459 907.968 25.362C907.971 27.2688 908.73 29.0967 910.078 30.4448C911.426 31.7929 913.254 32.5511 915.161 32.5532C917.312 32.5532 919.668 30.7044 920.304 30.1692L924.795 34.6406C924.266 35.2872 922.488 37.6225 922.488 39.7178C922.49 41.6246 923.248 43.4529 924.596 44.8014C925.944 46.1499 927.772 46.9085 929.679 46.9105H929.913C929.982 47.5383 930.126 48.9901 930.126 50.0086C930.126 50.9079 930.012 52.1698 929.949 52.8478C929.949 52.9419 929.933 53.0251 929.927 53.0973H929.679C927.772 53.0994 925.945 53.8577 924.597 55.2059C923.248 56.554 922.49 58.3819 922.488 60.2885C922.488 62.4026 924.276 64.7332 924.797 65.3672L920.269 69.881C919.622 69.3458 917.287 67.5394 915.161 67.5394C913.254 67.541 911.426 68.2992 910.077 69.6474C908.729 70.9956 907.971 72.8237 907.968 74.7306C907.968 74.8075 907.968 74.8734 907.968 74.933C907.363 74.9958 905.982 75.1261 905.009 75.1261C904.287 75.1261 903.34 75.0555 902.714 75.0099L902.36 74.9833C902.36 74.9126 902.36 74.8263 902.36 74.7306C902.361 72.8215 901.604 70.9902 900.255 69.6393C898.906 68.2883 897.076 67.5285 895.167 67.5268C892.958 67.5268 890.608 69.4274 889.943 70.0081Z" fill="#1C1C1C"/>
</g>
<rect x="0.5" y="0.5" width="1199" height="149" rx="9.5" stroke="#F1F1F1"/>
<defs>
<clipPath id="clip0_87_19438">
<rect width="1200" height="150" rx="10" fill="white"/>
</clipPath>
</defs>
</svg>
