<svg width="1200" height="150" viewBox="0 0 1200 150" fill="none" xmlns="http://www.w3.org/2000/svg">
<g clip-path="url(#clip0_87_19115)">
<rect width="1200" height="150" rx="10" fill="white"/>
<g clip-path="url(#clip1_87_19115)">
<path d="M1022.85 117.118C1037.68 102.286 1037.68 78.2377 1022.85 63.4052C1008.01 48.5728 983.965 48.5728 969.132 63.4052C954.3 78.2377 954.3 102.286 969.132 117.118C983.965 131.951 1008.01 131.951 1022.85 117.118Z" fill="#FF6E17" fill-opacity="0.2"/>
<rect x="999" y="45" width="83" height="48" rx="8" fill="#FF6E17"/>
<path d="M1141.57 74.7461H1113.48" stroke="#FF6E17" stroke-opacity="0.2" stroke-width="8.86688" stroke-linecap="round" stroke-linejoin="round"/>
<path d="M967.17 46.6641H949.433" stroke="#FF6E17" stroke-opacity="0.2" stroke-width="8.86688" stroke-linecap="round" stroke-linejoin="round"/>
<path d="M1080.97 15.625H1066.19" stroke="#FF6E17" stroke-opacity="0.2" stroke-width="8.86688" stroke-linecap="round" stroke-linejoin="round"/>
<path d="M1053.65 29.3638C1054.22 26.9817 1052.75 24.5913 1050.36 24.0247C1047.98 23.4581 1045.59 24.9298 1045.03 27.3119C1044.46 29.694 1045.93 32.0843 1048.31 32.6509C1050.7 33.2175 1053.09 31.7458 1053.65 29.3638Z" stroke="black" stroke-width="2.2181" stroke-linecap="round" stroke-linejoin="round"/>
<path d="M982.596 32.7405C983.062 30.7543 981.83 28.7662 979.844 28.3C977.858 27.8337 975.869 29.0659 975.403 31.0521C974.937 33.0383 976.169 35.0264 978.155 35.4926C980.142 35.9588 982.13 34.7266 982.596 32.7405Z" stroke="#FF7800" stroke-width="2.2181" stroke-linecap="round" stroke-linejoin="round"/>
<path d="M1117.24 93.7483L1108.48 96.0961C1108.18 96.1768 1107.91 96.3353 1107.69 96.5557C1107.47 96.7761 1107.31 97.0506 1107.23 97.3517C1107.15 97.6527 1107.15 97.9697 1107.23 98.2709C1107.31 98.572 1107.47 98.8467 1107.69 99.0673L1114.1 105.484C1114.32 105.705 1114.6 105.863 1114.9 105.943C1115.2 106.024 1115.52 106.024 1115.82 105.943C1116.12 105.862 1116.39 105.704 1116.61 105.483C1116.83 105.263 1116.99 104.988 1117.07 104.687L1119.42 95.925C1119.5 95.6236 1119.5 95.3063 1119.42 95.0048C1119.34 94.7034 1119.18 94.4285 1118.96 94.2079C1118.74 93.9872 1118.47 93.8286 1118.16 93.7479C1117.86 93.6672 1117.55 93.6674 1117.24 93.7483V93.7483Z" fill="#FF6E17" stroke="black" stroke-width="2.2181" stroke-linecap="round" stroke-linejoin="round"/>
<path d="M969.385 78.4414H976.776" stroke="black" stroke-width="2.2181" stroke-linecap="round" stroke-linejoin="round"/>
<path d="M973.082 82.137V74.7461" stroke="black" stroke-width="2.2181" stroke-linecap="round" stroke-linejoin="round"/>
<path d="M1022.59 131.645H1025.55" stroke="#FF7800" stroke-width="2.2181" stroke-linecap="round" stroke-linejoin="round"/>
<path d="M1134.92 56.2734H1106.84" stroke="black" stroke-width="2.2181" stroke-linecap="round" stroke-linejoin="round"/>
<path d="M1127.53 63.6602H1117.18" stroke="#FF7800" stroke-width="2.2181" stroke-linecap="round" stroke-linejoin="round"/>
<path d="M987.511 142.329C988.878 140.815 988.758 138.479 987.244 137.112C985.729 135.745 983.393 135.864 982.026 137.379C980.659 138.893 980.779 141.229 982.293 142.596C983.808 143.963 986.144 143.844 987.511 142.329Z" fill="#FF6E17" fill-opacity="0.2"/>
<path d="M1055.85 102.502H1007.04C1005.05 102.502 1003.14 101.712 1001.74 100.306C1000.33 98.8993 999.542 96.992 999.542 95.0033V52.1587C999.542 50.1699 1000.33 48.2627 1001.74 46.8564C1003.14 45.4502 1005.05 44.6602 1007.04 44.6602H1074.79C1076.78 44.6602 1078.69 45.4502 1080.09 46.8564C1081.5 48.2627 1082.29 50.1699 1082.29 52.1587V71.9257" stroke="black" stroke-width="2.2181" stroke-linecap="round" stroke-linejoin="round"/>
<path d="M1038.55 97.4414H1043.28" stroke="black" stroke-width="2.2181" stroke-linecap="round" stroke-linejoin="round"/>
<path d="M999.542 92.8359H1053.78" stroke="black" stroke-width="2.2181" stroke-linecap="round" stroke-linejoin="round"/>
<path d="M1032.97 111.746L1033.83 102.465" stroke="black" stroke-width="2.2181" stroke-linecap="round" stroke-linejoin="round"/>
<path d="M1048.01 102.465L1048.87 111.746" stroke="black" stroke-width="2.2181" stroke-linecap="round" stroke-linejoin="round"/>
<path d="M1024.81 111.75H1057.02" stroke="black" stroke-width="2.2181" stroke-linecap="round" stroke-linejoin="round"/>
<path d="M1091.76 89.1492L1089.59 83.8936L1084.74 85.4772C1084.19 84.7823 1083.56 84.1528 1082.87 83.6012L1084.45 78.7732L1079.21 76.5965L1076.91 81.1403C1076.03 81.0382 1075.14 81.0382 1074.26 81.1403L1071.95 76.5938L1066.71 78.7705L1068.29 83.6177C1067.6 84.1666 1066.97 84.7943 1066.42 85.4882L1061.57 83.9046L1059.4 89.1602L1063.91 91.4638C1063.81 92.3438 1063.81 93.2324 1063.91 94.1123L1059.37 96.4214L1061.54 101.663L1066.39 100.08C1066.94 100.774 1067.57 101.403 1068.26 101.956L1066.68 106.797L1071.92 108.974L1074.24 104.43C1075.12 104.531 1076.01 104.531 1076.89 104.43L1079.2 108.977L1084.44 106.8L1082.87 101.947C1083.56 101.397 1084.19 100.77 1084.75 100.077L1089.59 101.672L1091.76 96.4297L1087.22 94.1234C1087.32 93.2435 1087.32 92.3547 1087.22 91.4749L1091.76 89.1492Z" fill="white" stroke="white" stroke-width="6.22" stroke-linecap="round" stroke-linejoin="round"/>
<path d="M1091.76 89.1492L1089.59 83.8936L1084.74 85.4772C1084.19 84.7823 1083.56 84.1528 1082.87 83.6012L1084.45 78.7732L1079.21 76.5965L1076.91 81.1403C1076.03 81.0382 1075.14 81.0382 1074.26 81.1403L1071.95 76.5938L1066.71 78.7705L1068.29 83.6177C1067.6 84.1666 1066.97 84.7943 1066.42 85.4882L1061.57 83.9046L1059.4 89.1602L1063.91 91.4638C1063.81 92.3438 1063.81 93.2324 1063.91 94.1123L1059.37 96.4215L1061.54 101.663L1066.39 100.08C1066.94 100.774 1067.57 101.403 1068.26 101.956L1066.68 106.797L1071.92 108.974L1074.24 104.43C1075.12 104.531 1076.01 104.531 1076.89 104.43L1079.2 108.977L1084.44 106.8L1082.87 101.947C1083.56 101.397 1084.19 100.77 1084.75 100.077L1089.59 101.672L1091.76 96.4297L1087.22 94.1234C1087.32 93.2435 1087.32 92.3547 1087.22 91.4749L1091.76 89.1492Z" fill="white" stroke="#FF7800" stroke-width="2.2181" stroke-linecap="round" stroke-linejoin="round"/>
<path d="M1080.49 90.7373C1080.9 91.7118 1081 92.7841 1080.8 93.8187C1080.59 94.8533 1080.08 95.8037 1079.34 96.5496C1078.59 97.2955 1077.64 97.8035 1076.61 98.0093C1075.57 98.2151 1074.5 98.1095 1073.53 97.7058C1072.55 97.3021 1071.72 96.6184 1071.13 95.7413C1070.55 94.8642 1070.23 93.833 1070.23 92.7782C1070.24 91.7234 1070.55 90.6923 1071.13 89.8153C1071.72 88.9384 1072.55 88.255 1073.53 87.8516C1074.18 87.5834 1074.87 87.4454 1075.57 87.4453C1076.27 87.4452 1076.96 87.5831 1077.61 87.8511C1078.26 88.1191 1078.84 88.5119 1079.34 89.0072C1079.83 89.5024 1080.23 90.0903 1080.49 90.7373Z" stroke="#FF7800" stroke-width="2.2181" stroke-linecap="round" stroke-linejoin="round"/>
<path d="M987.761 110.067C989.122 101.863 983.575 94.1085 975.371 92.7474C967.167 91.3863 959.413 96.9335 958.051 105.138C956.69 113.342 962.238 121.096 970.442 122.457C978.646 123.818 986.4 118.271 987.761 110.067Z" fill="white" stroke="black" stroke-width="2.2181" stroke-linecap="round" stroke-linejoin="round"/>
<path d="M967 106.205L971.472 111L978 104" stroke="#FF7800" stroke-width="2.2181" stroke-linecap="round" stroke-linejoin="round"/>
</g>
</g>
<rect x="0.5" y="0.5" width="1199" height="149" rx="9.5" stroke="#F1F1F1"/>
<defs>
<clipPath id="clip0_87_19115">
<rect width="1200" height="150" rx="10" fill="white"/>
</clipPath>
<clipPath id="clip1_87_19115">
<rect width="201" height="162.553" fill="white" transform="translate(945 -8)"/>
</clipPath>
</defs>
</svg>
